<svg width="56" height="56" viewBox="0 0 56 56" fill="none" xmlns="http://www.w3.org/2000/svg">
<rect width="56" height="56" rx="16" fill="#7030F7"/>
<path d="M40.4925 35.5976C40.4099 35.9327 40.3522 36.2771 40.2416 36.6044C39.9276 37.569 39.32 38.4114 38.5038 39.0138C37.6877 39.6163 36.7037 39.9486 35.6893 39.9644C33.7584 40.0314 31.8867 38.8236 31.1121 36.9566C30.8382 36.3029 30.7101 35.5974 30.7369 34.8891C30.7637 34.1808 30.9447 33.487 31.2673 32.8559C31.5899 32.2248 32.0463 31.6717 32.6047 31.2352C33.163 30.7986 33.8099 30.4892 34.5002 30.3285C35.1613 30.1738 35.8474 30.1588 36.5147 30.2845C37.1819 30.4102 37.8155 30.6738 38.375 31.0584C38.9345 31.4431 39.4075 31.9403 39.7638 32.5182C40.1201 33.0961 40.3519 33.7421 40.4442 34.4147C40.4552 34.4621 40.4713 34.5081 40.4925 34.5519V35.5976ZM32.5444 35.4573L34.6872 37.6002L38.68 33.6153L37.9725 32.9015L34.6997 36.1742L33.2706 34.7295L32.5444 35.4573Z" fill="white"/>
<path d="M30.3532 37.8464H15.96C15.4438 37.8464 15.0078 37.4535 15.001 36.9373C14.9568 33.5637 16.3868 29.7041 20.1702 27.2489C21.6991 29.2234 23.6908 30.3268 26.217 30.3268C28.7433 30.3268 30.7241 29.2359 32.267 27.2473C33.1252 27.7988 33.9025 28.4671 34.5766 29.2328C32.6223 29.6427 31.162 30.6993 30.2924 32.4759C29.4228 34.2526 29.4851 36.037 30.3532 37.8464Z" fill="white"/>
<path d="M31.5111 21.2956C31.5078 22.6962 30.9515 24.0387 29.9632 25.0311C28.9749 26.0235 27.6347 26.5853 26.2342 26.5944C25.539 26.597 24.8502 26.4626 24.2071 26.1987C23.564 25.9348 22.9793 25.5467 22.4864 25.0565C21.9935 24.5664 21.6021 23.9838 21.3346 23.3422C21.0672 22.7006 20.9289 22.0126 20.9276 21.3174C20.9252 20.6212 21.06 19.9313 21.3243 19.2872C21.5886 18.6431 21.9772 18.0574 22.468 17.5635C22.9588 17.0697 23.5421 16.6774 24.1846 16.4092C24.827 16.1409 25.5161 16.0018 26.2123 16C27.6151 16.0066 28.9586 16.5665 29.9508 17.5581C30.943 18.5497 31.5037 19.8929 31.5111 21.2956Z" fill="white"/>
</svg>
