<svg width="56" height="56" viewBox="0 0 56 56" fill="none" xmlns="http://www.w3.org/2000/svg">
<rect width="56" height="56" rx="16" fill="#FF8A48"/>
<path d="M29.8714 34.726C30.1972 34.9782 30.5334 35.1989 30.8277 35.4616C31.2947 35.8935 31.6653 36.4191 31.9153 37.004C32.1652 37.5889 32.2888 38.2201 32.2781 38.8561C32.2781 39.329 32.2781 39.7914 32.2781 40.2643C32.2781 40.7372 32.0574 40.9999 31.5425 40.9999H23.8076C23.3032 40.9999 23.0615 40.7688 23.072 40.2643C23.0612 39.5135 23.0929 38.7626 23.1667 38.0153C23.2573 37.3656 23.4932 36.7446 23.8571 36.1987C24.221 35.6529 24.7036 35.1962 25.2685 34.8626L25.4786 34.7365C24.9514 34.3686 24.5261 33.8728 24.243 33.2956C23.9599 32.7184 23.8283 32.0787 23.8602 31.4366C23.8692 30.9354 23.9835 30.4416 24.1953 29.9872C24.4071 29.5328 24.7116 29.128 25.0897 28.7988C25.4602 28.4605 25.8939 28.1989 26.3659 28.0289C26.8379 27.859 27.3391 27.784 27.8401 27.8085C28.3412 27.8329 28.8324 27.9561 29.2857 28.1712C29.7389 28.3862 30.1452 28.6888 30.481 29.0615C30.8391 29.4618 31.1091 29.9328 31.2736 30.444C31.4381 30.9553 31.4934 31.4953 31.436 32.0293C31.3785 32.5632 31.2095 33.0792 30.94 33.5437C30.6705 34.0083 30.3064 34.411 29.8714 34.726Z" fill="white"/>
<path d="M29.9766 27.1698C30.6728 26.5377 31.5794 26.1875 32.5198 26.1875C33.4601 26.1875 34.3667 26.5377 35.0629 27.1698C35.4745 27.5603 35.7951 28.0368 36.0014 28.5653C36.2078 29.0938 36.2949 29.6613 36.2567 30.2273C36.2186 30.7934 36.0562 31.3441 35.7808 31.8401C35.5054 32.3361 35.124 32.7653 34.6637 33.097C35.2437 33.4221 35.7514 33.8619 36.1559 34.3896C36.7507 35.1802 37.0718 36.1431 37.0703 37.1325V38.6879C37.0776 38.7723 37.0671 38.8572 37.0398 38.9373C37.0124 39.0174 36.9688 39.091 36.9115 39.1533C36.8542 39.2156 36.7844 39.2652 36.7068 39.2991C36.6292 39.3329 36.5454 39.3503 36.4607 39.3499H33.5812H33.5076C33.5787 38.4745 33.4545 37.5942 33.1437 36.7727C32.8329 35.9512 32.3433 35.209 31.7105 34.5998C32.1482 34.0129 32.449 33.3354 32.5908 32.6171C32.7327 31.8988 32.7119 31.158 32.5303 30.4487C32.3691 29.7492 32.057 29.0933 31.6159 28.5269C31.1748 27.9606 30.6154 27.4974 29.9766 27.1698Z" fill="white"/>
<path d="M23.6816 34.6524C23.0437 35.2662 22.5519 36.0155 22.2427 36.845C21.9335 37.6745 21.8144 38.5629 21.8948 39.4445H19.0468C18.5004 39.4445 18.2797 39.2344 18.2902 38.6774C18.2708 37.9973 18.2884 37.3167 18.3428 36.6386C18.4186 35.9395 18.6603 35.2686 19.0479 34.6818C19.4354 34.095 19.9576 33.6093 20.5709 33.2651L20.7074 33.1916C20.1628 32.8064 19.728 32.2859 19.4461 31.6814C19.1641 31.0769 19.0446 30.4094 19.0994 29.7446C19.1297 29.257 19.2579 28.7805 19.4763 28.3435C19.6948 27.9066 19.9991 27.5181 20.371 27.2013C21.0589 26.5861 21.9495 26.246 22.8723 26.246C23.7952 26.246 24.6855 26.5861 25.3734 27.2013C24.7283 27.5338 24.1649 28.0049 23.7234 28.5809C23.2819 29.1569 22.9732 29.8235 22.8197 30.5328C22.6489 31.2404 22.6376 31.9771 22.7866 32.6896C22.9357 33.4022 23.2414 34.0726 23.6816 34.6524Z" fill="white"/>
<path d="M30.5197 25.5989C30.4176 25.5623 30.3191 25.5158 30.2254 25.4601L27.8704 24.1824C27.7524 24.1046 27.6156 24.0632 27.4758 24.0632C27.336 24.0632 27.1992 24.1046 27.0812 24.1824C26.3185 24.6129 25.5291 25.0295 24.7664 25.4462C24.5389 25.5712 24.3248 25.6684 24.084 25.4462C23.9869 25.3683 23.9164 25.2602 23.8827 25.1378C23.849 25.0154 23.8537 24.885 23.8965 24.7657C24.0436 23.9046 24.1775 23.0297 24.3247 22.1686C24.3686 22.0031 24.3668 21.828 24.3195 21.6635C24.2722 21.499 24.1813 21.3516 24.0572 21.238C23.4149 20.6409 22.8126 19.9882 22.1837 19.3771C22.0871 19.3019 22.0159 19.197 21.9799 19.0774C21.9439 18.9577 21.945 18.8294 21.9832 18.7105C22.0289 18.6 22.1058 18.5063 22.2037 18.4419C22.3016 18.3774 22.4158 18.3452 22.5316 18.3494L25.2077 17.9466C25.3277 17.9317 25.4419 17.884 25.5383 17.8083C25.6347 17.7327 25.71 17.6318 25.7565 17.5161L26.9338 15.0162C26.9677 14.8949 27.0379 14.7879 27.1341 14.7106C27.2303 14.6332 27.3473 14.5895 27.4689 14.5857C27.5842 14.5941 27.6945 14.6384 27.7851 14.7127C27.8758 14.787 27.9429 14.8879 27.9775 15.0023L29.1549 17.5022C29.2088 17.6313 29.2964 17.7425 29.4074 17.8233C29.5184 17.9042 29.6487 17.9516 29.784 17.9605C30.6805 18.0855 31.577 18.2105 32.4601 18.3633C32.6516 18.4241 32.8168 18.5516 32.9282 18.7243C32.9711 18.8301 32.9786 18.9479 32.9495 19.0586C32.9204 19.1694 32.8565 19.2668 32.7678 19.3354C32.1256 19.9742 31.5232 20.627 30.8676 21.238C30.741 21.3467 30.6473 21.491 30.5974 21.6536C30.5476 21.8161 30.5438 21.99 30.5867 22.1547C30.7472 23.0574 30.8945 23.974 31.0417 24.9323C31.0551 25.0125 31.0517 25.0948 31.0319 25.1736C31.0121 25.2523 30.9765 25.3258 30.9271 25.389C30.8776 25.4521 30.8157 25.5035 30.7454 25.5398C30.6752 25.576 30.5981 25.5962 30.5197 25.5989Z" fill="white"/>
<path d="M30 19L27.25 22L26 20.6364" stroke="#FF8A48" stroke-linecap="round" stroke-linejoin="round"/>
</svg>
