<svg width="18" height="18" viewBox="0 0 18 18" fill="none" xmlns="http://www.w3.org/2000/svg">
<path d="M13.6875 0.875H4.3125C2.09583 0.875 0.875 2.09583 0.875 4.3125V13.6875C0.875 15.9042 2.09583 17.125 4.3125 17.125H13.6875C15.9042 17.125 17.125 15.9042 17.125 13.6875V4.3125C17.125 2.09583 15.9042 0.875 13.6875 0.875ZM15.875 13.6875C15.875 15.2208 15.2208 15.875 13.6875 15.875H4.3125C2.77917 15.875 2.125 15.2208 2.125 13.6875V4.3125C2.125 2.77917 2.77917 2.125 4.3125 2.125H13.6875C15.2208 2.125 15.875 2.77917 15.875 4.3125V13.6875ZM12.9099 9.23926C12.8782 9.31592 12.8325 9.385 12.775 9.4425L10.275 11.9425C10.1534 12.0642 9.99333 12.1258 9.83333 12.1258C9.67333 12.1258 9.51331 12.065 9.39164 11.9425C9.14748 11.6983 9.14748 11.3025 9.39164 11.0583L10.825 9.625H5.66667C5.32167 9.625 5.04167 9.345 5.04167 9C5.04167 8.655 5.32167 8.375 5.66667 8.375H10.8241L9.39083 6.94169C9.14666 6.69752 9.14666 6.30166 9.39083 6.05749C9.63499 5.81333 10.0309 5.81333 10.275 6.05749L12.775 8.55749C12.8325 8.61499 12.8782 8.68408 12.9099 8.76074C12.9732 8.91408 12.9732 9.08592 12.9099 9.23926Z" fill="#4876FF"/>
</svg>
