<svg width="17" height="17" viewBox="0 0 17 17" fill="none" xmlns="http://www.w3.org/2000/svg">
<path d="M15.9069 15.0012L15.9068 15.0011L13.6591 12.8076C14.8138 11.5431 15.517 9.87503 15.517 8.04913C15.517 4.10458 12.2369 0.9 8.20886 0.9C4.18086 0.9 0.9 4.10457 0.9 8.04913C0.9 11.9937 4.18084 15.199 8.20886 15.199C9.90024 15.199 11.4595 14.6339 12.6994 13.6865L14.9825 15.9131L14.9827 15.9132C15.111 16.0379 15.2785 16.1 15.4447 16.1C15.6112 16.1 15.7798 16.0381 15.9079 15.9113C16.1648 15.6598 16.1636 15.2523 15.9069 15.0012ZM2.21031 8.04913C2.21031 4.81789 4.8992 2.18582 8.20886 2.18582C11.5178 2.18582 14.2067 4.81788 14.2067 8.04913C14.2067 11.2804 11.5177 13.9132 8.20886 13.9132C4.89922 13.9132 2.21031 11.2804 2.21031 8.04913Z" fill="white" stroke="white" stroke-width="0.2"/>
</svg>
