<svg width="18" height="18" viewBox="0 0 18 18" fill="none" xmlns="http://www.w3.org/2000/svg">
<path d="M1.5 17.125C1.41917 17.125 1.33824 17.1092 1.26074 17.0775C1.02741 16.9808 0.875 16.7525 0.875 16.5V4C0.875 1.985 1.985 0.875 4 0.875H14C16.015 0.875 17.125 1.985 17.125 4V11.5C17.125 13.515 16.015 14.625 14 14.625H4.2592L1.9425 16.9417C1.8225 17.0617 1.6625 17.125 1.5 17.125ZM4 2.125C2.68583 2.125 2.125 2.68583 2.125 4V14.9908L3.55831 13.5575C3.67581 13.44 3.83417 13.3742 4 13.3742H14C15.3142 13.3742 15.875 12.8134 15.875 11.4992V3.99919C15.875 2.68502 15.3142 2.12419 14 2.12419H4V2.125ZM12.9583 6.08333C12.9583 5.73833 12.6783 5.45833 12.3333 5.45833H5.66667C5.32167 5.45833 5.04167 5.73833 5.04167 6.08333C5.04167 6.42833 5.32167 6.70833 5.66667 6.70833H12.3333C12.6783 6.70833 12.9583 6.42833 12.9583 6.08333ZM10.4583 9.41667C10.4583 9.07167 10.1783 8.79167 9.83333 8.79167H5.66667C5.32167 8.79167 5.04167 9.07167 5.04167 9.41667C5.04167 9.76167 5.32167 10.0417 5.66667 10.0417H9.83333C10.1783 10.0417 10.4583 9.76167 10.4583 9.41667Z" fill="#16A34A"/>
</svg>
