<svg width="16" height="18" viewBox="0 0 16 18" fill="none" xmlns="http://www.w3.org/2000/svg">
<path d="M7.99981 5.87502C6.27648 5.87502 4.87481 7.27669 4.87481 9.00002C4.87481 10.7234 6.27648 12.125 7.99981 12.125C9.72314 12.125 11.1248 10.7234 11.1248 9.00002C11.1248 7.27669 9.72314 5.87502 7.99981 5.87502ZM7.99981 10.875C6.96564 10.875 6.12481 10.0342 6.12481 9.00002C6.12481 7.96586 6.96564 7.12502 7.99981 7.12502C9.03398 7.12502 9.87481 7.96586 9.87481 9.00002C9.87481 10.0342 9.03398 10.875 7.99981 10.875ZM14.019 4.1517L9.43565 1.28668C8.56315 0.74168 7.43731 0.74168 6.56481 1.28668L1.98148 4.1517C1.18398 4.65003 0.708984 5.50835 0.708984 6.44835V11.5517C0.708984 12.4917 1.18481 13.35 1.98148 13.8484L6.56481 16.7134C7.00064 16.9859 7.50065 17.1217 8.00065 17.1217C8.50065 17.1217 8.99981 16.985 9.43648 16.7134L14.0198 13.8484C14.8173 13.35 15.2923 12.4917 15.2923 11.5517V6.44835C15.2915 5.50835 14.8157 4.65003 14.019 4.1517ZM14.0415 11.5517C14.0415 12.0575 13.7848 12.52 13.3565 12.7883L8.77314 15.6534C8.30397 15.9467 7.69648 15.9467 7.22731 15.6534L2.64398 12.7883C2.21481 12.52 1.95898 12.0584 1.95898 11.5517V6.44835C1.95898 5.94251 2.21564 5.48003 2.64398 5.2117L7.22731 2.34668C7.46231 2.20002 7.73148 2.1267 8.00065 2.1267C8.26982 2.1267 8.53898 2.20002 8.77398 2.34668L13.3573 5.2117C13.7865 5.48003 14.0423 5.94168 14.0423 6.44835V11.5517H14.0415Z" fill="#DC2626"/>
</svg>
