<svg width="56" height="56" viewBox="0 0 56 56" fill="none" xmlns="http://www.w3.org/2000/svg">
<rect width="56" height="56" rx="16" fill="#FB48FF"/>
<path d="M24.89 31.4426L27.093 34.3397C27.4591 34.8258 27.7241 34.8258 28.0965 34.3397L30.0595 31.6383L30.2173 31.4363C31.101 32.3641 32.2875 32.6482 33.4236 32.9953C34.1553 33.1847 34.8263 33.5586 35.3722 34.0813C35.9181 34.604 36.3208 35.258 36.5418 35.9808C36.8826 37.0223 37.3054 38.0385 37.6904 39.0736C37.7928 39.2862 37.8367 39.5223 37.8174 39.7575C37.7981 39.9926 37.7163 40.2184 37.5805 40.4114C37.4448 40.6044 37.26 40.7577 37.0452 40.8554C36.8304 40.9531 36.5934 40.9917 36.3587 40.9672C35.6392 40.9672 35.6391 40.9672 35.3614 40.336C35.0837 39.7048 34.7302 38.8906 34.4399 38.1647C34.4076 38.0597 34.3373 37.9704 34.2428 37.9144C34.1483 37.8584 34.0362 37.8396 33.9286 37.8618C33.829 37.8707 33.736 37.9151 33.6665 37.987C33.5969 38.0588 33.5556 38.1533 33.55 38.2531C33.5484 38.3806 33.5787 38.5064 33.6383 38.6191C33.9349 39.3324 34.2694 40.0519 34.5408 40.7652L34.6166 40.9735H20.5728L20.6864 40.6831C20.9767 39.9825 21.2798 39.2882 21.5701 38.5939C21.7027 38.2657 21.6269 38.0132 21.3618 37.8933C21.0967 37.7734 20.8568 37.8933 20.7306 38.2341C20.3708 39.0736 20.0111 39.9131 19.6639 40.7589C19.5945 40.9293 19.5188 41.0113 19.3294 40.9987C19.14 40.9861 18.9128 40.9987 18.6982 40.9987C18.4891 41.0037 18.2819 40.9581 18.0942 40.8659C17.9064 40.7737 17.7437 40.6376 17.6198 40.4691C17.4959 40.3006 17.4146 40.1047 17.3825 39.898C17.3505 39.6914 17.3688 39.48 17.4359 39.2819C17.9156 37.9501 18.4015 36.6246 18.9443 35.3181C19.1543 34.8157 19.4725 34.3657 19.8761 34.0003C20.2798 33.6348 20.7589 33.3628 21.2797 33.2036C21.9108 32.989 22.542 32.787 23.1732 32.5724C23.8263 32.336 24.4145 31.9489 24.89 31.4426ZM28.0459 39.4271C28.0447 39.3139 28.0015 39.2053 27.9245 39.1224C27.8474 39.0395 27.7422 38.9883 27.6294 38.9789C27.5157 38.9769 27.4056 39.0182 27.3212 39.0944C27.2368 39.1706 27.1846 39.2759 27.175 39.3892C27.1724 39.4474 27.1816 39.5056 27.2019 39.5602C27.2223 39.6148 27.2534 39.6648 27.2935 39.7072C27.3335 39.7496 27.3815 39.7835 27.4349 39.8069C27.4883 39.8304 27.5458 39.8429 27.6041 39.8436C27.7142 39.8405 27.8191 39.7959 27.8975 39.7186C27.976 39.6413 28.0224 39.5371 28.0271 39.4271H28.0459ZM27.6041 36.6562C27.6607 36.6579 27.7172 36.6482 27.7699 36.6277C27.8227 36.6072 27.8708 36.5763 27.9114 36.5369C27.952 36.4974 27.9843 36.4502 28.0063 36.3981C28.0284 36.346 28.0398 36.2899 28.0398 36.2333C28.0398 36.1199 27.9956 36.011 27.9166 35.9297C27.8377 35.8484 27.7301 35.8011 27.6168 35.7978C27.5028 35.7977 27.3932 35.8416 27.3109 35.9204C27.2285 35.9992 27.1798 36.1068 27.175 36.2207C27.1748 36.3319 27.2172 36.439 27.2935 36.52C27.3698 36.601 27.4741 36.6497 27.5852 36.6562H27.6041ZM27.1686 37.9817C27.1652 38.0951 27.206 38.2054 27.2827 38.2891C27.3593 38.3728 27.4656 38.4233 27.5789 38.4298C27.6379 38.4341 27.6972 38.4264 27.7533 38.4073C27.8093 38.3882 27.8611 38.3581 27.9052 38.3186C27.9494 38.2792 27.9851 38.2312 28.0103 38.1777C28.0356 38.1241 28.0499 38.0661 28.0522 38.0069C28.0491 37.8935 28.0032 37.7854 27.9236 37.7046C27.8439 37.6237 27.7365 37.5762 27.6231 37.5714C27.5101 37.5695 27.4007 37.611 27.3173 37.6873C27.234 37.7636 27.183 37.869 27.175 37.9817H27.1686Z" fill="white"/>
<path d="M25.8119 20.2834C24.9461 21.2175 23.7662 21.7995 22.4982 21.9182C22.3511 21.9554 22.197 21.9547 22.0504 21.9162C21.9037 21.8776 21.7691 21.8025 21.6594 21.6978C21.5497 21.5931 21.4683 21.4623 21.4229 21.3176C21.3775 21.1729 21.3696 21.019 21.3999 20.8704C21.4253 19.985 21.6068 19.1111 21.9363 18.2889C22.3449 17.2837 23.0164 16.407 23.8804 15.7507C24.7444 15.0943 25.769 14.6826 26.8469 14.5586C28.4713 14.3509 30.1124 14.7886 31.4176 15.7776C32.7229 16.7665 33.5883 18.2279 33.8279 19.8479C33.8732 20.1385 33.9027 20.4314 33.9162 20.7252C33.9507 20.9585 33.8919 21.1961 33.7525 21.3863C33.6131 21.5765 33.4043 21.7041 33.1714 21.7414C31.2299 22.2511 29.1712 22.0657 27.3519 21.2175C26.828 20.9651 26.3484 20.6053 25.8119 20.2834Z" fill="white"/>
<path d="M25.9758 21.4952C27.8681 22.7284 30.1553 23.2039 32.3822 22.8271C32.3822 22.8271 32.4265 22.8649 32.4265 22.8838C32.5409 24.0185 32.4381 25.1646 32.1235 26.2607C31.803 27.1755 31.205 27.9676 30.413 28.5265C29.621 29.0854 28.6746 29.3833 27.7052 29.3787C26.5023 29.445 25.32 29.0451 24.4043 28.2622C23.4886 27.4793 22.9099 26.3736 22.7883 25.175C22.7229 24.4406 22.7018 23.7029 22.7251 22.9659C22.7327 22.9267 22.75 22.89 22.7753 22.8591C22.8007 22.8283 22.8333 22.8042 22.8703 22.7892C23.4068 22.6251 23.9622 22.5241 24.4735 22.3095C24.9894 22.0669 25.491 21.7951 25.9758 21.4952Z" fill="white"/>
<path d="M37.9872 19.387C37.8295 19.3965 37.6714 19.3965 37.5138 19.387C36.7768 19.2885 36.0296 19.4686 35.4184 19.892C35.3434 19.9581 35.2468 19.9946 35.1469 19.9946C35.0469 19.9946 34.9504 19.9581 34.8755 19.892C34.7979 19.8291 34.7444 19.7415 34.7237 19.6438C34.703 19.5462 34.7165 19.4444 34.7619 19.3555C34.7896 19.271 34.8108 19.1844 34.8251 19.0967C34.9162 18.7941 34.9162 18.4714 34.8251 18.1688C34.598 17.4414 34.598 16.6619 34.8251 15.9344C34.9044 15.6082 35.0864 15.3162 35.3444 15.1014C35.6024 14.8866 35.9226 14.7604 36.2577 14.7415C37.4055 14.6721 38.5564 14.6721 39.7041 14.7415C40.131 14.7826 40.5268 14.9825 40.8132 15.3017C41.0996 15.6208 41.2556 16.0359 41.2505 16.4646C41.2505 16.837 41.2505 17.2094 41.2505 17.5881C41.2422 18.0703 41.0439 18.5297 40.6988 18.8666C40.3537 19.2034 39.8896 19.3904 39.4073 19.387C38.9466 19.387 38.4859 19.387 38.0251 19.387H37.9872ZM38.0883 17.3799H39.2622C39.3187 17.3859 39.376 17.3805 39.4305 17.364C39.4849 17.3474 39.5354 17.3201 39.579 17.2836C39.6226 17.247 39.6584 17.202 39.6843 17.1513C39.7101 17.1006 39.7253 17.0453 39.7293 16.9885C39.7288 16.929 39.7158 16.8702 39.691 16.8161C39.6663 16.762 39.6305 16.7137 39.5858 16.6743C39.5411 16.635 39.4887 16.6056 39.4318 16.5879C39.375 16.5703 39.315 16.5648 39.2559 16.5719H36.9332C36.6239 16.5719 36.4598 16.7297 36.4598 16.9822C36.4598 17.2347 36.6239 17.3736 36.9395 17.3799H38.0883Z" fill="white"/>
<path d="M36.3335 27.1127C36.6203 26.873 36.9798 26.7375 37.3535 26.7283C37.7272 26.7191 38.093 26.8368 38.3912 27.0622C38.6934 27.2935 38.9189 27.6106 39.0382 27.972C39.1576 28.3335 39.1653 28.7224 39.0603 29.0883C38.9399 29.6609 38.6572 30.1868 38.246 30.6031C37.861 30.9818 37.4822 31.3669 37.0656 31.7077C36.975 31.8121 36.863 31.8957 36.7373 31.953C36.6115 32.0104 36.4748 32.0401 36.3366 32.0401C36.1984 32.0401 36.0619 32.0104 35.9361 31.953C35.8103 31.8957 35.6984 31.8121 35.6077 31.7077C35.1142 31.3036 34.6539 30.8603 34.2316 30.3822C33.9696 30.0823 33.7772 29.7281 33.6681 29.3451C33.559 28.9621 33.5359 28.5597 33.6005 28.1667C33.6503 27.8836 33.7704 27.6175 33.9498 27.3929C34.1292 27.1682 34.3622 26.9922 34.6274 26.881C34.8925 26.7698 35.1812 26.727 35.4672 26.7564C35.7532 26.7859 36.0271 26.8867 36.264 27.0496L36.3335 27.1127Z" fill="white"/>
<path d="M18.3385 15.499C18.6197 15.2647 18.9708 15.1307 19.3365 15.1182C19.7022 15.1056 20.0617 15.2151 20.3583 15.4296C20.6579 15.6339 20.8888 15.9241 21.0206 16.2621C21.1524 16.6 21.179 16.9698 21.0969 17.3231C20.9889 17.9486 20.6914 18.5258 20.2447 18.9768C19.8786 19.3429 19.5062 19.7153 19.1086 20.0498C19.0144 20.1571 18.8984 20.2431 18.7683 20.302C18.6383 20.3609 18.497 20.3914 18.3543 20.3914C18.2115 20.3914 18.0704 20.3609 17.9404 20.302C17.8103 20.2431 17.6943 20.1571 17.6001 20.0498C16.8694 19.5269 16.2618 18.8504 15.8201 18.0679C15.5756 17.5691 15.496 17.0054 15.5928 16.4584C15.659 16.176 15.7954 15.9149 15.9893 15.6992C16.1832 15.4835 16.4284 15.3203 16.7022 15.2246C16.976 15.1289 17.2695 15.1039 17.5556 15.1519C17.8416 15.1999 18.1109 15.3192 18.3385 15.499Z" fill="white"/>
<path d="M18.3385 29.0126C18.5681 28.91 18.7672 28.7496 18.9165 28.5472C19.0658 28.3448 19.1603 28.1072 19.1907 27.8576C19.3169 27.3526 19.5314 27.1696 19.8596 27.2264C20.0733 27.2696 20.2648 27.3871 20.4 27.5582C20.5352 27.7292 20.6055 27.9426 20.5982 28.1605C20.5982 28.4004 20.5287 28.6403 20.4908 28.899C20.6738 28.899 20.8506 28.9369 21.021 28.9685C21.1216 28.9852 21.2179 29.0218 21.3043 29.0761C21.3906 29.1304 21.4653 29.2012 21.524 29.2846C21.5827 29.368 21.6243 29.4622 21.6464 29.5618C21.6684 29.6614 21.6703 29.7644 21.6522 29.8647C21.5512 30.4328 21.4376 31.0009 21.324 31.5689C21.3005 31.749 21.2103 31.9138 21.0713 32.0306C20.9322 32.1475 20.7544 32.208 20.5729 32.2001C20.0545 32.2202 19.5353 32.1991 19.0202 32.137C18.389 32.0423 18.3575 31.9666 18.389 31.3354C18.389 30.8557 18.4268 30.3697 18.4268 29.89C18.4016 29.6375 18.3385 29.3535 18.3385 29.0126Z" fill="white"/>
<path d="M30.0786 29.7574C30.0631 29.8866 30.0268 30.0123 29.9712 30.1299C29.1885 31.2218 28.3932 32.3074 27.5853 33.4183C27.5222 33.3489 27.4654 33.2984 27.4212 33.2416C26.668 32.2654 25.9191 31.2807 25.1743 30.2877C25.084 30.1267 25.0301 29.9478 25.0165 29.7638C25.81 30.1306 26.6739 30.3201 27.5481 30.319C28.4224 30.3179 29.286 30.1263 30.0786 29.7574Z" fill="white"/>
<path d="M17.7073 30.5527C17.7073 30.8557 17.7073 31.1839 17.7073 31.4679C17.7183 31.5693 17.7064 31.6717 17.6725 31.7679C17.6386 31.864 17.5837 31.9513 17.5116 32.0234C17.4396 32.0954 17.3523 32.1504 17.2561 32.1843C17.16 32.2181 17.0576 32.23 16.9563 32.2191C16.2493 32.2191 16.0284 32.0107 16.0221 31.2912C16.0221 30.761 16.0221 30.2308 16.0221 29.7006C15.998 29.5478 16.0275 29.3913 16.1058 29.2578C16.1841 29.1243 16.3061 29.022 16.4513 28.9685C16.612 28.8913 16.791 28.8605 16.9683 28.8795C17.1456 28.8984 17.3141 28.9664 17.4549 29.0757C17.5911 29.2111 17.6758 29.3896 17.6947 29.5807C17.7136 29.9044 17.7136 30.229 17.6947 30.5527H17.7073Z" fill="white"/>
<path d="M21.8163 22.7892C21.7477 23.9435 21.8282 25.1018 22.0561 26.2354C21.6322 26.2358 21.2235 26.0783 20.9096 25.7935C20.5957 25.5087 20.3991 25.1172 20.3582 24.6953C20.3074 24.2507 20.4309 23.8037 20.7028 23.4482C20.9747 23.0928 21.3739 22.8565 21.8163 22.7892Z" fill="white"/>
<path d="M33.1145 26.2354C33.344 25.102 33.4268 23.9437 33.3607 22.7892C33.7918 22.8562 34.1816 23.083 34.453 23.4245C34.7243 23.766 34.8573 24.1972 34.8251 24.6322C34.7949 25.066 34.6016 25.4722 34.2844 25.7695C33.9672 26.0669 33.5493 26.2333 33.1145 26.2354Z" fill="white"/>
</svg>
