<svg width="56" height="56" viewBox="0 0 56 56" fill="none" xmlns="http://www.w3.org/2000/svg">
<rect width="56" height="56" rx="16" fill="#00C9BD"/>
<path d="M15 29.3238V27.6152C15.0294 27.4251 15.0515 27.2326 15.0907 27.0449C15.102 26.8758 15.1807 26.7173 15.3107 26.6024C15.4407 26.4874 15.6118 26.4249 15.7887 26.4276C16.0336 26.3995 16.2957 26.3901 16.5431 26.3431C17.2051 26.2343 17.8044 25.9017 18.2322 25.4056C18.6601 24.9095 18.8881 24.2828 18.8749 23.6394C18.8738 23.2647 18.7926 22.8941 18.6363 22.5506C18.48 22.2071 18.252 21.8979 17.9662 21.6421C17.8892 21.5802 17.8263 21.5039 17.7814 21.4178C17.7365 21.3317 17.7105 21.2376 17.705 21.1415C17.6995 21.0454 17.7146 20.9492 17.7494 20.8589C17.7842 20.7686 17.838 20.6861 17.9074 20.6165C18.5067 19.9092 19.1852 19.267 19.9306 18.7014C20.0716 18.5809 20.2556 18.5171 20.4444 18.5232C20.6332 18.5293 20.8124 18.6049 20.9446 18.7342L21.2067 18.9689C21.7475 19.4073 22.4367 19.6418 23.145 19.6284C23.8533 19.615 24.5322 19.3547 25.0546 18.8962C25.3327 18.645 25.5551 18.3425 25.7083 18.007C25.8615 17.6714 25.9424 17.3097 25.9461 16.9435C25.9608 16.3262 26.2253 16.0774 26.8622 16.0493C26.9611 16.0386 27.0593 16.0221 27.1561 16H28.9344C29.0838 16.0188 29.2307 16.0446 29.3801 16.0587C29.4891 16.0551 29.5977 16.0736 29.6988 16.1128C29.7999 16.152 29.8914 16.2112 29.9671 16.2864C30.0428 16.3616 30.1012 16.4513 30.1385 16.5495C30.1758 16.6477 30.1911 16.7524 30.1835 16.8566C30.1835 16.9787 30.1835 17.0913 30.1835 17.2228C30.241 17.884 30.549 18.5023 31.0493 18.961C31.5497 19.4197 32.2079 19.6871 32.8998 19.7129C33.3156 19.7221 33.7289 19.6501 34.1147 19.5012C34.5004 19.3523 34.8504 19.1297 35.1434 18.8469C35.2024 18.7767 35.2753 18.7183 35.3578 18.6751C35.4403 18.632 35.5309 18.6048 35.6244 18.5952C35.718 18.5856 35.8125 18.5938 35.9027 18.6192C35.9929 18.6447 36.077 18.687 36.1501 18.7436C36.9287 19.3355 37.6287 20.0165 38.2345 20.7714C38.333 20.8959 38.3835 21.0491 38.3777 21.2052C38.3719 21.3612 38.3101 21.5106 38.2027 21.628C38.1218 21.7243 38.0312 21.8111 37.9455 21.9003C37.6841 22.1791 37.4848 22.5062 37.36 22.8614C37.2351 23.2166 37.1873 23.5925 37.2194 23.9661C37.2515 24.3396 37.3628 24.703 37.5467 25.0338C37.7305 25.3647 37.9829 25.6561 38.2884 25.8902C38.8058 26.263 39.4296 26.4759 40.0764 26.5004C40.6937 26.5426 40.9459 26.8078 40.9729 27.404C40.9729 27.5002 41.0023 27.5988 40.9999 27.695C40.9803 28.4578 40.9753 29.2205 40.9239 29.9833C40.9067 30.1474 40.8255 30.2992 40.6965 30.4084C40.5675 30.5176 40.4003 30.5762 40.2283 30.5724C40.0593 30.5724 39.8902 30.5865 39.7212 30.5982C38.3986 30.6733 37.2033 31.8609 37.1494 33.1329C37.1233 33.5441 37.1911 33.9557 37.3481 34.3391C37.505 34.7226 37.7474 35.0686 38.0582 35.3532C38.1355 35.4147 38.1987 35.4908 38.2441 35.5768C38.2895 35.6627 38.3159 35.7566 38.3219 35.8528C38.3279 35.9489 38.3132 36.0452 38.2788 36.1357C38.2444 36.2261 38.191 36.3089 38.1219 36.3788C37.5278 37.0901 36.8469 37.7307 36.0938 38.2869C36.0131 38.3484 35.9204 38.3939 35.8212 38.4209C35.722 38.4479 35.6181 38.4558 35.5157 38.4441C35.2634 38.3628 35.0338 38.2271 34.8446 38.0475C34.5497 37.8022 34.2061 37.6164 33.8344 37.5016C33.4628 37.3867 33.0707 37.345 32.6818 37.3789C32.2928 37.4129 31.9151 37.5219 31.5712 37.6993C31.2273 37.8767 30.9244 38.1189 30.6807 38.4113C30.2969 38.8806 30.0852 39.458 30.0782 40.0542C30.0659 40.6714 29.799 40.9202 29.1621 40.9507C29.0632 40.9614 28.9651 40.9779 28.8682 41H27.1414C26.9161 40.9718 26.6883 40.9484 26.4654 40.9108C26.3048 40.8888 26.1568 40.815 26.0459 40.7014C25.935 40.5879 25.8678 40.4416 25.8555 40.2865C25.8359 40.1246 25.8384 39.9626 25.831 39.7983C25.7775 39.1332 25.4707 38.51 24.9689 38.0474C24.4672 37.5848 23.8056 37.3151 23.1098 37.2894C22.6943 37.2791 22.281 37.3507 21.8955 37.4997C21.51 37.6486 21.1605 37.8718 20.8686 38.1555C20.8054 38.2271 20.7279 38.286 20.6407 38.3285C20.5534 38.3711 20.4581 38.3965 20.3605 38.4033C20.2628 38.4101 20.1647 38.3981 20.0719 38.368C19.9792 38.3379 19.8936 38.2904 19.8203 38.2282C19.0756 37.65 18.4011 36.9934 17.8094 36.2708C17.7075 36.1593 17.6464 36.019 17.6354 35.8711C17.6243 35.7233 17.6639 35.576 17.7482 35.4517C17.8384 35.334 17.9383 35.2233 18.047 35.1208C18.313 34.8412 18.5163 34.5122 18.6441 34.1542C18.772 33.7962 18.8217 33.4169 18.7903 33.0397C18.7588 32.6625 18.6468 32.2956 18.4613 31.9616C18.2757 31.6276 18.0205 31.3337 17.7114 31.0981C17.197 30.7215 16.5707 30.5119 15.9234 30.4996C15.3503 30.4738 15.0637 30.1804 15.0368 29.6383C15.0307 29.5329 15.0184 29.4279 15 29.3238ZM34.4209 32.2082C35.3517 30.7324 35.6994 28.9857 35.401 27.2852C35.1026 25.5847 34.1779 24.043 32.7945 22.94C31.3493 21.8046 29.5149 21.2249 27.6483 21.3138C25.7817 21.4027 24.0164 22.1539 22.6959 23.4211C21.3359 24.734 20.5562 26.4986 20.5193 28.3481C20.4823 30.1975 21.1909 31.9895 22.4975 33.3512C25.1036 36.1206 29.314 36.3107 32.023 34.5576C32.0037 34.531 31.9824 34.5059 31.9593 34.4824C30.9257 33.4858 29.888 32.4914 28.8462 31.4994C28.8055 31.4726 28.7595 31.4541 28.7111 31.4448C28.6627 31.4355 28.6128 31.4357 28.5645 31.4455C28.1679 31.5552 27.7646 31.6414 27.3569 31.7036C26.6071 31.783 25.8485 31.6775 25.1531 31.3969C24.4578 31.1163 23.8488 30.6701 23.3841 30.1006C22.9144 29.5612 22.5882 28.9207 22.4333 28.234C22.2785 27.5473 22.2996 26.8349 22.495 26.1577C22.5093 26.059 22.5593 25.9683 22.6363 25.9014C22.7133 25.8345 22.8124 25.7956 22.9163 25.7916C23.105 25.8066 23.2832 25.8808 23.4233 26.0028C24.092 26.613 24.7411 27.2444 25.3828 27.8804C25.4417 27.9478 25.5177 27.9996 25.6035 28.0308C25.6892 28.062 25.7819 28.0717 25.8727 28.0588C26.316 27.9907 26.7569 27.925 27.2002 27.8663C27.277 27.8634 27.3497 27.8327 27.4038 27.7804C27.4578 27.7282 27.4893 27.6582 27.4917 27.5847C27.5505 27.1904 27.6043 26.7961 27.6803 26.4112C27.7085 26.3016 27.7046 26.1867 27.6692 26.0791C27.6338 25.9714 27.5681 25.8752 27.4794 25.801C26.8181 25.1814 26.169 24.55 25.5199 23.9234C25.1893 23.5995 25.3069 23.1559 25.7478 23.055C26.3811 22.8969 27.042 22.8681 27.6876 22.9705C28.353 23.0801 28.9851 23.3285 29.5392 23.6979C30.0934 24.0674 30.5561 24.549 30.8946 25.1087C31.2332 25.6684 31.4393 26.2925 31.4984 26.9369C31.5575 27.5813 31.4682 28.2303 31.2367 28.838C31.2048 28.9018 31.1968 28.9743 31.2142 29.0432C31.2317 29.1121 31.2733 29.173 31.3322 29.2158C32.2711 30.1077 33.206 31.0042 34.1368 31.9055C34.2373 32.0012 34.3321 32.1023 34.4209 32.2082Z" fill="white"/>
</svg>
