<svg width="56" height="56" viewBox="0 0 56 56" fill="none" xmlns="http://www.w3.org/2000/svg">
<rect width="56" height="56" rx="16" fill="#FB1818"/>
<path d="M38.5625 29.73C37.096 29.73 35.6712 29.73 34.2464 29.73C33.9877 29.7304 33.7298 29.7599 33.4774 29.8177C32.6041 30.0386 32.1987 30.7042 32.0258 31.5271C31.8215 32.4673 31.8337 33.4426 32.0616 34.3772C32.3378 35.4845 33.0333 36.0392 34.1481 36.0412C35.4983 36.0412 36.8516 36.0412 38.2018 36.0412H38.5238C38.5346 36.1154 38.5416 36.1901 38.5446 36.2651C38.5446 37.1001 38.5446 37.9382 38.5446 38.7732C38.543 39.3628 38.3118 39.9278 37.9014 40.345C37.4909 40.7621 36.9347 40.9976 36.3538 41C29.9672 41 23.5795 41 17.1908 41C16.61 40.9976 16.0537 40.7621 15.6432 40.345C15.2328 39.9278 15.0016 39.3628 15 38.7732C15 34.8461 15 30.913 15 26.9737C15.0008 26.3842 15.2319 25.8191 15.6426 25.4022C16.0533 24.9853 16.61 24.7508 17.1908 24.75H36.3538C36.9344 24.7516 37.4907 24.9864 37.9012 25.4031C38.3117 25.8198 38.543 26.3845 38.5446 26.9737C38.5625 27.8965 38.5625 28.7951 38.5625 29.73Z" fill="white"/>
<path d="M19.0625 23.9293L20.9863 22.3638C22.8663 20.8345 24.7462 19.3061 26.6262 17.7786C26.7514 17.6607 26.9026 17.5694 27.0695 17.511C27.2364 17.4527 27.415 17.4286 27.5929 17.4405C27.7708 17.4523 27.9438 17.4999 28.0999 17.5799C28.2561 17.6599 28.3917 17.7703 28.4974 17.9037C28.6675 18.128 28.7687 18.3911 28.7902 18.6647C28.8199 19.2079 28.8199 19.7522 28.7902 20.2955C28.7838 20.3442 28.7661 20.391 28.7383 20.4328C28.7105 20.4746 28.6732 20.5102 28.6292 20.5374C26.2299 21.6572 23.8287 22.7706 21.4256 23.8777C21.363 23.9117 21.2929 23.9322 21.2206 23.9375C20.5442 23.9321 19.8473 23.9293 19.0625 23.9293Z" fill="white"/>
<path d="M36.5168 35.3113H34.2359C33.4548 35.3113 33.1472 35.0797 32.9893 34.3115C32.8369 33.6068 32.8369 32.8777 32.9893 32.173C33.1363 31.5055 33.4656 31.2522 34.1488 31.2522H38.912C39.0812 31.242 39.2507 31.2677 39.4093 31.3276C39.568 31.3875 39.7122 31.4803 39.8324 31.5999C39.9527 31.7196 40.0464 31.8633 40.1073 32.0216C40.1682 32.18 40.1949 32.3495 40.1858 32.519C40.1858 33.0447 40.1858 33.5678 40.1858 34.0936C40.1872 34.2546 40.1565 34.4143 40.0954 34.5632C40.0342 34.7122 39.944 34.8473 39.8298 34.9608C39.7157 35.0743 39.58 35.1638 39.4308 35.224C39.2816 35.2841 39.1218 35.3138 38.9609 35.3113C38.1553 35.314 37.336 35.3113 36.5168 35.3113ZM35.3437 31.6581C34.9167 31.658 34.5065 31.8253 34.2012 32.1243C33.896 32.4232 33.7199 32.8299 33.7106 33.2572C33.707 33.6893 33.8744 34.1053 34.1764 34.4142C34.4783 34.723 34.8902 34.8996 35.3219 34.9054C35.749 34.9055 36.1591 34.7381 36.4643 34.4392C36.7696 34.1403 36.9458 33.7336 36.955 33.3063C36.9586 32.8742 36.7911 32.4582 36.4892 32.1493C36.1872 31.8405 35.7754 31.6638 35.3437 31.6581Z" fill="white"/>
<path d="M37.0807 23.125L35.3125 21.8392C36.677 21.0688 37.2752 19.9549 37.0807 18.417C36.7595 18.417 36.4501 18.4314 36.1436 18.417C36.0796 18.4136 36.0171 18.397 35.9602 18.3683C35.9033 18.3397 35.8533 18.2997 35.8135 18.2509C35.794 18.1913 35.7886 18.128 35.7978 18.0661C35.807 18.0041 35.8304 17.9449 35.8665 17.893C36.5148 17.0339 37.175 16.1604 37.8381 15.3013C37.8945 15.2106 37.9738 15.1353 38.0685 15.0826C38.1631 15.0299 38.27 15.0015 38.3791 15.0001C38.4882 14.9986 38.5959 15.0242 38.692 15.0744C38.7881 15.1246 38.8695 15.1978 38.9285 15.287C39.6092 16.1461 40.2752 17.0339 40.9354 17.9188C40.9681 17.9678 40.9891 18.0234 40.9967 18.0814C41.0044 18.1394 40.9985 18.1983 40.9795 18.2538C40.9454 18.3 40.9014 18.3385 40.8505 18.3667C40.7997 18.3949 40.7432 18.412 40.6848 18.417C40.3901 18.4399 40.0689 18.417 39.7418 18.417C39.733 19.3543 39.4854 20.2749 39.021 21.0965C38.5566 21.918 37.89 22.615 37.0807 23.125Z" fill="white"/>
<path d="M32.875 23.9375H23.125C23.252 23.8647 23.3185 23.8222 23.3881 23.7858C25.8619 22.5476 28.3387 21.3247 30.8034 20.0684C30.9872 19.9595 31.1934 19.8947 31.4062 19.8788C31.619 19.863 31.8327 19.8966 32.0304 19.977C32.2282 20.0574 32.4048 20.1825 32.5465 20.3426C32.6883 20.5026 32.7914 20.6933 32.8478 20.8999C32.8615 20.9454 32.8706 20.9921 32.875 21.0394V23.9375Z" fill="white"/>
<path d="M34.5002 32.8532C34.5037 32.7458 34.5284 32.6402 34.5728 32.5424C34.6173 32.4445 34.6806 32.3564 34.7592 32.283C34.8379 32.2096 34.9303 32.1524 35.031 32.1146C35.1318 32.0769 35.239 32.0593 35.3466 32.063C35.5591 32.0735 35.7591 32.1662 35.9043 32.3213C36.0496 32.4764 36.1287 32.6818 36.1249 32.8941C36.1217 33.0017 36.0972 33.1076 36.0529 33.2058C36.0086 33.3039 35.9453 33.3924 35.8667 33.466C35.788 33.5397 35.6956 33.5972 35.5946 33.6351C35.4937 33.673 35.3862 33.6907 35.2784 33.687C35.0654 33.6764 34.865 33.5834 34.7197 33.4277C34.5744 33.272 34.4957 33.0659 34.5002 32.8532Z" fill="white"/>
</svg>
