<svg width="56" height="56" viewBox="0 0 56 56" fill="none" xmlns="http://www.w3.org/2000/svg">
<rect width="56" height="56" rx="16" fill="#16A34A"/>
<path d="M29.582 15.2444C30.1171 15.3351 30.6461 15.4584 31.166 15.6136C33.9278 16.5958 35.6189 18.5342 36.062 21.44C36.3385 23.2787 35.8907 25.1531 34.8129 26.6682C33.735 28.1834 32.1113 29.2212 30.2835 29.563C29.3472 29.7396 28.3853 29.7294 27.4529 29.5329C26.5206 29.3365 25.6363 28.9576 24.8509 28.4182C24.0654 27.8788 23.3944 27.1895 22.8763 26.3899C22.3582 25.5902 22.0033 24.696 21.832 23.7588C21.6594 22.8157 21.6765 21.8478 21.8823 20.9114C22.0881 19.9751 22.4784 19.0891 23.0305 18.3054C23.5826 17.5216 24.2853 16.8557 25.0977 16.3466C25.91 15.8375 26.8157 15.4955 27.7618 15.3404L28.275 15.2444H29.582ZM29.7039 19.269C29.6965 19.2447 29.6903 19.22 29.6854 19.1951C29.6712 19.0061 29.5881 18.8288 29.452 18.6968C29.316 18.5649 29.1363 18.4873 28.947 18.4788C28.7565 18.4836 28.5742 18.5568 28.4332 18.6849C28.2922 18.813 28.2019 18.9875 28.179 19.1767C28.1615 19.2207 28.1345 19.2603 28.1001 19.2929C28.0656 19.3254 28.0245 19.35 27.9796 19.3649C27.5636 19.4917 27.2008 19.7514 26.9467 20.1042C26.6926 20.457 26.5612 20.8835 26.5728 21.3182C26.5798 21.7521 26.7338 22.1709 27.0093 22.5061C27.2849 22.8414 27.666 23.0734 28.0903 23.1643C28.4795 23.2155 28.8721 23.2353 29.2645 23.2234C29.6041 23.2234 29.7999 23.408 29.7962 23.696C29.7925 23.984 29.5931 24.1538 29.2571 24.1575C28.9211 24.1612 28.4854 24.1575 28.1014 24.1575C27.9186 24.1615 27.7437 24.2332 27.6107 24.3587C27.4777 24.4842 27.396 24.6546 27.3815 24.8369C27.3653 25.0145 27.4139 25.1921 27.5184 25.3366C27.6229 25.4812 27.7763 25.583 27.9501 25.6233C28.0202 25.6233 28.094 25.6529 28.1605 25.664C28.2823 26.2067 28.5593 26.4763 28.9618 26.4615C29.3642 26.4467 29.6338 26.155 29.7002 25.627L29.8848 25.568C30.3066 25.445 30.6747 25.1836 30.9299 24.8259C31.185 24.4683 31.3124 24.0351 31.2915 23.5963C31.2768 23.17 31.1197 22.7609 30.8453 22.4343C30.5709 22.1078 30.1951 21.8825 29.7777 21.7945C29.3962 21.7414 29.0107 21.7217 28.6257 21.7354C28.2565 21.7354 28.0682 21.5545 28.0719 21.2591C28.0756 20.9637 28.275 20.8012 28.6368 20.7975C28.9986 20.7939 29.3753 20.7975 29.7666 20.7975C29.9403 20.7934 30.1069 20.7282 30.2372 20.6135C30.3675 20.4987 30.4532 20.3416 30.4792 20.1699C30.5057 20.0027 30.4739 19.8315 30.3892 19.685C30.3045 19.5385 30.172 19.4255 30.014 19.3649C29.9254 19.328 29.8221 19.2985 29.7039 19.269Z" fill="white"/>
<path d="M40.9989 26.7128C40.6555 27.3036 40.3305 27.3996 39.7213 27.082L38.355 26.3989C38.2571 26.3602 38.1683 26.3016 38.0941 26.227C38.0199 26.1523 37.9619 26.0631 37.9238 25.965C37.8856 25.8669 37.8682 25.762 37.8725 25.6568C37.8768 25.5517 37.9027 25.4485 37.9487 25.3538C37.9955 25.2601 38.0611 25.1771 38.1414 25.1097C38.2216 25.0424 38.3149 24.9923 38.4153 24.9626C38.5157 24.9328 38.6212 24.924 38.7251 24.9367C38.8291 24.9493 38.9294 24.9832 39.0197 25.0363C39.4776 25.2578 39.9281 25.4942 40.386 25.712C40.5217 25.7648 40.6457 25.8438 40.7509 25.9445C40.8561 26.0453 40.9404 26.1658 40.9989 26.2992V26.7128Z" fill="white"/>
<path d="M40.9989 18.612C40.9416 18.7463 40.8583 18.8681 40.7537 18.9701C40.6491 19.0721 40.5254 19.1525 40.3896 19.2065C39.9059 19.4317 39.4369 19.6865 38.9531 19.9118C38.7886 19.9889 38.6019 20.0049 38.4266 19.9568C38.2514 19.9088 38.099 19.7999 37.9968 19.6496C37.8968 19.503 37.8529 19.3252 37.8733 19.1489C37.8936 18.9726 37.9768 18.8095 38.1076 18.6895C38.1883 18.6176 38.2791 18.5579 38.3771 18.5122L39.6954 17.8476C40.3379 17.53 40.6444 17.6149 40.9989 18.2168V18.612Z" fill="white"/>
<path d="M20.7981 39.3807V33.8201C21.0972 33.8201 21.3925 33.8201 21.6916 33.8201C21.732 33.8304 21.774 33.8321 21.8151 33.8252C21.8562 33.8183 21.8954 33.8028 21.9301 33.7799C21.9649 33.757 21.9944 33.727 22.0169 33.692C22.0394 33.6569 22.0544 33.6176 22.0608 33.5764C22.2617 32.935 22.6648 32.3757 23.2099 31.9824C23.755 31.5891 24.4128 31.3827 25.0849 31.3943C26.7168 31.3943 28.3525 31.3943 29.9845 31.3943C30.201 31.3889 30.4163 31.4266 30.618 31.5053C30.8198 31.584 31.0039 31.702 31.1595 31.8525C31.3152 32.003 31.4394 32.1831 31.5248 32.382C31.6102 32.581 31.6551 32.795 31.657 33.0115C31.6561 33.2277 31.6124 33.4416 31.5284 33.6409C31.4444 33.8402 31.3219 34.0208 31.1678 34.1725C31.0137 34.3242 30.8311 34.4439 30.6306 34.5248C30.43 34.6056 30.2154 34.6459 29.9992 34.6435C29.2201 34.6435 28.4411 34.6435 27.6621 34.6435C27.5582 34.6315 27.453 34.6416 27.3533 34.6733C27.2537 34.705 27.1619 34.7575 27.0841 34.8273C27.0062 34.8971 26.9441 34.9827 26.9018 35.0783C26.8595 35.1739 26.838 35.2774 26.8387 35.382C26.8384 35.4841 26.8592 35.5852 26.9 35.6789C26.9407 35.7726 27.0004 35.8568 27.0754 35.9262C27.1504 35.9956 27.2388 36.0487 27.3354 36.0821C27.4319 36.1156 27.5344 36.1286 27.6362 36.1204C28.5592 36.1204 29.4823 36.1204 30.4017 36.1204C30.7247 36.1149 31.0432 36.0437 31.3377 35.911C31.6323 35.7783 31.8967 35.587 32.1149 35.3487C33.2668 34.1894 34.43 33.0374 35.5783 31.878C35.8461 31.5874 36.1784 31.3639 36.5485 31.2254C36.9185 31.0868 37.3159 31.0372 37.7087 31.0805C38.2808 31.135 38.813 31.3978 39.2041 31.8189C39.3215 31.9459 39.3907 32.1101 39.3994 32.2828C39.4082 32.4556 39.356 32.6259 39.252 32.7641C39.1864 32.8514 39.1135 32.9329 39.0342 33.0078C37.3062 34.7395 35.5672 36.4601 33.8466 38.2028C33.4823 38.5846 33.042 38.8859 32.5543 39.0875C32.0666 39.2891 31.5421 39.3864 31.0146 39.3733C27.7211 39.3733 24.4276 39.3733 21.1341 39.3733L20.7981 39.3807Z" fill="white"/>
<path d="M15.2487 36.6005V33.0559C15.2369 32.9426 15.2503 32.8281 15.2878 32.7205C15.3253 32.613 15.386 32.515 15.4656 32.4336C15.5453 32.3521 15.642 32.2892 15.7487 32.2494C15.8554 32.2095 15.9696 32.1937 16.0831 32.203H18.4462C18.5579 32.1914 18.6707 32.2043 18.7768 32.241C18.8829 32.2778 18.9797 32.3373 19.0603 32.4154C19.1409 32.4936 19.2034 32.5884 19.2433 32.6934C19.2833 32.7983 19.2998 32.9107 19.2917 33.0227C19.2917 35.4103 19.2917 37.7992 19.2917 40.1894C19.3025 40.2997 19.2884 40.411 19.2504 40.5152C19.2123 40.6193 19.1513 40.7135 19.0718 40.7908C18.9924 40.8681 18.8966 40.9266 18.7915 40.9618C18.6863 40.997 18.5746 41.0081 18.4646 40.9943H16.0535C15.946 41.0044 15.8375 40.9908 15.7358 40.9544C15.634 40.918 15.5415 40.8597 15.4647 40.7836C15.388 40.7076 15.3288 40.6156 15.2915 40.5142C15.2541 40.4128 15.2395 40.3044 15.2487 40.1968V36.6005Z" fill="white"/>
<path d="M19.9862 19.2396C19.9878 19.3637 19.9581 19.4862 19.8999 19.5959C19.8416 19.7055 19.7566 19.7986 19.6528 19.8667C19.5491 19.9348 19.4298 19.9756 19.306 19.9854C19.1823 19.9952 19.0581 19.9737 18.9449 19.9228C18.3688 19.6606 17.8039 19.3688 17.2426 19.0734C17.0757 18.9818 16.9506 18.8292 16.8935 18.6476C16.8364 18.4659 16.8516 18.2692 16.9361 18.0986C17.0167 17.9206 17.1645 17.7818 17.3473 17.7126C17.53 17.6433 17.7326 17.6494 17.9109 17.7293C18.4833 17.9952 19.0483 18.2869 19.6096 18.5823C19.7302 18.6425 19.8303 18.737 19.8973 18.854C19.9644 18.9709 19.9953 19.1051 19.9862 19.2396Z" fill="white"/>
<path d="M19.1739 24.944C19.3437 24.9335 19.5124 24.9786 19.6543 25.0726C19.7962 25.1665 19.9037 25.3042 19.9604 25.4647C20.0119 25.6216 20.0094 25.7913 19.9532 25.9466C19.8969 26.1019 19.7902 26.2338 19.6501 26.3214C19.0704 26.6316 18.4833 26.9307 17.8851 27.2039C17.7098 27.2759 17.5134 27.2777 17.3367 27.209C17.16 27.1403 17.0166 27.0062 16.9361 26.8347C16.8516 26.664 16.8364 26.4673 16.8935 26.2856C16.9506 26.104 17.0757 25.9514 17.2426 25.8598C17.8039 25.5607 18.3762 25.2874 18.9449 25.0068C19.0187 24.9775 19.0955 24.9565 19.1739 24.944Z" fill="white"/>
</svg>
