<svg width="56" height="56" viewBox="0 0 56 56" fill="none" xmlns="http://www.w3.org/2000/svg">
<rect width="56" height="56" rx="16" fill="#16A34A"/>
<path d="M27.9321 31.3862C32.507 31.3862 36.4133 32.1115 36.4133 35.0138C36.4133 37.915 32.5321 38.6667 27.9321 38.6667C23.3572 38.6667 19.4508 37.9414 19.4508 35.0403C19.4508 32.1379 23.3321 31.3862 27.9321 31.3862ZM35.2468 29.6385C36.9958 29.6061 38.8762 29.8463 39.571 30.0168C41.043 30.3062 42.0113 30.897 42.4124 31.7556C42.7515 32.4604 42.7515 33.2782 42.4124 33.9819C41.7988 35.3136 39.8205 35.7411 39.0517 35.8515C38.8929 35.8755 38.7651 35.7375 38.7819 35.5777C39.1746 31.8877 36.0503 30.1381 35.242 29.7358C35.2074 29.7178 35.2002 29.6902 35.2038 29.6734C35.2062 29.6614 35.2205 29.6421 35.2468 29.6385ZM20.7542 29.639C20.7804 29.6426 20.7936 29.6618 20.796 29.6726C20.7995 29.6907 20.7924 29.7171 20.7589 29.7363C19.9495 30.1386 16.8251 31.8881 17.2179 35.577C17.2346 35.7379 17.1081 35.8748 16.9493 35.852C16.1805 35.7415 14.2022 35.314 13.5886 33.9824C13.2483 33.2775 13.2483 32.4609 13.5886 31.7561C13.9897 30.8975 14.9567 30.3067 16.4288 30.0161C17.1248 29.8468 19.004 29.6066 20.7542 29.639ZM27.9321 17.3334C31.0469 17.3334 33.5445 19.8431 33.5445 22.9772C33.5445 26.1101 31.0469 28.6222 27.9321 28.6222C24.8173 28.6222 22.3197 26.1101 22.3197 22.9772C22.3197 19.8431 24.8173 17.3334 27.9321 17.3334ZM35.5512 18.2746C38.5598 18.2746 40.9225 21.1217 40.1178 24.293C39.5746 26.4281 37.6083 27.8462 35.4175 27.7886C35.1979 27.7826 34.9818 27.7622 34.7728 27.7261C34.6212 27.6997 34.5448 27.528 34.6308 27.4007C35.4665 26.1639 35.9428 24.6761 35.9428 23.079C35.9428 21.4123 35.4223 19.8584 34.5185 18.5844C34.4899 18.5448 34.4684 18.4835 34.4971 18.4379C34.5209 18.4007 34.5651 18.3814 34.6069 18.3718C34.9113 18.3094 35.2241 18.2746 35.5512 18.2746ZM20.4479 18.2744C20.7751 18.2744 21.0879 18.3093 21.3935 18.3717C21.4341 18.3813 21.4794 18.4017 21.5033 18.4378C21.5308 18.4834 21.5105 18.5446 21.4818 18.5843C20.5781 19.8583 20.0575 21.4122 20.0575 23.0789C20.0575 24.676 20.5339 26.1638 21.3696 27.4006C21.4556 27.5279 21.3792 27.6996 21.2275 27.726C21.0174 27.7632 20.8025 27.7825 20.5829 27.7885C18.3921 27.8461 16.4258 26.4279 15.8826 24.2929C15.0767 21.1216 17.4394 18.2744 20.4479 18.2744Z" fill="white"/>
</svg>
