<svg width="56" height="56" viewBox="0 0 56 56" fill="none" xmlns="http://www.w3.org/2000/svg">
<rect width="56" height="56" rx="16" fill="#4876FF"/>
<path d="M18.0636 28.0105C18.0636 23.8606 18.0636 19.7044 18.0636 15.5546C18.0558 15.204 18.1193 14.8556 18.2502 14.5303C18.3812 14.2051 18.5768 13.9098 18.8254 13.6625C19.0739 13.4152 19.37 13.2209 19.6958 13.0915C20.0217 12.9621 20.3705 12.9003 20.721 12.9098C25.2634 12.9475 29.8038 12.9475 34.342 12.9098C34.6925 12.9003 35.0413 12.9621 35.3671 13.0915C35.693 13.2209 35.9891 13.4152 36.2376 13.6625C36.4861 13.9098 36.6818 14.2051 36.8127 14.5303C36.9437 14.8556 37.0072 15.204 36.9994 15.5546C36.9742 23.8627 36.9742 32.1688 36.9994 40.4727C37.0063 40.823 36.9422 41.1711 36.8109 41.4959C36.6796 41.8207 36.4839 42.1156 36.2356 42.3628C35.9873 42.6099 35.6915 42.8042 35.366 42.9339C35.0406 43.0637 34.6922 43.1261 34.342 43.1176C29.7996 43.0798 25.2592 43.0798 20.721 43.1176C20.368 43.1263 20.017 43.0629 19.6894 42.9313C19.3618 42.7996 19.0645 42.6025 18.8157 42.352C18.5669 42.1014 18.3718 41.8027 18.2425 41.4742C18.1132 41.1456 18.0523 40.7941 18.0636 40.4412C18.0888 36.3102 18.0636 32.1541 18.0636 28.0105ZM36.0044 37.0155V19.081H19.0334V37.0155H36.0044ZM27.5094 16.4929H28.7689C29.1089 16.4929 29.3168 16.3165 29.3231 16.0332C29.3246 15.9649 29.3112 15.8972 29.2841 15.8346C29.2569 15.772 29.2165 15.716 29.1657 15.6706C29.1148 15.6251 29.0547 15.5912 28.9895 15.5711C28.9242 15.5511 28.8554 15.5454 28.7878 15.5546H26.1995C26.1316 15.5461 26.0626 15.5527 25.9975 15.574C25.9324 15.5952 25.8728 15.6305 25.8229 15.6774C25.773 15.7243 25.734 15.7816 25.7088 15.8453C25.6836 15.909 25.6728 15.9774 25.677 16.0458C25.68 16.1107 25.6962 16.1743 25.7249 16.2327C25.7537 16.291 25.7941 16.3428 25.8438 16.3848C25.8934 16.4267 25.9514 16.458 26.0137 16.4766C26.076 16.4952 26.1413 16.5008 26.2058 16.4929H27.5094ZM27.5094 40.5357C27.6794 40.5357 27.8432 40.5357 28.0132 40.5357C28.1341 40.5374 28.2507 40.4914 28.3379 40.4078C28.4251 40.3241 28.4759 40.2094 28.4792 40.0886C28.4846 40.0257 28.4766 39.9624 28.4557 39.9028C28.4348 39.8433 28.4016 39.7888 28.3582 39.743C28.3148 39.6972 28.2621 39.6611 28.2037 39.6371C28.1453 39.6131 28.0826 39.6017 28.0195 39.6037C27.6881 39.5848 27.3559 39.5848 27.0245 39.6037C26.9642 39.6028 26.9043 39.6142 26.8485 39.637C26.7927 39.6599 26.7422 39.6938 26.6998 39.7368C26.6575 39.7797 26.6241 39.8308 26.602 39.887C26.5799 39.9431 26.5694 40.0031 26.5711 40.0634C26.5685 40.1261 26.5788 40.1887 26.6016 40.2472C26.6244 40.3058 26.6591 40.3589 26.7035 40.4033C26.7479 40.4477 26.801 40.4824 26.8596 40.5052C26.9181 40.528 26.9807 40.5384 27.0434 40.5357C27.1946 40.5483 27.3709 40.5357 27.5031 40.5357H27.5094Z" fill="white"/>
<path d="M32.7866 36.0772H22.2638C22.1001 34.3895 22.3331 33.0419 23.8633 32.0532C23.9096 32.007 23.966 31.9722 24.028 31.9515C24.09 31.9308 24.1559 31.9248 24.2206 31.9339C24.2853 31.9431 24.3471 31.9672 24.401 32.0043C24.4548 32.0414 24.4993 32.0905 24.5309 32.1477C24.9121 32.567 25.3773 32.9014 25.8962 33.129C26.4152 33.3567 26.9764 33.4725 27.5431 33.4689C28.1098 33.4653 28.6695 33.3425 29.1855 33.1083C29.7016 32.8742 30.1626 32.534 30.5385 32.1099C30.7274 31.8958 30.8658 31.8643 31.1051 32.0154C31.5781 32.276 31.979 32.6501 32.2714 33.1041C32.5638 33.5582 32.7387 34.0778 32.7803 34.6162C32.8244 35.0885 32.7866 35.5734 32.7866 36.0772Z" fill="white"/>
<path d="M30.6518 29.3832C30.6568 29.7981 30.5788 30.2098 30.4224 30.5941C30.266 30.9784 30.0342 31.3275 29.7409 31.6209C29.4475 31.9143 29.0983 32.1461 28.714 32.3025C28.3297 32.4589 27.918 32.5369 27.5032 32.5318C27.0883 32.5369 26.6766 32.4589 26.2923 32.3025C25.908 32.1461 25.5588 31.9143 25.2655 31.6209C24.9721 31.3275 24.7404 30.9784 24.5839 30.5941C24.4275 30.2098 24.3495 29.7981 24.3545 29.3832C24.3545 28.5482 24.6864 27.7473 25.2768 27.1568C25.8673 26.5664 26.6681 26.2346 27.5032 26.2346C28.3382 26.2346 29.1392 26.5664 29.7296 27.1568C30.3201 27.7473 30.6518 28.5482 30.6518 29.3832Z" fill="white"/>
<path d="M27.5221 24.4966H21.8546C21.7316 24.5031 21.6083 24.4904 21.4893 24.4589C21.4372 24.4502 21.3875 24.4306 21.3434 24.4015C21.2993 24.3724 21.2618 24.3344 21.2333 24.2899C21.2048 24.2453 21.1859 24.1954 21.178 24.1431C21.17 24.0909 21.1731 24.0375 21.187 23.9866C21.2582 23.8164 21.3789 23.6716 21.5334 23.571C21.6153 23.5143 21.7601 23.571 21.8735 23.571H33.1141C33.2188 23.5616 33.3242 23.5616 33.429 23.571C33.5397 23.5821 33.642 23.6354 33.7146 23.7197C33.7873 23.8041 33.8247 23.9131 33.8193 24.0243C33.8268 24.1354 33.7919 24.2451 33.7218 24.3316C33.6518 24.418 33.5516 24.4747 33.4414 24.4903C33.3389 24.503 33.2353 24.503 33.1329 24.4903L27.5221 24.4966Z" fill="white"/>
<path d="M27.522 21.9588H21.9426C21.8399 21.9651 21.7368 21.9651 21.6341 21.9588C21.5171 21.9588 21.4051 21.9124 21.3224 21.8297C21.2398 21.747 21.1933 21.6349 21.1933 21.518C21.1845 21.3963 21.2239 21.2761 21.3027 21.1831C21.3816 21.0901 21.4939 21.0317 21.6153 21.0205C21.7097 21.0142 21.8043 21.0142 21.8986 21.0205H33.1391C33.2335 21.0142 33.3283 21.0142 33.4226 21.0205C33.544 21.0317 33.6561 21.0901 33.735 21.1831C33.8139 21.2761 33.8532 21.3963 33.8445 21.518C33.8445 21.6349 33.798 21.747 33.7153 21.8297C33.6327 21.9124 33.5206 21.9588 33.4037 21.9588C33.3009 21.9651 33.1979 21.9651 33.0951 21.9588H27.522Z" fill="white"/>
</svg>
