<svg width="12" height="12" viewBox="0 0 12 12" fill="none" xmlns="http://www.w3.org/2000/svg">
<path d="M11.4415 10.558C11.6856 10.8021 11.6856 11.198 11.4415 11.4422C11.3198 11.5638 11.1598 11.6255 10.9998 11.6255C10.8398 11.6255 10.6798 11.5647 10.5581 11.4422L5.99979 6.8838L1.44146 11.4422C1.31979 11.5638 1.15979 11.6255 0.999791 11.6255C0.839791 11.6255 0.679792 11.5647 0.558125 11.4422C0.313958 11.198 0.313958 10.8021 0.558125 10.558L5.11646 5.99965L0.558125 1.44134C0.313958 1.19718 0.313958 0.801315 0.558125 0.557148C0.802292 0.312982 1.19813 0.312982 1.4423 0.557148L6.00063 5.11551L10.559 0.557148C10.8031 0.312982 11.199 0.312982 11.4431 0.557148C11.6873 0.801315 11.6873 1.19718 11.4431 1.44134L6.88479 5.99965L11.4415 10.558Z" fill="#FF3030"/>
</svg>
