<svg width="55" height="74" viewBox="0 0 55 74" fill="none" xmlns="http://www.w3.org/2000/svg">
<path fill-rule="evenodd" clip-rule="evenodd" d="M12.586 55.2095C13.2301 55.2095 13.8678 55.0825 14.4629 54.8357C15.0579 54.5889 15.5986 54.2271 16.054 53.7711C16.5094 53.3151 16.8706 52.7737 17.1171 52.1779C17.3635 51.5821 17.4903 50.9435 17.4903 50.2986C17.4903 42.6402 23.6911 36.432 31.3398 36.432C33.6012 36.4306 35.8286 36.9836 37.8274 38.0427C39.8262 39.1017 41.5356 40.6346 42.8065 42.5075C44.0773 44.3804 44.8708 46.5363 45.1178 48.787C45.3648 51.0377 45.0578 53.3147 44.2234 55.4192C43.3891 57.5237 42.0529 59.3917 40.3314 60.8601C38.61 62.3284 36.5557 63.3524 34.348 63.8428C32.1403 64.3331 29.8462 64.2748 27.6662 63.6729C25.4861 63.0711 23.4864 61.944 21.8416 60.3901C20.8899 59.5257 19.6374 59.0696 18.3534 59.1199C17.0694 59.1703 15.8564 59.723 14.9751 60.6593C14.0938 61.5956 13.6146 62.8407 13.6404 64.127C13.6662 65.4133 14.195 66.6381 15.1132 67.5382C18.4733 70.7154 22.6896 72.8372 27.2409 73.6414C31.7923 74.4455 36.4792 73.8968 40.7225 72.063C44.9658 70.2292 48.5794 67.1908 51.1168 63.3231C53.6543 59.4555 55.0043 54.9282 55 50.3007V8.21738C55 6.91493 54.4833 5.66583 53.5635 4.74487C52.6437 3.8239 51.3962 3.30651 50.0954 3.30651C48.7945 3.30651 47.547 3.8239 46.6272 4.74487C45.7074 5.66583 45.1907 6.91493 45.1907 8.21738V26.9414C45.1907 26.9414 40.4841 18.7794 31.0717 2.45553C30.421 1.3274 29.3494 0.504274 28.0926 0.167242C26.8358 -0.169791 25.4967 0.00687274 24.37 0.658371C23.2433 1.30987 22.4212 2.38284 22.0846 3.64123C21.748 4.89962 21.9244 6.24035 22.5751 7.36849L31.6735 23.1475L7.35645 9.08798C6.2299 8.43671 4.8911 8.26019 3.63456 8.59726C2.37803 8.93433 1.30669 9.75738 0.656234 10.8853C0.00577685 12.0133 -0.17052 13.3538 0.166127 14.6119C0.502775 15.87 1.32479 16.9427 2.45134 17.594L21.6397 28.6864C13.4109 32.3951 7.68173 40.6769 7.68173 50.2986C7.68173 51.601 8.19848 52.8501 9.11828 53.7711C10.0381 54.6921 11.2856 55.2095 12.5864 55.2095" fill="#432EFF"/>
<path fill-rule="evenodd" clip-rule="evenodd" d="M31.3411 38.7656C32.1372 38.7656 32.9155 39.002 33.5774 39.4449C34.2393 39.8877 34.7553 40.5172 35.0599 41.2537C35.3645 41.9901 35.4442 42.8005 35.2889 43.5823C35.1335 44.3641 34.7501 45.0822 34.1872 45.6458C33.6242 46.2095 32.9069 46.5933 32.1261 46.7487C31.3453 46.9042 30.5359 46.8243 29.8004 46.5192C29.0649 46.2141 28.4363 45.6975 27.9941 45.0346C27.5518 44.3718 27.3158 43.5926 27.3159 42.7954C27.3159 42.2662 27.42 41.7422 27.6223 41.2532C27.8246 40.7643 28.1211 40.32 28.4949 39.9458C28.8687 39.5716 29.3124 39.2748 29.8008 39.0723C30.2891 38.8698 30.8125 38.7656 31.3411 38.7656Z" fill="#432EFF"/>
<path fill-rule="evenodd" clip-rule="evenodd" d="M31.3409 49.0957C29.2919 49.0931 27.263 49.5001 25.3732 50.2931C23.4834 51.0861 21.7709 52.2489 20.3359 53.7135C21.7897 58.4155 26.1669 61.8312 31.3409 61.8312C36.515 61.8312 40.8909 58.4155 42.3459 53.7135C40.911 52.2489 39.1984 51.0861 37.3087 50.2931C35.4189 49.5001 33.39 49.0931 31.3409 49.0957Z" fill="#432EFF"/>
</svg>
