<svg width="587" height="597" viewBox="0 0 587 597" fill="none" xmlns="http://www.w3.org/2000/svg">
<path d="M472.253 270.236C441.359 196.568 368.563 144.821 283.676 144.821C281.637 144.821 279.608 144.861 277.585 144.919C249.946 115.748 210.844 97.5518 167.489 97.5518C83.7353 97.5518 15.8408 165.446 15.8408 249.2C15.8408 300.68 41.5 346.162 80.7196 373.575C92.7586 474.985 179.026 553.635 283.676 553.635C305.255 553.635 326.048 550.281 345.576 544.082C368.266 557.608 394.779 565.387 423.112 565.387C506.866 565.387 574.76 497.492 574.76 413.739C574.76 347.185 531.886 290.651 472.253 270.236Z" fill="#E0EBFF"/>
<path d="M432.113 589.299H165.436C155.506 589.299 147.458 581.249 147.458 571.321V54.8944C147.458 44.9644 155.508 36.9163 165.436 36.9163H432.113C442.043 36.9163 450.092 44.9661 450.092 54.8944V571.321C450.093 581.249 442.043 589.299 432.113 589.299Z" fill="#1C1C1C"/>
<path d="M436.007 508.86H160.153C156.65 508.86 153.812 506.022 153.812 502.519V94.1244C153.812 90.622 156.65 87.7839 160.153 87.7839H436.007C439.509 87.7839 442.347 90.622 442.347 94.1244V502.519C442.347 506.022 439.507 508.86 436.007 508.86Z" fill="#F9F9F9"/>
<path d="M417.356 228.491H175.231C171.729 228.491 168.891 225.653 168.891 222.151V113.974C168.891 110.472 171.729 107.634 175.231 107.634H417.356C420.858 107.634 423.696 110.472 423.696 113.974V222.151C423.696 225.651 420.856 228.491 417.356 228.491Z" fill="#E4F3FF"/>
<path d="M416.376 370.177H174.251C170.749 370.177 167.911 367.338 167.911 363.836V255.66C167.911 252.159 170.749 249.319 174.251 249.319H416.376C419.878 249.319 422.716 252.157 422.716 255.66V363.836C422.716 367.338 419.878 370.177 416.376 370.177Z" fill="#E4F3FF"/>
<path d="M418.008 511.864H175.884C172.381 511.864 169.543 509.026 169.543 505.523V397.347C169.543 393.844 172.381 391.006 175.884 391.006H418.008C421.51 391.006 424.349 393.844 424.349 397.347V505.523C424.349 509.026 421.51 511.864 418.008 511.864Z" fill="#E4F3FF"/>
<path d="M258.609 187.811C258.609 187.811 244.956 184.336 234.034 197.492C223.112 210.648 223.609 233.983 219.885 240.933C216.162 247.883 210.949 253.841 210.949 253.841C210.949 253.841 219.388 248.628 222.368 243.911C222.368 243.911 224.106 253.344 218.893 272.458C213.679 291.572 215.417 306.715 236.02 304.48C256.623 302.246 268.787 302.991 268.787 302.991C268.787 302.991 298.078 306.963 311.236 304.729C324.391 302.495 351.698 303.24 341.271 263.025C330.844 222.81 328.86 240.187 323.647 212.634C318.433 185.079 295.597 182.845 286.164 182.845C276.731 182.847 258.609 187.811 258.609 187.811Z" fill="#1C1C1C"/>
<path d="M227.641 315.342L188.358 373.243L127.292 347.55L113.143 369.147C113.143 369.147 180.166 426.117 202.508 423.882C224.849 421.648 237.137 395.21 237.137 395.21L233.042 333.4L227.641 315.342Z" fill="#3F99FF"/>
<path d="M225.407 509.152L233.785 460.002L357.221 456.092L368.949 509.152H225.407Z" fill="#1C1C1C"/>
<path d="M227.641 315.342C227.641 315.342 218.705 355.556 226.524 376.78C234.343 398.004 237.508 410.851 237.508 410.851L233.785 460.002L357.219 456.093L349.4 319.813C349.4 319.813 320.914 299.705 299.132 299.705C277.349 299.705 258.918 300.822 258.918 300.822L227.641 315.342Z" fill="#3F99FF"/>
<path d="M245.515 360.585L267.856 347.18L312.538 386.835C312.538 386.835 346.051 321.486 349.402 319.811C352.752 318.136 361.131 338.802 363.365 367.285C365.599 395.771 351.635 432.075 341.024 442.687C330.411 453.298 301.927 444.92 284.612 426.49C267.298 408.059 245.515 360.585 245.515 360.585Z" fill="#3F99FF"/>
<path d="M239.743 345.938L245.515 360.584L267.856 347.179L259.601 336.505L239.743 345.938Z" fill="#FFCE33"/>
<path d="M242.723 314.164C242.723 314.164 236.268 315.902 236.517 320.122C236.765 324.341 242.226 345.193 242.226 345.193L257.865 337.746C257.865 337.746 246.198 314.908 242.723 314.164Z" fill="#F6B6A6"/>
<path d="M113.143 369.148L103.71 361.824L118.107 342.71L127.292 347.552L113.143 369.148Z" fill="#FFCE33"/>
<path d="M89.9956 328.003C89.9956 328.003 85.5267 329.741 88.2572 337.933C90.9878 346.124 104.64 362.01 104.64 362.01L116.059 345.378C116.059 345.378 106.874 341.655 101.91 335.945C96.9458 330.236 91.4847 327.755 89.9956 328.003Z" fill="#F6B6A6"/>
<path d="M255.382 302.992C255.382 302.992 255.134 328.561 276.978 323.844C298.823 319.128 303.292 299.27 303.292 299.27L293.362 299.766L258.918 300.822L255.382 302.992Z" fill="#FFCE33"/>
<path d="M264.815 277.176L261.34 300.759C261.34 300.759 259.354 315.156 269.034 315.653C278.715 316.15 286.659 310.936 294.354 300.262L295.098 249.871L264.815 277.176Z" fill="#F6B6A6"/>
<path d="M240.735 224.302C240.735 224.302 232.543 257.813 241.976 270.723C251.41 283.631 260.595 286.858 271.517 283.383C282.439 279.908 294.603 263.525 296.836 250.617C299.07 237.709 297.333 222.567 297.333 222.567L261.836 196.006L240.735 224.302Z" fill="#F6B6A6"/>
<path d="M259.601 202.458C259.601 202.458 261.09 218.841 252.402 225.544C243.713 232.246 234.033 233.238 234.033 233.238C234.033 233.238 238.749 210.4 245.452 201.712C252.154 193.023 259.354 188.306 273.998 193.272C288.645 198.236 300.064 207.919 303.539 217.847C307.014 227.777 304.036 237.458 303.787 236.713C303.539 235.969 287.651 237.458 280.949 232.991C274.246 228.522 269.282 219.089 269.282 219.089L275.984 233.735C275.984 233.735 262.084 231.005 259.601 202.458Z" fill="#1C1C1C"/>
<path d="M308.646 251.228C310.288 244.295 305.999 237.344 299.067 235.702C292.134 234.06 285.183 238.349 283.541 245.281C281.899 252.214 286.188 259.165 293.12 260.807C300.053 262.449 307.004 258.16 308.646 251.228Z" fill="#F6B6A6"/>
<path d="M243.343 259.893C237.405 259.893 232.576 255.062 232.576 249.126C232.576 243.189 237.405 238.359 243.343 238.359C249.28 238.359 254.109 243.19 254.109 249.126C254.109 255.064 249.28 259.893 243.343 259.893ZM243.343 239.538C238.056 239.538 233.754 243.839 233.754 249.126C233.754 254.413 238.056 258.715 243.343 258.715C248.63 258.715 252.931 254.413 252.931 249.126C252.931 243.839 248.63 239.538 243.343 239.538Z" fill="#36203A"/>
<path d="M257.85 247.786L253.631 248.034L253.7 249.21L257.919 248.962L257.85 247.786Z" fill="#36203A"/>
<path d="M269.779 259.398C262.815 259.398 257.149 253.732 257.149 246.768C257.149 239.804 262.815 234.14 269.779 234.14C276.743 234.14 282.407 239.806 282.407 246.768C282.409 253.732 276.743 259.398 269.779 259.398ZM269.779 235.318C263.466 235.318 258.329 240.455 258.329 246.768C258.329 253.081 263.466 258.218 269.779 258.218C276.092 258.218 281.229 253.081 281.229 246.768C281.229 240.455 276.092 235.318 269.779 235.318Z" fill="#36203A"/>
<path d="M246.942 248.319C246.942 249.861 245.692 251.111 244.15 251.111C242.608 251.111 241.358 249.861 241.358 248.319C241.358 246.777 242.608 245.527 244.15 245.527C245.691 245.527 246.942 246.777 246.942 248.319Z" fill="#36203A"/>
<path d="M270.897 247.015C270.897 248.523 269.675 249.746 268.167 249.746C266.659 249.746 265.436 248.523 265.436 247.015C265.436 245.508 266.659 244.285 268.167 244.285C269.675 244.285 270.897 245.508 270.897 247.015Z" fill="#36203A"/>
<path d="M256.003 268.24L263.947 265.882C263.947 265.882 265.686 269.978 262.955 272.212C260.223 274.445 256.003 268.24 256.003 268.24Z" fill="#36203A"/>
<path opacity="0.5" d="M245.515 360.584C245.515 360.584 276.234 447.157 310.305 446.039C344.376 444.922 353.87 416.995 353.87 416.995L357.779 452.183C357.779 452.183 304.161 462.236 282.936 442.688C261.712 423.139 245.515 360.584 245.515 360.584Z" fill="#1771D7"/>
<path d="M233.785 400.798L225.966 361.143C225.966 361.143 227.641 391.303 224.29 399.123C220.94 406.942 214.796 419.789 214.796 419.789C214.796 419.789 231.054 410.479 233.785 400.798Z" fill="#461782"/>
<path d="M263.326 284.623C263.326 284.623 282.439 283.879 289.639 268.488C289.639 268.488 286.908 301.254 261.34 300.759L263.326 284.623Z" fill="#DD988A"/>
<path d="M293.361 249.995C293.361 249.995 296.526 242.362 299.692 243.107C302.856 243.851 304.719 246.457 302.856 247.39C300.995 248.32 300.809 244.784 298.947 247.203C297.086 249.623 294.478 254.463 293.361 249.995Z" fill="#DD988A"/>
<path d="M109.915 342.71L104.641 362.01L116.06 345.379L109.915 342.71Z" fill="#DD988A"/>
<path d="M239.743 334.022L257.865 337.746L242.226 345.193L239.743 334.022Z" fill="#DD988A"/>
<path opacity="0.5" d="M349.401 319.811C349.401 319.811 330.1 337.794 324.376 357.258C318.652 376.722 314.644 385.882 314.644 385.882L327.238 402.483L320.177 384.609C320.177 384.609 336.206 340.847 341.294 333.978C346.384 327.108 349.401 319.811 349.401 319.811Z" fill="#1771D7"/>
<path d="M454.866 247.839H447.48V301.029H454.866V247.839Z" fill="#1C1C1C"/>
<path d="M454.296 178.422H446.91V231.612H454.296V178.422Z" fill="#1C1C1C"/>
<path d="M150.028 144.471H142.641V197.661H150.028V144.471Z" fill="#1C1C1C"/>
<path d="M77.9687 293.426L97.803 290.294C99.1077 290.088 100.351 290.924 100.653 292.212L111.357 338.001C111.65 339.254 110.952 340.528 109.736 340.955L90.3833 347.755C88.9608 348.255 87.4205 347.403 87.0875 345.931L75.9007 296.474C75.5797 295.052 76.5291 293.653 77.9687 293.426Z" fill="#4D4D4D"/>
<path d="M79.3878 297.599L98.16 293.52L107.627 331.879L88.8567 338.083L79.3878 297.599Z" fill="white"/>
<path d="M101.669 339.225C101.669 340.217 100.865 341.02 99.8744 341.02C98.8822 341.02 98.0797 340.216 98.0797 339.225C98.0797 338.233 98.8839 337.429 99.8744 337.429C100.867 337.429 101.669 338.233 101.669 339.225Z" fill="#FAF0FC"/>
<path d="M173.934 562.883C185.048 544.413 179.085 520.43 160.615 509.315C142.144 498.2 118.161 504.162 107.046 522.631C95.932 541.101 101.895 565.084 120.366 576.199C138.836 587.315 162.82 581.353 173.934 562.883Z" fill="#F0D955"/>
<path d="M132.257 527.037C131.524 530.305 129.314 532.593 127.32 532.145C125.327 531.697 124.302 528.686 125.035 525.419C125.767 522.151 127.977 519.863 129.971 520.311C131.967 520.757 132.989 523.767 132.257 527.037Z" fill="black"/>
<path d="M160.823 533.439C160.091 536.707 157.88 538.995 155.887 538.547C153.893 538.099 152.868 535.088 153.601 531.82C154.333 528.553 156.544 526.265 158.537 526.713C160.534 527.158 161.556 530.171 160.823 533.439Z" fill="black"/>
<path d="M142.532 548.294C142.532 548.294 148.106 550.527 147.496 554.071C146.887 557.616 140.753 556.241 140.753 556.241C140.753 556.241 147.048 558.572 145.772 561.784C144.496 564.997 139.182 563.252 139.182 563.252" stroke="black" stroke-width="1.3725" stroke-miterlimit="10" stroke-linecap="round" stroke-linejoin="round"/>
<path fill-rule="evenodd" clip-rule="evenodd" d="M169.593 550.132C167.934 547.869 164.886 547.32 162.532 549.047C159.365 551.37 159.353 556.669 158.102 564.828C166.26 566.082 171.318 567.66 174.484 565.337C176.838 563.61 177.228 560.538 175.569 558.275C174.243 556.465 171.869 555.7 169.868 556.196C170.94 554.434 170.92 551.942 169.593 550.132Z" fill="#C9370D"/>
<path d="M488.898 361.84C498.945 381.774 490.929 406.08 470.995 416.126C451.061 426.173 426.754 418.157 416.707 398.223C406.661 378.289 414.677 353.983 434.611 343.937C454.547 333.888 478.851 341.906 488.898 361.84Z" fill="#2960F6"/>
<path d="M439.767 368.884L431.716 368.427L430.111 396.688L438.162 397.145L439.767 368.884Z" fill="white"/>
<path d="M441.85 371.876C441.85 371.876 445.791 372.1 447.422 372.192C451.907 372.447 452.009 363.457 452.624 359.81C453.239 356.165 462.346 354.229 462.246 363.22C461.76 371.781 459.606 373.703 463.321 373.096C463.358 373.092 463.396 373.085 463.434 373.078C470 372.1 475.74 377.631 475.364 384.256L475.216 386.856C474.879 392.786 469.8 397.318 463.871 396.98L440.5 395.651L441.85 371.876Z" fill="white"/>
<path d="M280.775 54.7849C294.285 51.5493 302.615 37.9738 299.379 24.4632C296.144 10.9527 282.568 2.62313 269.058 5.85873C255.547 9.09432 247.218 22.6698 250.453 36.1803C253.689 49.6909 267.264 58.0205 280.775 54.7849Z" fill="#F0D955"/>
<path d="M261.217 34.5954C261.217 34.5954 273.634 30.1564 289.251 29.4863C289.251 29.4863 292.011 41.8756 277.508 44.5184C263.004 47.1612 261.217 34.5954 261.217 34.5954Z" fill="black"/>
<mask id="mask0_2493_32768" style="mask-type:luminance" maskUnits="userSpaceOnUse" x="261" y="29" width="29" height="16">
<path d="M261.217 34.5954C261.217 34.5954 273.634 30.1564 289.251 29.4863C289.251 29.4863 292.011 41.8756 277.508 44.5184C263.004 47.1612 261.217 34.5954 261.217 34.5954Z" fill="white"/>
</mask>
<g mask="url(#mask0_2493_32768)">
<path d="M289.403 42.3499C290.022 45.7427 285.198 49.464 278.627 50.661C272.057 51.8581 266.23 50.0786 265.612 46.6859C264.993 43.2931 269.818 39.5719 276.388 38.3748C282.958 37.1778 288.785 38.9585 289.403 42.3499Z" fill="#C9370D"/>
</g>
<path fill-rule="evenodd" clip-rule="evenodd" d="M263.522 16.7307C262.208 17.3351 261.418 18.7331 261.471 20.0629C260.496 19.1571 258.921 18.8465 257.606 19.4508C255.963 20.2059 255.222 22.0588 256.008 23.7687C257.066 26.0688 260.41 26.7607 265.398 28.6072C267.245 23.618 268.895 20.6298 267.837 18.3298C267.054 16.6186 265.165 15.9744 263.522 16.7307Z" fill="#C9370D"/>
<path fill-rule="evenodd" clip-rule="evenodd" d="M280.473 13.6411C278.669 13.5136 277.129 14.7828 276.996 16.6589C276.818 19.1844 279.417 21.3981 282.904 25.4158C286.922 21.929 289.806 20.1019 289.985 17.5763C290.117 15.7002 288.771 14.2274 286.967 14.0999C285.524 13.9981 284.159 14.8446 283.568 16.0352C283.148 14.7738 281.916 13.7442 280.473 13.6411Z" fill="#C9370D"/>
<path d="M488.121 248.884L493.056 282.193C493.848 287.547 498.833 291.244 504.186 290.451L555.399 282.864C560.72 282.075 564.41 277.145 563.669 271.817L559.164 239.463C558.423 234.141 553.538 230.41 548.21 231.093L496.567 237.726C491.125 238.426 487.316 243.455 488.121 248.884Z" fill="#EF4444"/>
<path d="M517.672 246.508L536.28 257.282L520.121 272.463L517.672 246.508Z" fill="#FAF0FC"/>
<path d="M30.362 432.669C47.1305 432.669 60.7241 419.076 60.7241 402.307C60.7241 385.539 47.1305 371.945 30.362 371.945C13.5936 371.945 0 385.539 0 402.307C0 419.076 13.5936 432.669 30.362 432.669Z" fill="#EF4444"/>
<path d="M30.6728 394.291C30.6728 394.291 26.2277 386.143 20.5481 388.858C14.8684 391.575 16.349 400.712 20.0546 405.651C23.7585 410.589 31.9091 415.53 31.9091 415.53C31.9091 415.53 44.7506 404.91 45.7394 398.489C46.7264 392.068 44.7523 387.869 40.8008 387.623C36.8459 387.375 30.6728 394.291 30.6728 394.291Z" fill="white"/>
<path d="M549.012 200.477C558.073 200.477 565.418 193.132 565.418 184.071C565.418 175.011 558.073 167.666 549.012 167.666C539.952 167.666 532.607 175.011 532.607 184.071C532.607 193.132 539.952 200.477 549.012 200.477Z" fill="#EF4444"/>
<path d="M549.179 179.739C549.179 179.739 546.777 175.335 543.708 176.804C540.64 178.272 541.44 183.209 543.442 185.878C545.443 188.547 549.847 191.216 549.847 191.216C549.847 191.216 556.785 185.479 557.32 182.009C557.854 178.539 556.785 176.271 554.651 176.138C552.515 176.003 549.179 179.739 549.179 179.739Z" fill="white"/>
<path d="M79.7755 224.739C88.0147 216.5 88.0147 203.141 79.7755 194.902C71.5363 186.663 58.1779 186.663 49.9387 194.902C41.6995 203.141 41.6995 216.5 49.9387 224.739C58.1779 232.978 71.5363 232.978 79.7755 224.739Z" fill="#EF4444"/>
<path d="M65.0759 204.251C65.0759 204.251 61.9868 198.588 58.0404 200.475C54.094 202.362 55.1237 208.713 57.6971 212.145C60.2706 215.578 65.9349 219.01 65.9349 219.01C65.9349 219.01 74.859 211.631 75.5455 207.169C76.232 202.707 74.859 199.79 72.1131 199.618C69.3672 199.445 65.0759 204.251 65.0759 204.251Z" fill="white"/>
<path d="M396.852 158.882L392.376 192.34L385.95 240.238L359.815 242.598L352.513 182.719L351.474 174.299L381.434 156.095L396.852 158.882Z" fill="#4876FF"/>
<path d="M396.852 158.882L392.376 192.34L352.513 182.719L351.474 174.299L381.434 156.095L396.852 158.882Z" fill="#4876FF"/>
<path d="M356.823 103.856L378.66 162.946L505.833 147.103L469.866 38.3423L356.823 103.856Z" fill="#4CA9FF"/>
<path d="M326.931 103.664L352.255 94.0973C356.157 92.6236 360.517 94.5652 362.031 98.4518L387.117 162.829C388.77 167.07 386.352 171.804 381.948 172.952L353.21 180.441C349.372 181.442 345.409 179.326 344.106 175.58L322.434 113.278C321.078 109.386 323.073 105.12 326.931 103.664Z" fill="#3F99FF"/>
<path d="M505.401 147.41C503.449 148.04 500.906 146.433 498.017 143.078C491.244 135.146 482.621 117.451 475.705 96.0541C469.135 75.7348 465.739 57.2273 466.145 46.5288C466.349 41.16 467.488 37.743 469.665 37.0514C476.214 34.9356 489.496 57.9189 499.38 88.4073C509.245 118.875 511.95 145.296 505.401 147.41Z" fill="#4876FF"/>
<path d="M498.019 143.078C491.246 135.146 482.622 117.451 475.706 96.0541C469.137 75.7348 465.741 57.2272 466.147 46.5288C472.919 54.4608 481.543 72.1555 488.459 93.5319C495.028 113.851 498.425 132.381 498.019 143.078Z" fill="#FFCE33"/>
<path d="M338.411 123.981L351.256 119.27L352.756 123.766L340.124 128.049L338.411 123.981Z" fill="white"/>
<path d="M342.694 135.327L355.539 130.617L357.038 135.113L344.407 139.396L342.694 135.327Z" fill="white"/>
<path d="M346.975 147.103L359.82 142.393L361.319 146.889L348.688 151.17L346.975 147.103Z" fill="white"/>
<path d="M350.614 158.879L363.461 154.167L364.958 158.664L352.327 162.947L350.614 158.879Z" fill="white"/>
<path d="M441.284 54.3994C441.284 54.3994 437.108 82.3383 446.422 109.314C455.735 136.29 475.003 150.742 475.003 150.742" stroke="#FFE1CC" stroke-width="0.25" stroke-miterlimit="10"/>
<path d="M433.565 58.8958C433.565 58.8958 429.441 85.9654 438.64 112.103C447.837 138.24 466.869 152.241 466.869 152.241" stroke="#FFE1CC" stroke-width="0.25" stroke-miterlimit="10"/>
<path d="M472.113 84.2664C472.113 84.2664 479.82 84.2664 483.353 91.0099C486.886 97.7534 481.427 111.242 481.427 111.242C481.427 111.242 473.077 91.6519 472.113 84.2664Z" fill="#4876FF"/>
<path d="M549.502 444.837L564.683 457.569L586.719 439.451L582.802 433.575L564.683 447.285L553.42 439.451L549.502 444.837Z" fill="white"/>
<path d="M137.128 75.3135V127.255C137.128 130.737 134.308 133.54 130.843 133.54H78.9011C75.419 133.54 72.6157 130.737 72.6157 127.255V75.3135C72.6157 71.8486 75.419 69.0281 78.9011 69.0281H130.843C134.308 69.0262 137.128 71.8467 137.128 75.3135Z" fill="#2078D1"/>
<path d="M110.731 111.757H121.3L120.377 121.037L111.201 121.856L110.713 133.539H99.1858C99.1685 121.246 99.4984 98.1045 102.006 93.5947C105.454 87.4129 125.67 90.5134 125.67 90.5134L126.122 100.822C126.122 100.822 114.176 99.5848 112.349 102.877C110.504 106.185 110.731 111.757 110.731 111.757Z" fill="#FAF0FC"/>
</svg>
