<svg width="250" height="53" viewBox="0 0 250 53" fill="none" xmlns="http://www.w3.org/2000/svg">
<path fill-rule="evenodd" clip-rule="evenodd" d="M8.87541 38.9297C9.32957 38.9297 9.77927 38.8401 10.1989 38.6661C10.6184 38.492 10.9997 38.237 11.3208 37.9154C11.6419 37.5939 11.8966 37.2121 12.0704 36.792C12.2442 36.3719 12.3336 35.9216 12.3335 35.4669C12.3335 30.0667 16.7059 25.6892 22.0992 25.6892C23.6938 25.6882 25.2644 26.0781 26.6738 26.8249C28.0832 27.5716 29.2886 28.6525 30.1846 29.9732C31.0807 31.2938 31.6403 32.814 31.8145 34.401C31.9886 35.988 31.7721 37.5936 31.1838 39.0776C30.5955 40.5615 29.6533 41.8787 28.4394 42.914C27.2256 43.9494 25.7771 44.6715 24.2204 45.0172C22.6636 45.363 21.046 45.3218 19.5088 44.8975C17.9716 44.4731 16.5615 43.6783 15.4018 42.5826C14.7307 41.9731 13.8475 41.6515 12.9422 41.687C12.0368 41.7225 11.1815 42.1122 10.5601 42.7724C9.93863 43.4326 9.6007 44.3106 9.6189 45.2176C9.63711 46.1246 10.01 46.9883 10.6574 47.623C13.0267 49.8633 15.9997 51.3594 19.209 51.9265C22.4183 52.4935 25.7231 52.1066 28.7152 50.8135C31.7072 49.5205 34.2553 47.378 36.0445 44.6508C37.8337 41.9236 38.7857 38.7313 38.7827 35.4683V5.79429C38.7827 4.8759 38.4183 3.99513 37.7697 3.34573C37.1211 2.69633 36.2415 2.33151 35.3242 2.33151C34.407 2.33151 33.5273 2.69633 32.8788 3.34573C32.2302 3.99513 31.8658 4.8759 31.8658 5.79429V18.9971C31.8658 18.9971 28.5471 13.2419 21.9102 1.73146C21.4513 0.935982 20.6957 0.355577 19.8095 0.117927C18.9233 -0.119724 17.9791 0.00484615 17.1846 0.464235C16.3902 0.923624 15.8105 1.6802 15.5731 2.56752C15.3358 3.45485 15.4602 4.40024 15.919 5.19571L22.3345 16.3219L5.18791 6.40818C4.39356 5.94894 3.44953 5.82448 2.56351 6.06215C1.6775 6.29983 0.922072 6.88018 0.463417 7.67554C0.00476201 8.4709 -0.11955 9.41612 0.117829 10.3033C0.355209 11.1904 0.934835 11.9468 1.72919 12.406L15.2594 20.2275C9.45706 22.8426 5.41728 28.6823 5.41728 35.4669C5.41728 36.3853 5.78165 37.266 6.43023 37.9154C7.07881 38.5648 7.95848 38.9297 8.87571 38.9297" fill="#432EFF"/>
<path fill-rule="evenodd" clip-rule="evenodd" d="M22.1 27.334C22.6613 27.334 23.2101 27.5007 23.6769 27.8129C24.1436 28.1252 24.5074 28.5691 24.7222 29.0884C24.937 29.6077 24.9932 30.1791 24.8837 30.7303C24.7741 31.2816 24.5038 31.788 24.1068 32.1854C23.7099 32.5828 23.2041 32.8535 22.6535 32.9631C22.1029 33.0727 21.5322 33.0164 21.0136 32.8012C20.495 32.5861 20.0517 32.2218 19.7399 31.7544C19.4281 31.2871 19.2617 30.7376 19.2617 30.1755C19.2617 29.8023 19.3351 29.4328 19.4778 29.088C19.6204 28.7433 19.8295 28.43 20.093 28.1661C20.3566 27.9023 20.6695 27.693 21.0138 27.5502C21.3582 27.4074 21.7273 27.3339 22.1 27.334Z" fill="#432EFF"/>
<path fill-rule="evenodd" clip-rule="evenodd" d="M22.1003 34.6191C20.6554 34.6173 19.2248 34.9043 17.8923 35.4635C16.5597 36.0226 15.3521 36.8426 14.3403 37.8752C15.3654 41.1908 18.4519 43.5992 22.1003 43.5992C25.7486 43.5992 28.8342 41.1908 29.8602 37.8752C28.8484 36.8426 27.6408 36.0226 26.3082 35.4635C24.9757 34.9043 23.5451 34.6173 22.1003 34.6191Z" fill="#432EFF"/>
<path d="M58.8052 12.4297V43H51.9814V12.4297H58.8052ZM69.556 25.1323V43H62.9842V20.2822H69.1571L69.556 25.1323ZM68.6952 30.8433L67.0575 30.8853C67.0575 29.1776 67.2674 27.6449 67.6874 26.2871C68.1073 24.9294 68.7022 23.7746 69.472 22.8228C70.2559 21.8569 71.1867 21.1221 72.2645 20.6182C73.3563 20.1143 74.5601 19.8623 75.8758 19.8623C76.9396 19.8623 77.9125 20.0163 78.7943 20.3242C79.6761 20.6322 80.432 21.1291 81.0619 21.8149C81.7058 22.4868 82.1957 23.3826 82.5316 24.5024C82.8675 25.6082 83.0355 26.973 83.0355 28.5967V43H76.4427V28.5757C76.4427 27.6239 76.3098 26.889 76.0438 26.3711C75.7779 25.8532 75.3859 25.4893 74.868 25.2793C74.3641 25.0693 73.7482 24.9644 73.0204 24.9644C72.2505 24.9644 71.5926 25.1183 71.0467 25.4263C70.5008 25.7202 70.0529 26.1331 69.703 26.665C69.3531 27.1969 69.0941 27.8198 68.9261 28.5337C68.7722 29.2476 68.6952 30.0174 68.6952 30.8433ZM94.6262 43H88.0334V18.7075C88.0334 16.8879 88.4183 15.3551 89.1882 14.1094C89.9581 12.8636 91.0709 11.9188 92.5266 11.2749C93.9823 10.631 95.739 10.3091 97.7966 10.3091C98.6644 10.3091 99.7562 10.3441 101.072 10.4141C102.388 10.4701 103.717 10.54 105.061 10.624C106.419 10.708 107.588 10.792 108.568 10.876L105.88 16.104C104.62 15.908 103.396 15.7471 102.206 15.6211C101.03 15.4951 99.8822 15.4321 98.7624 15.4321C97.8666 15.4321 97.1107 15.5581 96.4948 15.8101C95.893 16.062 95.431 16.4329 95.1091 16.9229C94.7872 17.3988 94.6262 17.9937 94.6262 18.7075V43ZM101.996 43V10.876H108.568V43H101.996ZM99.1194 20.2822V24.8804H84.716V20.2822H99.1194ZM125.764 37.52V20.2822H132.357V43H126.184L125.764 37.52ZM126.457 32.8799L128.263 32.8379C128.263 34.3636 128.081 35.7703 127.717 37.0581C127.367 38.3459 126.835 39.4657 126.121 40.4175C125.421 41.3693 124.546 42.1112 123.497 42.6431C122.461 43.161 121.25 43.4199 119.864 43.4199C118.745 43.4199 117.716 43.266 116.778 42.958C115.854 42.6361 115.056 42.1392 114.384 41.4673C113.712 40.7814 113.195 39.9066 112.831 38.8428C112.467 37.765 112.285 36.4772 112.285 34.9795V20.2822H118.836V35.0215C118.836 35.6094 118.906 36.1133 119.045 36.5332C119.199 36.9391 119.402 37.2751 119.654 37.541C119.92 37.807 120.242 38.0029 120.62 38.1289C121.012 38.2549 121.439 38.3179 121.901 38.3179C123.063 38.3179 123.973 38.0799 124.63 37.604C125.302 37.1141 125.771 36.4632 126.037 35.6514C126.317 34.8255 126.457 33.9017 126.457 32.8799ZM139.371 12.4297H145.039L152.388 34.2866L159.716 12.4297H165.385L154.677 43H150.079L139.371 12.4297ZM136.095 12.4297H141.869L142.94 35.0845V43H136.095V12.4297ZM162.886 12.4297H168.681V43H161.815V35.0845L162.886 12.4297ZM183.274 43.4199C181.469 43.4199 179.852 43.133 178.424 42.5591C176.996 41.9852 175.786 41.1943 174.792 40.1865C173.812 39.1647 173.063 37.9889 172.545 36.6592C172.027 35.3294 171.768 33.9087 171.768 32.397V31.5991C171.768 29.9054 172.006 28.3447 172.482 26.917C172.958 25.4893 173.651 24.2505 174.561 23.2007C175.485 22.1369 176.618 21.318 177.962 20.7441C179.306 20.1562 180.839 19.8623 182.56 19.8623C184.17 19.8623 185.605 20.1283 186.865 20.6602C188.124 21.1781 189.188 21.9269 190.056 22.9067C190.924 23.8726 191.582 25.0413 192.03 26.4131C192.492 27.7708 192.722 29.2965 192.722 30.9902V33.6777H174.414V29.4575H186.298V28.9536C186.298 28.1558 186.151 27.4559 185.857 26.854C185.577 26.2521 185.157 25.7902 184.597 25.4683C184.051 25.1323 183.358 24.9644 182.518 24.9644C181.721 24.9644 181.056 25.1323 180.524 25.4683C179.992 25.8042 179.565 26.2801 179.243 26.896C178.935 27.4979 178.711 28.2048 178.571 29.0166C178.431 29.8145 178.361 30.6753 178.361 31.5991V32.397C178.361 33.2788 178.48 34.0837 178.718 34.8115C178.956 35.5394 179.306 36.1623 179.768 36.6802C180.23 37.1981 180.79 37.604 181.448 37.8979C182.105 38.1919 182.854 38.3389 183.694 38.3389C184.73 38.3389 185.717 38.1429 186.655 37.751C187.592 37.3451 188.404 36.7152 189.09 35.8613L192.156 39.3677C191.694 40.0396 191.043 40.6904 190.203 41.3203C189.377 41.9362 188.383 42.4401 187.221 42.832C186.06 43.224 184.744 43.4199 183.274 43.4199ZM208.281 37.9189V10.75H214.874V43H208.953L208.281 37.9189ZM194.13 31.9141V31.4731C194.13 29.7515 194.319 28.1838 194.697 26.77C195.089 25.3423 195.656 24.1175 196.398 23.0957C197.153 22.0599 198.084 21.262 199.19 20.7021C200.296 20.1423 201.563 19.8623 202.99 19.8623C204.306 19.8623 205.454 20.1562 206.434 20.7441C207.414 21.318 208.246 22.1299 208.932 23.1797C209.632 24.2155 210.199 25.4403 210.633 26.854C211.067 28.2537 211.396 29.7725 211.62 31.4102V32.166C211.41 33.7337 211.081 35.1965 210.633 36.5542C210.199 37.9119 209.632 39.1087 208.932 40.1445C208.246 41.1663 207.407 41.9712 206.413 42.5591C205.433 43.133 204.278 43.4199 202.948 43.4199C201.521 43.4199 200.254 43.133 199.148 42.5591C198.056 41.9852 197.139 41.1803 196.398 40.1445C195.656 39.1087 195.089 37.891 194.697 36.4912C194.319 35.0915 194.13 33.5658 194.13 31.9141ZM200.681 31.4731V31.9141C200.681 32.8099 200.744 33.6427 200.87 34.4126C201.01 35.1825 201.234 35.8613 201.542 36.4492C201.85 37.0371 202.256 37.499 202.759 37.835C203.263 38.1569 203.879 38.3179 204.607 38.3179C205.587 38.3179 206.392 38.0939 207.022 37.646C207.652 37.1841 208.127 36.5472 208.449 35.7354C208.771 34.9235 208.939 33.9787 208.953 32.9009V30.6963C208.953 29.8005 208.862 28.9956 208.68 28.2817C208.498 27.5679 208.225 26.966 207.861 26.4761C207.512 25.9862 207.071 25.6152 206.539 25.3633C206.007 25.0973 205.377 24.9644 204.649 24.9644C203.935 24.9644 203.326 25.1323 202.822 25.4683C202.319 25.7902 201.906 26.2451 201.584 26.833C201.276 27.4209 201.045 28.1138 200.891 28.9116C200.751 29.6955 200.681 30.5493 200.681 31.4731ZM225.289 20.2822V43H218.717V20.2822H225.289ZM218.318 14.4033C218.318 13.4515 218.654 12.6746 219.326 12.0728C219.998 11.4569 220.88 11.1489 221.972 11.1489C223.063 11.1489 223.945 11.4569 224.617 12.0728C225.303 12.6746 225.646 13.4515 225.646 14.4033C225.646 15.3411 225.303 16.118 224.617 16.7339C223.945 17.3358 223.063 17.6367 221.972 17.6367C220.88 17.6367 219.998 17.3358 219.326 16.7339C218.654 16.118 218.318 15.3411 218.318 14.4033ZM241.184 37.583V27.8408C241.184 27.1549 241.079 26.5671 240.869 26.0771C240.659 25.5872 240.33 25.2023 239.882 24.9224C239.434 24.6424 238.853 24.5024 238.14 24.5024C237.538 24.5024 237.013 24.6074 236.565 24.8174C236.131 25.0273 235.795 25.3283 235.557 25.7202C235.333 26.1121 235.221 26.5951 235.221 27.1689H228.67C228.67 26.1471 228.901 25.1953 229.363 24.3135C229.825 23.4316 230.483 22.6548 231.337 21.9829C232.205 21.311 233.24 20.7931 234.444 20.4292C235.648 20.0513 236.999 19.8623 238.496 19.8623C240.274 19.8623 241.856 20.1632 243.242 20.7651C244.641 21.353 245.747 22.2419 246.559 23.4316C247.371 24.6074 247.777 26.0911 247.777 27.8828V37.394C247.777 38.7658 247.854 39.8436 248.008 40.6274C248.176 41.3973 248.414 42.0692 248.722 42.6431V43H242.108C241.8 42.3421 241.569 41.5303 241.415 40.5645C241.261 39.5846 241.184 38.5908 241.184 37.583ZM242.003 29.1426L242.045 32.7539H238.79C238.063 32.7539 237.433 32.8449 236.901 33.0269C236.383 33.2088 235.963 33.4608 235.641 33.7827C235.319 34.0907 235.081 34.4546 234.927 34.8745C234.787 35.2804 234.717 35.7284 234.717 36.2183C234.717 36.6802 234.829 37.1001 235.053 37.478C235.277 37.842 235.585 38.1289 235.977 38.3389C236.369 38.5488 236.824 38.6538 237.342 38.6538C238.196 38.6538 238.923 38.4858 239.525 38.1499C240.141 37.814 240.617 37.408 240.953 36.9321C241.289 36.4422 241.457 35.9873 241.457 35.5674L243.032 38.2969C242.78 38.8568 242.472 39.4377 242.108 40.0396C241.744 40.6274 241.282 41.1803 240.722 41.6982C240.162 42.2021 239.483 42.6151 238.685 42.937C237.902 43.259 236.957 43.4199 235.851 43.4199C234.423 43.4199 233.128 43.133 231.967 42.5591C230.805 41.9712 229.874 41.1663 229.174 40.1445C228.488 39.1227 228.145 37.9469 228.145 36.6172C228.145 35.4274 228.362 34.3706 228.796 33.4468C229.23 32.5229 229.881 31.7391 230.749 31.0952C231.631 30.4513 232.737 29.9684 234.066 29.6465C235.396 29.3105 236.95 29.1426 238.727 29.1426H242.003Z" fill="white"/>
</svg>
