<svg width="32" height="32" viewBox="0 0 32 32" fill="none" xmlns="http://www.w3.org/2000/svg">
<rect width="32" height="32" rx="16" fill="url(#paint0_linear_676_25979)"/>
<path d="M21.675 11.9875C21.675 12.6295 21.1545 13.15 20.5125 13.15C19.8705 13.15 19.35 12.6295 19.35 11.9875C19.35 11.3455 19.8705 10.825 20.5125 10.825C21.1545 10.825 21.675 11.3455 21.675 11.9875Z" fill="white"/>
<path fill-rule="evenodd" clip-rule="evenodd" d="M16.25 20.125C18.3901 20.125 20.125 18.3901 20.125 16.25C20.125 14.1099 18.3901 12.375 16.25 12.375C14.1099 12.375 12.375 14.1099 12.375 16.25C12.375 18.3901 14.1099 20.125 16.25 20.125ZM16.25 18.575C17.5341 18.575 18.575 17.5341 18.575 16.25C18.575 14.9659 17.5341 13.925 16.25 13.925C14.9659 13.925 13.925 14.9659 13.925 16.25C13.925 17.5341 14.9659 18.575 16.25 18.575Z" fill="white"/>
<path fill-rule="evenodd" clip-rule="evenodd" d="M8.5 15.94C8.5 13.3358 8.5 12.0336 9.00682 11.0389C9.45263 10.164 10.164 9.45263 11.0389 9.00682C12.0336 8.5 13.3358 8.5 15.94 8.5H16.56C19.1642 8.5 20.4664 8.5 21.4611 9.00682C22.336 9.45263 23.0474 10.164 23.4932 11.0389C24 12.0336 24 13.3358 24 15.94V16.56C24 19.1642 24 20.4664 23.4932 21.4611C23.0474 22.336 22.336 23.0474 21.4611 23.4932C20.4664 24 19.1642 24 16.56 24H15.94C13.3358 24 12.0336 24 11.0389 23.4932C10.164 23.0474 9.45263 22.336 9.00682 21.4611C8.5 20.4664 8.5 19.1642 8.5 16.56V15.94ZM15.94 10.05H16.56C17.8877 10.05 18.7903 10.0512 19.4879 10.1082C20.1674 10.1637 20.515 10.2644 20.7574 10.3879C21.3407 10.6851 21.8149 11.1593 22.1121 11.7426C22.2356 11.985 22.3363 12.3326 22.3918 13.0121C22.4488 13.7097 22.45 14.6123 22.45 15.94V16.56C22.45 17.8877 22.4488 18.7903 22.3918 19.4879C22.3363 20.1674 22.2356 20.515 22.1121 20.7574C21.8149 21.3407 21.3407 21.8149 20.7574 22.1121C20.515 22.2356 20.1674 22.3363 19.4879 22.3918C18.7903 22.4488 17.8877 22.45 16.56 22.45H15.94C14.6123 22.45 13.7097 22.4488 13.0121 22.3918C12.3326 22.3363 11.985 22.2356 11.7426 22.1121C11.1593 21.8149 10.6851 21.3407 10.3879 20.7574C10.2644 20.515 10.1637 20.1674 10.1082 19.4879C10.0512 18.7903 10.05 17.8877 10.05 16.56V15.94C10.05 14.6123 10.0512 13.7097 10.1082 13.0121C10.1637 12.3326 10.2644 11.985 10.3879 11.7426C10.6851 11.1593 11.1593 10.6851 11.7426 10.3879C11.985 10.2644 12.3326 10.1637 13.0121 10.1082C13.7097 10.0512 14.6123 10.05 15.94 10.05Z" fill="white"/>
<defs>
<linearGradient id="paint0_linear_676_25979" x1="18.5" y1="1.0198e-07" x2="16" y2="32" gradientUnits="userSpaceOnUse">
<stop stop-color="#7A00DA"/>
<stop offset="1" stop-color="#FF380D"/>
</linearGradient>
</defs>
</svg>
