<svg width="32" height="32" viewBox="0 0 32 32" fill="none" xmlns="http://www.w3.org/2000/svg">
<rect width="32" height="32" rx="16" fill="#0A66C2"/>
<path d="M12.148 10.5562C12.1477 10.9688 11.9817 11.3643 11.6864 11.6559C11.3911 11.9475 10.9906 12.1111 10.5732 12.1109C10.1557 12.1107 9.75548 11.9467 9.46045 11.6548C9.16542 11.3629 8.99979 10.9672 9 10.5547C9.00021 10.1422 9.16624 9.7466 9.46156 9.45504C9.75689 9.16348 10.1573 8.99979 10.5748 9C10.9922 9.00021 11.3925 9.16428 11.6875 9.45614C11.9825 9.74799 12.1482 10.1437 12.148 10.5562ZM12.1952 13.2628H9.04722V23H12.1952V13.2628ZM17.1689 13.2628H14.0367V23H17.1375V17.8903C17.1375 15.0438 20.8914 14.7793 20.8914 17.8903V23H24V16.8326C24 12.0339 18.4439 12.2128 17.1375 14.5694L17.1689 13.2628Z" fill="white"/>
</svg>
