<svg width="32" height="32" viewBox="0 0 32 32" fill="none" xmlns="http://www.w3.org/2000/svg">
<rect width="32" height="32" rx="16" fill="#1C1C1C"/>
<path d="M11.2818 18.3705C11.3795 17.5618 11.7111 17.109 12.3361 16.6449C13.2304 16.0162 14.3475 16.3718 14.3475 16.3718V14.2623C14.6191 14.2554 14.8908 14.2715 15.1594 14.3105V17.0251C15.1594 17.0251 14.0426 16.6696 13.1484 17.2985C12.5237 17.7623 12.1913 18.2154 12.094 19.0241C12.091 19.4632 12.1734 20.0372 12.5528 20.5336C12.459 20.4855 12.3634 20.4306 12.2659 20.3691C11.43 19.8078 11.2777 18.9656 11.2818 18.3705ZM19.7719 10.3619C19.1567 9.6878 18.9241 9.00718 18.84 8.52905H19.6139C19.6139 8.52905 19.4596 9.78271 20.5841 11.0156L20.5997 11.0321C20.2966 10.8415 20.0187 10.6165 19.7719 10.3619ZM23.5 12.2731V14.9332C23.5 14.9332 22.5124 14.8945 21.7816 14.7086C20.7612 14.4486 20.1053 14.0498 20.1053 14.0498C20.1053 14.0498 19.6522 13.7654 19.6156 13.7455V19.2386C19.6156 19.5445 19.5318 20.3083 19.2764 20.9454C18.9431 21.7788 18.4286 22.3258 18.334 22.4376C18.334 22.4376 17.7083 23.1771 16.6044 23.675C15.6094 24.1242 14.7358 24.1129 14.4747 24.1242C14.4747 24.1242 12.9645 24.184 11.6057 23.3009C11.3118 23.1063 11.0375 22.8858 10.7863 22.6424L10.7931 22.6473C12.1523 23.5304 13.6621 23.4706 13.6621 23.4706C13.9236 23.4592 14.7972 23.4706 15.7919 23.0214C16.8947 22.5234 17.5214 21.784 17.5214 21.784C17.615 21.6722 18.1319 21.1251 18.4639 20.2914C18.7186 19.6547 18.803 18.8905 18.803 18.5847V13.0922C18.8396 13.1124 19.2924 13.3968 19.2924 13.3968C19.2924 13.3968 19.9486 13.7959 20.969 14.0556C21.7002 14.2415 22.6874 14.2802 22.6874 14.2802V12.1958C23.0252 12.2715 23.3131 12.292 23.5 12.2731Z" fill="#F61C4B"/>
<path d="M22.6878 12.1958V14.2796C22.6878 14.2796 21.7006 14.2409 20.9694 14.055C19.9489 13.7949 19.2927 13.3961 19.2927 13.3961C19.2927 13.3961 18.84 13.1117 18.8034 13.0916V18.5853C18.8034 18.8912 18.7196 19.6553 18.4642 20.2921C18.1309 21.1258 17.6164 21.6728 17.5218 21.7846C17.5218 21.7846 16.8958 22.5241 15.7922 23.022C14.7976 23.4712 13.924 23.4599 13.6625 23.4712C13.6625 23.4712 12.1527 23.531 10.7934 22.6479L10.7867 22.643C10.6432 22.5041 10.5081 22.3574 10.3821 22.2036C9.94833 21.6748 9.68245 21.0494 9.61565 20.871C9.61553 20.8702 9.61553 20.8694 9.61565 20.8687C9.50814 20.5586 9.28228 19.8139 9.31314 19.0927C9.36774 17.8202 9.81539 17.0391 9.93375 16.8434C10.2472 16.3099 10.6549 15.8325 11.1387 15.4325C11.5656 15.0873 12.0495 14.8127 12.5705 14.6199C13.1337 14.3935 13.7369 14.2721 14.3475 14.2623V16.3718C14.3475 16.3718 13.2304 16.0175 12.3365 16.6449C11.7115 17.109 11.3798 17.5618 11.2821 18.3705C11.2781 18.9656 11.4303 19.8078 12.2656 20.3694C12.3631 20.4312 12.4587 20.486 12.5525 20.5339C12.6984 20.7236 12.876 20.8889 13.0782 21.0231C13.8941 21.5396 14.5778 21.5756 15.4521 21.2402C16.035 21.0159 16.4739 20.5105 16.6774 19.9505C16.8052 19.6007 16.8035 19.2487 16.8035 18.8847V8.52905H18.8383C18.9224 9.00718 19.155 9.6878 19.7702 10.3619C20.017 10.6165 20.295 10.8415 20.598 11.0321C20.6876 11.1248 21.1454 11.5828 21.7331 11.8639C22.037 12.0092 22.3573 12.1206 22.6878 12.1958V12.1958Z" fill="#F7F7F7"/>
<path d="M8.80579 20.2231V20.2248L8.85628 20.3616C8.85048 20.3457 8.83171 20.2973 8.80579 20.2231Z" fill="white"/>
<path d="M12.5705 14.6199C12.0495 14.8127 11.5656 15.0873 11.1387 15.4325C10.6548 15.8334 10.2472 16.3118 9.93411 16.8464C9.81576 17.0414 9.3681 17.8231 9.3135 19.0956C9.28264 19.8169 9.5085 20.5615 9.61601 20.8716C9.61589 20.8724 9.61589 20.8731 9.61601 20.8739C9.68383 21.0507 9.94869 21.6761 10.3824 22.2065C10.5084 22.3603 10.6435 22.507 10.787 22.646C10.3272 22.3412 9.91716 21.9727 9.57023 21.5526C9.14021 21.0283 8.87501 20.4094 8.80583 20.2268C8.80574 20.2255 8.80574 20.2242 8.80583 20.2229V20.2206C8.69798 19.9108 8.47144 19.1658 8.50298 18.4436C8.55758 17.1711 9.00523 16.39 9.12359 16.1944C9.43657 15.6597 9.84417 15.1813 10.3282 14.7805C10.755 14.4352 11.2389 14.1606 11.76 13.9679C12.085 13.8386 12.4236 13.7433 12.7699 13.6835C13.2918 13.5962 13.8249 13.5886 14.3492 13.661V14.2624C13.738 14.2719 13.1343 14.3933 12.5705 14.6199Z" fill="#25EDE8"/>
<path d="M18.84 8.52897H16.8052V18.8849C16.8052 19.2489 16.8052 19.6 16.6791 19.9507C16.4735 20.5104 16.0364 21.0158 15.4538 21.2401C14.5792 21.5768 13.8955 21.5395 13.0799 21.023C12.8774 20.8894 12.6993 20.7246 12.5529 20.5354C13.2477 20.8907 13.8697 20.8845 14.6402 20.5881C15.2225 20.3638 15.6603 19.8584 15.8651 19.2984C15.9933 18.9486 15.9916 18.5966 15.9916 18.2329V7.875H18.8013C18.8013 7.875 18.7698 8.13243 18.84 8.52897ZM22.6878 11.6194V12.1957C22.3579 12.1204 22.0382 12.009 21.7348 11.8638C21.1471 11.5827 20.6893 11.1247 20.5997 11.0321C20.7036 11.0974 20.8114 11.1569 20.9226 11.2102C21.6371 11.5521 22.3408 11.6542 22.6878 11.6194Z" fill="#25EDE8"/>
</svg>
