<svg width="32" height="32" viewBox="0 0 32 32" fill="none" xmlns="http://www.w3.org/2000/svg">
<circle cx="16" cy="16" r="16" fill="#FE0000"/>
<path d="M8.1397 12.3647C8.21312 11.1774 9.12229 10.2469 10.254 10.1881C11.8928 10.1028 14.2352 10 16 10C17.7648 10 20.1072 10.1028 21.746 10.1881C22.8777 10.2469 23.7869 11.1774 23.8603 12.3647C23.9306 13.5022 24 14.9018 24 16C24 17.0982 23.9306 18.4978 23.8603 19.6353C23.7869 20.8226 22.8777 21.7531 21.746 21.8119C20.1072 21.8972 17.7648 22 16 22C14.2352 22 11.8928 21.8972 10.254 21.8119C9.12229 21.7531 8.21312 20.8226 8.1397 19.6353C8.06939 18.4978 8 17.0982 8 16C8 14.9018 8.06939 13.5022 8.1397 12.3647Z" fill="white"/>
<path d="M14 13.8401V18.6401L18.8571 16.2401L14 13.8401Z" fill="#FE0000"/>
</svg>
