<svg width="40" height="40" viewBox="0 0 40 40" fill="none" xmlns="http://www.w3.org/2000/svg">
<g filter="url(#filter0_d_91_22569)">
<rect x="4" width="32" height="32" rx="16" fill="url(#paint0_linear_91_22569)"/>
</g>
<path d="M25.675 11.9875C25.675 12.6295 25.1545 13.15 24.5125 13.15C23.8705 13.15 23.35 12.6295 23.35 11.9875C23.35 11.3455 23.8705 10.825 24.5125 10.825C25.1545 10.825 25.675 11.3455 25.675 11.9875Z" fill="white"/>
<path fill-rule="evenodd" clip-rule="evenodd" d="M20.25 20.125C22.3901 20.125 24.125 18.3901 24.125 16.25C24.125 14.1099 22.3901 12.375 20.25 12.375C18.1099 12.375 16.375 14.1099 16.375 16.25C16.375 18.3901 18.1099 20.125 20.25 20.125ZM20.25 18.575C21.5341 18.575 22.575 17.5341 22.575 16.25C22.575 14.9659 21.5341 13.925 20.25 13.925C18.9659 13.925 17.925 14.9659 17.925 16.25C17.925 17.5341 18.9659 18.575 20.25 18.575Z" fill="white"/>
<path fill-rule="evenodd" clip-rule="evenodd" d="M12.5 15.94C12.5 13.3358 12.5 12.0336 13.0068 11.0389C13.4526 10.164 14.164 9.45263 15.0389 9.00682C16.0336 8.5 17.3358 8.5 19.94 8.5H20.56C23.1642 8.5 24.4664 8.5 25.4611 9.00682C26.336 9.45263 27.0474 10.164 27.4932 11.0389C28 12.0336 28 13.3358 28 15.94V16.56C28 19.1642 28 20.4664 27.4932 21.4611C27.0474 22.336 26.336 23.0474 25.4611 23.4932C24.4664 24 23.1642 24 20.56 24H19.94C17.3358 24 16.0336 24 15.0389 23.4932C14.164 23.0474 13.4526 22.336 13.0068 21.4611C12.5 20.4664 12.5 19.1642 12.5 16.56V15.94ZM19.94 10.05H20.56C21.8877 10.05 22.7903 10.0512 23.4879 10.1082C24.1674 10.1637 24.515 10.2644 24.7574 10.3879C25.3407 10.6851 25.8149 11.1593 26.1121 11.7426C26.2356 11.985 26.3363 12.3326 26.3918 13.0121C26.4488 13.7097 26.45 14.6123 26.45 15.94V16.56C26.45 17.8877 26.4488 18.7903 26.3918 19.4879C26.3363 20.1674 26.2356 20.515 26.1121 20.7574C25.8149 21.3407 25.3407 21.8149 24.7574 22.1121C24.515 22.2356 24.1674 22.3363 23.4879 22.3918C22.7903 22.4488 21.8877 22.45 20.56 22.45H19.94C18.6123 22.45 17.7097 22.4488 17.0121 22.3918C16.3326 22.3363 15.985 22.2356 15.7426 22.1121C15.1593 21.8149 14.6851 21.3407 14.3879 20.7574C14.2644 20.515 14.1637 20.1674 14.1082 19.4879C14.0512 18.7903 14.05 17.8877 14.05 16.56V15.94C14.05 14.6123 14.0512 13.7097 14.1082 13.0121C14.1637 12.3326 14.2644 11.985 14.3879 11.7426C14.6851 11.1593 15.1593 10.6851 15.7426 10.3879C15.985 10.2644 16.3326 10.1637 17.0121 10.1082C17.7097 10.0512 18.6123 10.05 19.94 10.05Z" fill="white"/>
<defs>
<filter id="filter0_d_91_22569" x="0" y="0" width="40" height="40" filterUnits="userSpaceOnUse" color-interpolation-filters="sRGB">
<feFlood flood-opacity="0" result="BackgroundImageFix"/>
<feColorMatrix in="SourceAlpha" type="matrix" values="0 0 0 0 0 0 0 0 0 0 0 0 0 0 0 0 0 0 127 0" result="hardAlpha"/>
<feOffset dy="4"/>
<feGaussianBlur stdDeviation="2"/>
<feComposite in2="hardAlpha" operator="out"/>
<feColorMatrix type="matrix" values="0 0 0 0 0 0 0 0 0 0 0 0 0 0 0 0 0 0 0.25 0"/>
<feBlend mode="normal" in2="BackgroundImageFix" result="effect1_dropShadow_91_22569"/>
<feBlend mode="normal" in="SourceGraphic" in2="effect1_dropShadow_91_22569" result="shape"/>
</filter>
<linearGradient id="paint0_linear_91_22569" x1="22.5" y1="1.0198e-07" x2="20" y2="32" gradientUnits="userSpaceOnUse">
<stop stop-color="#7A00DA"/>
<stop offset="1" stop-color="#FF380D"/>
</linearGradient>
</defs>
</svg>
