<svg width="682" height="686" viewBox="0 0 682 686" fill="none" xmlns="http://www.w3.org/2000/svg">
<g filter="url(#filter0_d_2493_32768)">
<path d="M135.492 310.433C170.982 225.807 254.605 166.363 352.119 166.363C354.461 166.363 356.792 166.408 359.116 166.475C390.866 132.966 435.784 112.062 485.588 112.062C581.799 112.062 659.793 190.056 659.793 286.267C659.793 345.405 630.317 397.652 585.264 429.142C571.434 545.637 472.335 635.985 352.119 635.985C327.33 635.985 303.445 632.132 281.011 625.011C254.947 640.55 224.49 649.485 191.942 649.485C95.7308 649.485 17.7374 571.492 17.7374 475.28C17.7374 398.827 66.9887 333.884 135.492 310.433Z" fill="#E0EBFF"/>
<path d="M181.602 676.954H487.946C499.353 676.954 508.598 667.707 508.598 656.301V63.0598C508.598 51.6527 499.351 42.4075 487.946 42.4075H181.602C170.195 42.4075 160.95 51.6547 160.95 63.0598V656.301C160.948 667.707 170.195 676.954 181.602 676.954Z" fill="#1C1C1C"/>
<path d="M177.13 584.55H494.015C498.039 584.55 501.299 581.29 501.299 577.266V108.125C501.299 104.102 498.039 100.841 494.015 100.841H177.13C173.106 100.841 169.846 104.102 169.846 108.125V577.266C169.846 581.29 173.108 584.55 177.13 584.55Z" fill="#F9F9F9"/>
<path d="M198.555 262.478H476.694C480.717 262.478 483.978 259.218 483.978 255.194V130.927C483.978 126.904 480.717 123.644 476.694 123.644H198.555C194.532 123.644 191.271 126.904 191.271 130.927V255.194C191.271 259.216 194.533 262.478 198.555 262.478Z" fill="#E4F3FF"/>
<path d="M199.681 425.238H477.82C481.843 425.238 485.104 421.978 485.104 417.955V293.688C485.104 289.667 481.843 286.404 477.82 286.404H199.681C195.657 286.404 192.397 289.665 192.397 293.688V417.955C192.397 421.978 195.657 425.238 199.681 425.238Z" fill="#E4F3FF"/>
<path d="M197.806 588H475.945C479.968 588 483.228 584.74 483.228 580.717V456.45C483.228 452.427 479.968 449.166 475.945 449.166H197.806C193.782 449.166 190.522 452.427 190.522 456.45V580.717C190.522 584.74 193.782 588 197.806 588Z" fill="#E4F3FF"/>
<path d="M380.914 215.747C380.914 215.747 396.598 211.755 409.144 226.868C421.691 241.98 421.12 268.786 425.399 276.77C429.675 284.754 435.664 291.599 435.664 291.599C435.664 291.599 425.969 285.61 422.546 280.192C422.546 280.192 420.549 291.028 426.538 312.984C432.527 334.941 430.53 352.337 406.863 349.769C383.196 347.204 369.223 348.059 369.223 348.059C369.223 348.059 335.574 352.622 320.46 350.056C305.347 347.49 273.978 348.345 285.956 302.148C297.934 255.951 300.214 275.913 306.203 244.262C312.191 212.609 338.425 210.043 349.261 210.043C360.097 210.045 380.914 215.747 380.914 215.747Z" fill="#1C1C1C"/>
<path d="M416.489 362.247L461.615 428.761L531.763 399.246L548.018 424.055C548.018 424.055 471.025 489.5 445.36 486.932C419.696 484.366 405.58 453.996 405.58 453.996L410.284 382.992L416.489 362.247Z" fill="#3F99FF"/>
<path d="M419.055 584.885L409.431 528.425L267.634 523.933L254.162 584.885H419.055Z" fill="#1C1C1C"/>
<path d="M416.489 362.248C416.489 362.248 426.754 408.443 417.772 432.824C408.789 457.205 405.154 471.963 405.154 471.963L409.431 528.425L267.636 523.935L276.619 367.383C276.619 367.383 309.341 344.285 334.364 344.285C359.387 344.285 380.559 345.568 380.559 345.568L416.489 362.248Z" fill="#3F99FF"/>
<path d="M395.956 414.22L370.292 398.821L318.963 444.374C318.963 444.374 280.466 369.306 276.617 367.381C272.768 365.457 263.142 389.197 260.576 421.917C258.011 454.64 274.051 496.344 286.241 508.534C298.432 520.724 331.153 511.1 351.044 489.928C370.933 468.756 395.956 414.22 395.956 414.22Z" fill="#3F99FF"/>
<path d="M402.586 397.394L395.956 414.219L370.292 398.82L379.774 386.558L402.586 397.394Z" fill="#FFCE33"/>
<path d="M399.163 360.894C399.163 360.894 406.578 362.891 406.292 367.738C406.008 372.585 399.734 396.539 399.734 396.539L381.769 387.984C381.769 387.984 395.171 361.749 399.163 360.894Z" fill="#F6B6A6"/>
<path d="M548.018 424.057L558.854 415.644L542.315 393.687L531.763 399.248L548.018 424.057Z" fill="#FFCE33"/>
<path d="M574.608 376.791C574.608 376.791 579.742 378.788 576.605 388.198C573.468 397.608 557.785 415.858 557.785 415.858L544.667 396.751C544.667 396.751 555.219 392.475 560.921 385.915C566.624 379.357 572.897 376.507 574.608 376.791Z" fill="#F6B6A6"/>
<path d="M384.622 348.061C384.622 348.061 384.906 377.432 359.813 372.014C334.719 366.596 329.585 343.784 329.585 343.784L340.992 344.355L380.559 345.567L384.622 348.061Z" fill="#FFCE33"/>
<path d="M373.785 318.404L377.777 345.495C377.777 345.495 380.059 362.034 368.938 362.604C357.818 363.175 348.692 357.186 339.853 344.924L338.997 287.038L373.785 318.404Z" fill="#F6B6A6"/>
<path d="M401.447 257.666C401.447 257.666 410.857 296.162 400.021 310.992C389.185 325.82 378.633 329.527 366.086 325.535C353.539 321.543 339.566 302.723 337.001 287.895C334.435 273.067 336.43 255.673 336.43 255.673L377.207 225.161L401.447 257.666Z" fill="#F6B6A6"/>
<path d="M379.774 232.572C379.774 232.572 378.064 251.392 388.045 259.092C398.026 266.791 409.146 267.931 409.146 267.931C409.146 267.931 403.728 241.696 396.029 231.715C388.329 221.734 380.059 216.316 363.236 222.02C346.411 227.723 333.293 238.846 329.301 250.251C325.309 261.658 328.73 272.778 329.017 271.923C329.301 271.068 347.552 272.778 355.252 267.647C362.951 262.513 368.654 251.677 368.654 251.677L360.954 268.502C360.954 268.502 376.922 265.365 379.774 232.572Z" fill="#1C1C1C"/>
<path d="M323.434 288.597C321.548 280.633 326.475 272.648 334.438 270.761C342.402 268.875 350.387 273.802 352.274 281.766C354.16 289.729 349.234 297.715 341.27 299.601C333.306 301.487 325.321 296.561 323.434 288.597Z" fill="#F6B6A6"/>
<path d="M398.451 298.551C405.272 298.551 410.82 293.001 410.82 286.182C410.82 279.362 405.272 273.814 398.451 273.814C391.631 273.814 386.083 279.364 386.083 286.182C386.083 293.003 391.631 298.551 398.451 298.551ZM398.451 275.168C404.525 275.168 409.466 280.109 409.466 286.182C409.466 292.256 404.525 297.197 398.451 297.197C392.378 297.197 387.437 292.256 387.437 286.182C387.437 280.109 392.378 275.168 398.451 275.168Z" fill="#36203A"/>
<path d="M381.786 284.643L386.633 284.928L386.554 286.279L381.707 285.994L381.786 284.643Z" fill="#36203A"/>
<path d="M368.083 297.982C376.083 297.982 382.591 291.473 382.591 283.473C382.591 275.474 376.083 268.967 368.083 268.967C360.083 268.967 353.577 275.476 353.577 283.473C353.575 291.473 360.083 297.982 368.083 297.982ZM368.083 270.32C375.335 270.32 381.236 276.221 381.236 283.473C381.236 290.725 375.335 296.626 368.083 296.626C360.831 296.626 354.93 290.725 354.93 283.473C354.93 276.221 360.831 270.32 368.083 270.32Z" fill="#36203A"/>
<path d="M394.316 285.255C394.316 287.026 395.752 288.462 397.524 288.462C399.295 288.462 400.731 287.026 400.731 285.255C400.731 283.483 399.295 282.047 397.524 282.047C395.754 282.047 394.316 283.483 394.316 285.255Z" fill="#36203A"/>
<path d="M366.798 283.758C366.798 285.49 368.202 286.894 369.935 286.894C371.667 286.894 373.071 285.49 373.071 283.758C373.071 282.026 371.667 280.621 369.935 280.621C368.202 280.621 366.798 282.026 366.798 283.758Z" fill="#36203A"/>
<path d="M383.908 308.139L374.782 305.43C374.782 305.43 372.785 310.136 375.922 312.702C379.06 315.268 383.908 308.139 383.908 308.139Z" fill="#36203A"/>
<path opacity="0.5" d="M395.956 414.219C395.956 414.219 360.668 513.669 321.529 512.384C282.39 511.102 271.483 479.021 271.483 479.021L266.993 519.443C266.993 519.443 328.587 530.991 352.968 508.536C377.35 486.079 395.956 414.219 395.956 414.219Z" fill="#1771D7"/>
<path d="M409.431 460.415L418.413 414.861C418.413 414.861 416.489 449.508 420.338 458.49C424.186 467.473 431.244 482.23 431.244 482.23C431.244 482.23 412.567 471.535 409.431 460.415Z" fill="#461782"/>
<path d="M375.496 326.96C375.496 326.96 353.539 326.104 345.269 308.424C345.269 308.424 348.406 346.064 377.777 345.495L375.496 326.96Z" fill="#DD988A"/>
<path d="M340.993 287.181C340.993 287.181 337.358 278.412 333.721 279.267C330.086 280.123 327.946 283.116 330.086 284.187C332.224 285.256 332.438 281.194 334.576 283.973C336.714 286.753 339.71 292.313 340.993 287.181Z" fill="#DD988A"/>
<path d="M551.725 393.687L557.785 415.857L544.667 396.753L551.725 393.687Z" fill="#DD988A"/>
<path d="M402.586 383.706L381.769 387.984L399.734 396.539L402.586 383.706Z" fill="#DD988A"/>
<path opacity="0.5" d="M276.617 367.381C276.617 367.381 298.789 388.039 305.365 410.398C311.94 432.757 316.544 443.279 316.544 443.279L302.077 462.351L310.189 441.818C310.189 441.818 291.775 391.547 285.931 383.655C280.083 375.763 276.617 367.381 276.617 367.381Z" fill="#1771D7"/>
<path d="M155.465 284.703H163.949V345.805H155.465V284.703Z" fill="#1C1C1C"/>
<path d="M156.12 204.962H164.604V266.064H156.12V204.962Z" fill="#1C1C1C"/>
<path d="M505.646 165.96H514.132V227.062H505.646V165.96Z" fill="#1C1C1C"/>
<path d="M588.424 337.072L565.639 333.474C564.141 333.237 562.713 334.198 562.365 335.677L550.07 388.277C549.732 389.716 550.535 391.18 551.931 391.67L574.163 399.482C575.797 400.056 577.566 399.078 577.949 397.387L590.8 340.573C591.168 338.939 590.078 337.333 588.424 337.072Z" fill="#4D4D4D"/>
<path d="M586.794 341.866L565.229 337.179L554.354 381.244L575.917 388.371L586.794 341.866Z" fill="white"/>
<path d="M561.198 389.683C561.198 390.823 562.122 391.745 563.26 391.745C564.4 391.745 565.322 390.821 565.322 389.683C565.322 388.544 564.398 387.62 563.26 387.62C562.12 387.62 561.198 388.544 561.198 389.683Z" fill="#FAF0FC"/>
<path d="M478.184 646.609C465.416 625.392 472.267 597.841 493.485 585.073C514.703 572.304 542.253 579.153 555.021 600.37C567.789 621.587 560.938 649.137 539.72 661.906C518.502 674.675 490.952 667.826 478.184 646.609Z" fill="#F0D955"/>
<path d="M526.061 605.431C526.902 609.185 529.441 611.813 531.731 611.299C534.022 610.784 535.199 607.325 534.357 603.572C533.516 599.818 530.977 597.19 528.686 597.704C526.393 598.216 525.219 601.675 526.061 605.431Z" fill="black"/>
<path d="M493.245 612.785C494.087 616.539 496.626 619.167 498.916 618.653C501.206 618.138 502.383 614.679 501.542 610.926C500.7 607.172 498.161 604.544 495.871 605.058C493.578 605.57 492.404 609.032 493.245 612.785Z" fill="black"/>
<path d="M514.257 629.85C514.257 629.85 507.855 632.415 508.554 636.486C509.254 640.558 516.301 638.979 516.301 638.979C516.301 638.979 509.069 641.657 510.535 645.347C512.001 649.037 518.106 647.033 518.106 647.033" stroke="black" stroke-width="1.3725" stroke-miterlimit="10" stroke-linecap="round" stroke-linejoin="round"/>
<path fill-rule="evenodd" clip-rule="evenodd" d="M483.171 631.961C485.076 629.361 488.578 628.731 491.282 630.714C494.92 633.383 494.934 639.471 496.372 648.843C486.999 650.283 481.19 652.096 477.552 649.427C474.848 647.443 474.4 643.915 476.306 641.316C477.83 639.236 480.557 638.357 482.856 638.927C481.624 636.903 481.647 634.04 483.171 631.961Z" fill="#C9370D"/>
<path d="M116.371 415.661C104.83 438.56 114.038 466.482 136.937 478.023C159.836 489.563 187.759 480.355 199.299 457.457C210.84 434.558 201.632 406.636 178.733 395.095C155.831 383.552 127.912 392.763 116.371 415.661Z" fill="#2960F6"/>
<path d="M172.81 423.754L182.058 423.228L183.902 455.693L174.654 456.219L172.81 423.754Z" fill="white"/>
<path d="M170.417 427.19C170.417 427.19 165.89 427.448 164.017 427.554C158.865 427.846 158.748 417.52 158.04 413.33C157.334 409.143 146.872 406.919 146.987 417.247C147.546 427.081 150.02 429.289 145.752 428.593C145.71 428.587 145.666 428.579 145.622 428.571C138.08 427.448 131.486 433.801 131.918 441.412L132.088 444.399C132.475 451.211 138.31 456.417 145.121 456.028L171.968 454.502L170.417 427.19Z" fill="white"/>
<path d="M355.452 62.9338C339.931 59.217 330.363 43.6222 334.08 28.102C337.797 12.5818 353.391 3.01335 368.912 6.73022C384.432 10.4471 394 26.0418 390.283 41.562C386.567 57.0822 370.972 66.6507 355.452 62.9338Z" fill="#F0D955"/>
<path d="M377.919 39.7413C377.919 39.7413 363.654 34.642 345.714 33.8723C345.714 33.8723 342.544 48.1044 359.205 51.1403C375.866 54.1762 377.919 39.7413 377.919 39.7413Z" fill="black"/>
<mask id="mask0_2493_32768" style="mask-type:luminance" maskUnits="userSpaceOnUse" x="345" y="33" width="33" height="19">
<path d="M377.919 39.7413C377.919 39.7413 363.654 34.642 345.714 33.8723C345.714 33.8723 342.544 48.1044 359.205 51.1403C375.866 54.1762 377.919 39.7413 377.919 39.7413Z" fill="white"/>
</mask>
<g mask="url(#mask0_2493_32768)">
<path d="M345.539 48.6495C344.829 52.5469 350.371 56.8217 357.918 58.1968C365.466 59.5719 372.159 57.5277 372.87 53.6304C373.58 49.733 368.038 45.4582 360.491 44.0831C352.943 42.708 346.25 44.7536 345.539 48.6495Z" fill="#C9370D"/>
</g>
<path fill-rule="evenodd" clip-rule="evenodd" d="M375.271 19.2197C376.78 19.9139 377.688 21.5199 377.627 23.0475C378.746 22.0069 380.556 21.6502 382.066 22.3444C383.953 23.2118 384.805 25.3403 383.902 27.3046C382.686 29.9467 378.845 30.7416 373.115 32.8627C370.994 27.1314 369.098 23.6988 370.313 21.0566C371.213 19.0909 373.383 18.3508 375.271 19.2197Z" fill="#C9370D"/>
<path fill-rule="evenodd" clip-rule="evenodd" d="M355.799 15.67C357.871 15.5235 359.64 16.9815 359.792 19.1367C359.996 22.0379 357.011 24.5808 353.005 29.1961C348.39 25.1907 345.077 23.0918 344.872 20.1906C344.719 18.0354 346.266 16.3435 348.338 16.197C349.996 16.08 351.564 17.0525 352.243 18.4203C352.726 16.9711 354.141 15.7885 355.799 15.67Z" fill="#C9370D"/>
<path d="M117.264 285.904L111.595 324.168C110.685 330.318 104.959 334.565 98.8087 333.654L39.9787 324.939C33.8662 324.033 29.6271 318.369 30.4785 312.249L35.6533 275.081C36.5047 268.969 42.1169 264.683 48.2373 265.467L107.562 273.086C113.813 273.891 118.188 279.668 117.264 285.904Z" fill="#EF4444"/>
<path d="M83.3174 283.175L61.9413 295.551L80.5045 312.99L83.3174 283.175Z" fill="#FAF0FC"/>
<path d="M643.112 497.026C623.849 497.026 608.234 481.411 608.234 462.148C608.234 442.886 623.849 427.27 643.112 427.27C662.374 427.27 677.99 442.886 677.99 462.148C677.99 481.411 662.374 497.026 643.112 497.026Z" fill="#EF4444"/>
<path d="M642.755 452.94C642.755 452.94 647.861 443.579 654.385 446.698C660.91 449.819 659.209 460.316 654.952 465.989C650.697 471.662 641.335 477.337 641.335 477.337C641.335 477.337 626.583 465.138 625.447 457.762C624.313 450.386 626.581 445.562 631.12 445.28C635.663 444.995 642.755 452.94 642.755 452.94Z" fill="white"/>
<path d="M47.3153 230.297C36.9072 230.297 28.4697 221.859 28.4697 211.451C28.4697 201.043 36.9072 192.605 47.3153 192.605C57.7235 192.605 66.161 201.043 66.161 211.451C66.161 221.859 57.7235 230.297 47.3153 230.297Z" fill="#EF4444"/>
<path d="M47.123 206.474C47.123 206.474 49.8831 201.415 53.4082 203.102C56.9333 204.789 56.0133 210.46 53.7142 213.526C51.4152 216.592 46.356 219.659 46.356 219.659C46.356 219.659 38.3858 213.067 37.7718 209.081C37.1578 205.095 38.3858 202.49 40.8379 202.337C43.2919 202.182 47.123 206.474 47.123 206.474Z" fill="white"/>
<path d="M586.348 258.168C576.884 248.703 576.884 233.358 586.348 223.893C595.813 214.428 611.159 214.428 620.623 223.893C630.088 233.358 630.088 248.703 620.623 258.168C611.159 267.633 595.813 267.633 586.348 258.168Z" fill="#EF4444"/>
<path d="M603.235 234.632C603.235 234.632 606.783 228.127 611.317 230.295C615.85 232.462 614.667 239.758 611.711 243.701C608.755 247.644 602.248 251.586 602.248 251.586C602.248 251.586 591.996 243.11 591.208 237.984C590.419 232.859 591.996 229.508 595.151 229.31C598.305 229.112 603.235 234.632 603.235 234.632Z" fill="white"/>
<path d="M222.108 182.515L227.25 220.95L234.632 275.972L264.655 278.683L273.043 209.898L274.235 200.225L239.82 179.314L222.108 182.515Z" fill="#4876FF"/>
<path d="M222.108 182.515L227.25 220.95L273.043 209.898L274.235 200.225L239.82 179.314L222.108 182.515Z" fill="#4876FF"/>
<path d="M268.092 119.305L243.006 187.184L96.9176 168.983L138.234 44.0457L268.092 119.305Z" fill="#4CA9FF"/>
<path d="M302.43 119.083L273.339 108.094C268.857 106.401 263.849 108.631 262.109 113.096L233.292 187.049C231.393 191.921 234.171 197.359 239.23 198.677L272.243 207.281C276.65 208.431 281.203 206 282.7 201.696L307.595 130.127C309.153 125.657 306.862 120.756 302.43 119.083Z" fill="#3F99FF"/>
<path d="M97.4138 169.337C99.656 170.06 102.577 168.214 105.896 164.36C113.676 155.248 123.582 134.921 131.527 110.342C139.074 87 142.975 65.7396 142.508 53.4499C142.275 47.2824 140.966 43.3572 138.465 42.5627C130.942 40.1322 115.685 66.5341 104.331 101.557C92.9982 136.557 89.8909 166.908 97.4138 169.337Z" fill="#4876FF"/>
<path d="M105.894 164.36C113.674 155.248 123.58 134.921 131.525 110.342C139.072 87.0001 142.973 65.7397 142.506 53.45C134.727 62.5618 124.82 82.8885 116.876 107.444C109.329 130.786 105.427 152.072 105.894 164.36Z" fill="#FFCE33"/>
<path d="M289.242 142.423L274.487 137.01L272.764 142.176L287.275 147.095L289.242 142.423Z" fill="white"/>
<path d="M284.322 155.456L269.567 150.046L267.844 155.211L282.355 160.131L284.322 155.456Z" fill="white"/>
<path d="M279.405 168.984L264.649 163.573L262.927 168.739L277.437 173.656L279.405 168.984Z" fill="white"/>
<path d="M275.224 182.511L260.467 177.099L258.746 182.264L273.257 187.184L275.224 182.511Z" fill="white"/>
<path d="M171.068 62.4912C171.068 62.4912 175.865 94.5858 165.166 125.574C154.467 156.562 132.333 173.164 132.333 173.164" stroke="#FFE1CC" stroke-width="0.25" stroke-miterlimit="10"/>
<path d="M179.935 67.6562C179.935 67.6562 184.672 98.7524 174.105 128.777C163.539 158.803 141.677 174.886 141.677 174.886" stroke="#FFE1CC" stroke-width="0.25" stroke-miterlimit="10"/>
<path d="M135.652 96.8005C135.652 96.8005 126.8 96.8005 122.741 104.547C118.682 112.294 124.954 127.789 124.954 127.789C124.954 127.789 134.546 105.285 135.652 96.8005Z" fill="#4876FF"/>
<path d="M46.7522 511.004L29.3131 525.63L3.99988 504.817L8.49993 498.067L29.3131 513.817L42.2521 504.817L46.7522 511.004Z" fill="white"/>
<path d="M520.465 86.516V146.184C520.465 150.184 523.705 153.404 527.685 153.404H587.353C591.353 153.404 594.573 150.184 594.573 146.184V86.516C594.573 82.5358 591.353 79.2957 587.353 79.2957H527.685C523.705 79.2935 520.465 82.5336 520.465 86.516Z" fill="#2078D1"/>
<path d="M550.789 128.38H538.648L539.707 139.04L550.249 139.981L550.808 153.402H564.051C564.071 139.281 563.692 112.697 560.811 107.516C556.85 100.415 533.628 103.976 533.628 103.976L533.108 115.818C533.108 115.818 546.83 114.397 548.93 118.179C551.049 121.979 550.789 128.38 550.789 128.38Z" fill="#FAF0FC"/>
</g>
<defs>
<filter id="filter0_d_2493_32768" x="-0.00012207" y="5.92896" width="681.99" height="679.025" filterUnits="userSpaceOnUse" color-interpolation-filters="sRGB">
<feFlood flood-opacity="0" result="BackgroundImageFix"/>
<feColorMatrix in="SourceAlpha" type="matrix" values="0 0 0 0 0 0 0 0 0 0 0 0 0 0 0 0 0 0 127 0" result="hardAlpha"/>
<feOffset dy="4"/>
<feGaussianBlur stdDeviation="2"/>
<feComposite in2="hardAlpha" operator="out"/>
<feColorMatrix type="matrix" values="0 0 0 0 0 0 0 0 0 0 0 0 0 0 0 0 0 0 0.25 0"/>
<feBlend mode="normal" in2="BackgroundImageFix" result="effect1_dropShadow_2493_32768"/>
<feBlend mode="normal" in="SourceGraphic" in2="effect1_dropShadow_2493_32768" result="shape"/>
</filter>
</defs>
</svg>
