<svg width="832" height="714" viewBox="0 0 832 714" fill="none" xmlns="http://www.w3.org/2000/svg">
<path d="M543.351 681.288C543.956 681.288 544.561 681.187 545.167 681.011C594.63 665.532 641.395 639.348 680.416 605.236C682.938 603.014 683.215 599.176 680.996 596.626C678.776 594.101 674.942 593.823 672.395 596.045C634.635 629.046 589.384 654.397 541.535 669.37C538.331 670.38 536.54 673.789 537.549 676.996C538.356 679.622 540.778 681.288 543.351 681.288Z" fill="#DAF5FF" fill-opacity="0.2"/>
<path d="M379.044 92.2111C379.977 92.2111 380.936 91.9838 381.819 91.5293C399.198 82.5657 418.09 70.774 436.352 59.3864C457.54 46.1807 479.434 32.4954 498.907 23.2792C501.959 21.8399 503.245 18.204 501.807 15.174C500.37 12.144 496.737 10.831 493.711 12.2703C473.607 21.8147 451.411 35.6516 429.92 49.0592C411.86 60.3206 393.195 71.986 376.244 80.7224C373.243 82.2627 372.083 85.9491 373.621 88.9286C374.706 90.9991 376.825 92.2111 379.044 92.2111Z" fill="#DAF5FF" fill-opacity="0.33"/>
<path d="M68.9454 574.961C70.3327 574.961 71.6948 574.507 72.8551 573.547C75.4279 571.401 75.781 567.538 73.637 564.963C45.7397 531.481 24.7032 491.612 12.8229 449.672C11.9149 446.44 8.53496 444.546 5.30634 445.481C2.07772 446.39 0.185945 449.773 1.11922 453.005C13.4535 496.586 35.2971 537.996 64.3043 572.765C65.4645 574.229 67.205 574.961 68.9454 574.961Z" fill="#DAF5FF" fill-opacity="0.2"/>
<path d="M782.369 489.087C784.337 489.087 786.279 488.128 787.439 486.36L792.156 479.265C794.023 476.462 793.266 472.675 790.466 470.806C787.666 468.938 783.883 469.695 782.016 472.498L777.274 479.593C775.408 482.396 776.164 486.183 778.964 488.052C780.049 488.759 781.209 489.087 782.369 489.087Z" fill="#DAF5FF" fill-opacity="0.2"/>
<path d="M505.742 694.999C506.02 694.999 506.322 694.974 506.6 694.949L514.873 693.762C518.203 693.282 520.523 690.202 520.044 686.869C519.565 683.536 516.513 681.213 513.158 681.692L504.885 682.879C501.555 683.359 499.235 686.439 499.714 689.772C500.143 692.802 502.766 694.999 505.742 694.999Z" fill="#DAF5FF" fill-opacity="0.2"/>
<path d="M469.849 55.1192C541.332 14.568 615.666 -19.3929 698.526 12.7753C761.812 37.3433 806.558 98.3215 823.181 164.198C839.803 230.075 831.227 300.193 811.527 365.212C791.525 431.29 759.466 494.869 710.734 543.753C598.666 656.114 427.801 698.61 274.593 662.856C200.032 645.459 135.283 612.154 85.6179 552.464C37.9201 495.147 8.73636 422.63 1.67376 348.471C0.816156 339.583 0.286449 330.645 0.0846601 321.732C-0.823389 281.079 5.35639 238.458 29.1675 205.507C71.4422 147.054 143.254 138.671 210.021 135.59C244.224 133.999 278.755 133.696 312.58 127.687C352.912 120.541 387.317 102.69 422.63 82.4394C438.395 73.3748 454.008 64.0828 469.849 55.1192Z" fill="url(#paint0_linear_2487_28867)"/>
<path d="M325.368 332.134L351.071 337.512C351.071 337.512 379.801 512.014 341.638 517.973C303.474 523.906 186.159 362.535 222.204 337.538C254.389 315.217 323.729 445.405 323.729 445.405L325.368 332.134Z" fill="#F2B9B9"/>
<path d="M307.384 413.11C281.656 369.908 242.585 315.495 216.655 331.68C193.575 346.097 222.784 405.232 259.838 453.914C275.602 440.229 290.661 425.66 307.384 413.11Z" fill="#FFD600"/>
<path d="M241.45 427.856C257.113 413.287 273.534 399.501 290.636 386.649C293.789 391.32 296.866 396.067 299.817 400.763C284.607 415.711 268.363 429.548 251.186 442.198C247.856 437.451 244.577 432.654 241.45 427.856Z" fill="#FFF1AC"/>
<path d="M230.73 388.694C234.917 382.912 241.122 379.023 247.1 375.16C254.969 370.085 262.713 364.833 270.331 359.379C274.215 364 278.049 368.923 281.807 374.049C265.563 387.154 248.033 398.642 229.519 408.262C228.56 406.545 227.602 404.854 226.694 403.137C226.063 398.213 227.753 392.835 230.73 388.694Z" fill="#FFF1AC"/>
<path d="M151.376 307.541C119.948 309.788 61.2775 350.617 61.2775 350.617L136.519 609.402L285.54 594.631L245.813 330.619C245.813 330.619 199.301 304.132 151.376 307.541Z" fill="#FFD600"/>
<path d="M120.856 587.208L116.467 569.811L279.159 552.211L281.858 570.164L120.856 587.208Z" fill="#FFF1AC"/>
<path d="M263.949 451.061L267.127 472.22L97.4986 494.44L93.9673 480.502L263.949 451.061Z" fill="#FFF1AC"/>
<path d="M271.995 504.615L274.518 521.28L108.37 537.667L104.864 523.704L271.995 504.615Z" fill="#FFF1AC"/>
<path d="M233.933 329.332C242.509 333.094 247.604 335.998 247.604 335.998L248.588 342.562L67.0033 371.675L63.5728 358.041L233.933 329.332Z" fill="#FFF1AC"/>
<path d="M86.9804 437.754L257.29 406.949L259.888 424.195L90.2342 450.808C89.0739 446.465 88.065 442.097 86.9804 437.754Z" fill="#FFF1AC"/>
<path d="M252.17 366.625L254.566 382.583L76.6891 410.333L73.2335 396.597L252.17 366.625Z" fill="#FFF1AC"/>
<path d="M196.072 185.509C196.072 185.509 206.137 205.305 203.892 225.227C201.647 245.149 184.142 185.307 184.142 185.307L196.072 185.509Z" fill="#12122A"/>
<path d="M179.273 310.445L252.018 614.402L291.191 606.751L290.081 579.203C290.081 579.203 309.579 567.917 306.552 541.051C303.525 514.21 286.751 495.576 286.751 495.576C286.751 495.576 288.391 472.447 282.741 446.996C277.116 421.519 255.323 394.047 255.323 394.047C255.323 394.047 249.37 338.346 248.386 333.094C247.377 327.842 203.261 313.147 203.261 313.147L179.273 310.445Z" fill="#082075"/>
<path d="M174.784 293.679L203.261 296.33V313.147L179.273 310.445L174.784 293.679Z" fill="#082075"/>
<path d="M138.512 318.247L122.571 264.541C122.571 264.541 100.525 274.994 96.6158 256.436C93.1349 239.897 111.17 236.589 120.78 243.482C120.78 243.482 98.558 186.872 148.501 176.596C198.443 166.319 206.641 235.428 208.709 252.168C212.342 281.61 192.768 298.123 177.659 301.304L179.702 313.702C179.702 313.702 183.536 329.407 168.755 331.655C149.056 334.634 138.512 318.247 138.512 318.247Z" fill="#F2B9B9"/>
<path d="M147.845 321.454C147.845 321.454 176.776 437.072 189.237 499.111C201.672 561.124 202.832 615.891 202.832 615.891L119.973 623.138L118.737 602.862C118.737 602.862 97.1707 586.046 93.4376 562.311C89.7045 538.551 100.097 519.387 100.097 519.387C100.097 519.387 86.1984 503.227 83.2977 486.133C80.3969 469.039 86.4759 447.526 86.4759 447.526C86.4759 447.526 153.344 432.199 124.69 390.234C101.459 356.197 73.3091 342.764 73.3091 342.764C73.3091 342.764 70.7111 338.623 78.5304 333.17C86.7786 327.413 115.281 319.181 115.281 319.181L147.845 321.454Z" fill="#082075"/>
<path d="M202 235.251C202 235.251 221.498 219.091 227.451 238.407C233.983 259.642 203.513 256.536 203.513 256.536L202 235.251Z" fill="#F2B9B9"/>
<path d="M180.913 232.373C180.812 235.377 183.183 237.902 186.21 238.003C189.212 238.104 191.734 235.731 191.835 232.701C191.936 229.696 189.565 227.171 186.538 227.07C183.511 226.994 181.014 229.368 180.913 232.373Z" fill="#12122A"/>
<path d="M156.068 235.605C155.967 238.609 158.338 241.134 161.365 241.235C164.366 241.336 166.889 238.963 166.99 235.933C167.09 232.928 164.719 230.403 161.693 230.302C158.691 230.226 156.169 232.6 156.068 235.605Z" fill="#12122A"/>
<path d="M178.012 258.153C178.517 258.153 179.021 258.001 179.526 257.648C183.46 254.744 179.374 238.963 173.749 230.858C173.321 230.226 172.438 230.075 171.807 230.504C171.177 230.933 171.025 231.817 171.454 232.448C177.382 241.008 179.299 253.911 177.861 255.426C177.836 255.35 177.003 255.097 175.187 252.8C174.708 252.194 173.825 252.093 173.245 252.572C172.64 253.052 172.539 253.936 173.018 254.517C173.8 255.476 175.893 258.153 178.012 258.153Z" fill="#12122A"/>
<path d="M173.472 264.314C177.937 264.314 182.401 262.799 185.907 260.046C186.513 259.567 186.614 258.708 186.134 258.102C185.655 257.496 184.797 257.395 184.192 257.875C180.888 260.476 176.625 261.789 172.413 261.536C168.226 261.258 164.139 259.39 161.213 256.385C160.684 255.83 159.801 255.83 159.246 256.36C158.691 256.89 158.691 257.774 159.221 258.329C162.626 261.814 167.368 264.011 172.236 264.314C172.64 264.288 173.068 264.314 173.472 264.314Z" fill="#12122A"/>
<path d="M207.953 252.85C208.735 252.85 209.34 252.219 209.34 251.436C209.289 246.639 208.76 241.816 207.776 237.12C207.625 236.362 206.868 235.882 206.137 236.034C205.38 236.185 204.901 236.943 205.077 237.675C206.036 242.195 206.54 246.815 206.591 251.436C206.565 252.244 207.196 252.85 207.953 252.85Z" fill="#12122A"/>
<path d="M208.18 244.846C208.306 244.846 208.407 244.821 208.533 244.795L215.595 242.927C216.327 242.725 216.781 241.967 216.579 241.235C216.377 240.503 215.621 240.048 214.889 240.25L207.827 242.119C207.095 242.321 206.641 243.078 206.843 243.811C206.994 244.442 207.574 244.846 208.18 244.846Z" fill="#12122A"/>
<path d="M117.879 257.193C117.98 257.193 118.056 257.193 118.157 257.168C118.913 257.016 119.393 256.284 119.241 255.527C118.585 252.168 116.24 249.239 113.112 247.851C110.009 246.462 106.251 246.689 103.325 248.406C102.669 248.81 102.442 249.643 102.846 250.325C103.25 250.982 104.082 251.209 104.763 250.805C106.932 249.517 109.707 249.366 112.002 250.376C114.297 251.411 116.038 253.582 116.517 256.057C116.669 256.739 117.249 257.193 117.879 257.193Z" fill="#12122A"/>
<path d="M110.842 256.208C111.321 256.208 111.775 255.956 112.027 255.527L114.777 250.931C115.18 250.275 114.953 249.416 114.298 249.012C113.642 248.608 112.784 248.835 112.38 249.492L109.606 254.113C109.202 254.769 109.429 255.628 110.085 256.032C110.363 256.133 110.615 256.208 110.842 256.208Z" fill="#12122A"/>
<path d="M144.314 219.394C144.616 219.394 144.919 219.293 145.171 219.091C149.484 215.632 155.866 214.672 161.012 216.718C161.718 216.995 162.525 216.642 162.828 215.935C163.105 215.228 162.752 214.42 162.046 214.117C155.916 211.693 148.602 212.779 143.456 216.894C142.851 217.374 142.75 218.258 143.229 218.839C143.506 219.217 143.91 219.394 144.314 219.394Z" fill="#12122A"/>
<path d="M176.877 216.92C177.281 216.92 177.684 216.743 177.937 216.415C181.317 212.324 188.051 211.491 192.339 214.647C192.945 215.102 193.827 214.976 194.281 214.344C194.735 213.713 194.609 212.855 193.979 212.4C188.556 208.411 180.055 209.471 175.767 214.647C175.288 215.228 175.364 216.112 175.944 216.617C176.272 216.819 176.575 216.92 176.877 216.92Z" fill="#12122A"/>
<path d="M177.659 301.279C167.797 304.057 147.265 297.037 147.265 297.037C147.265 297.037 160.885 310.066 179.273 310.445L177.659 301.279Z" fill="#DEA5A5"/>
<path d="M153.722 256.006C152.915 260.273 148.803 263.076 144.541 262.268C140.278 261.46 137.478 257.344 138.285 253.077C139.092 248.81 143.204 246.007 147.466 246.815C151.729 247.623 154.529 251.739 153.722 256.006Z" fill="#DEA5A5"/>
<path d="M204.295 248.154C203.488 252.421 199.377 255.224 195.114 254.416C190.851 253.608 188.051 249.492 188.858 245.225C189.666 240.957 193.777 238.155 198.04 238.963C202.303 239.771 205.102 243.886 204.295 248.154Z" fill="#DEA5A5"/>
<path d="M311.041 299.815C311.041 299.815 318.003 290.195 323.729 287.998C329.455 285.801 357.478 302.315 359.673 307.263C361.867 312.212 351.097 337.538 351.097 337.538L325.848 335.038C325.848 335.038 316.919 332.362 316.616 326.403C316.313 320.444 311.041 299.815 311.041 299.815Z" fill="#F2B9B9"/>
<path d="M138.689 204.775C152.814 210.658 169.31 210.506 183.36 204.421C189.514 201.745 195.265 197.907 199.402 192.655C205.38 185.08 207.625 175.081 207.246 165.435C206.742 152.533 201.193 139.176 190.271 132.282C180.888 126.349 168.2 126.046 158.565 131.575C148.929 137.105 142.75 148.19 143.103 159.3C130.844 166.344 119.367 174.298 107.739 182.353C103.729 185.13 99.6426 188.084 97.0698 192.2C94.4718 196.341 93.715 201.997 96.4896 206.012C93.5132 206.997 91.344 210.834 90.9404 213.965C90.5621 217.096 91.4701 220.227 92.6808 223.131C95.4807 229.797 100.702 235.907 106.352 240.402C106.352 240.402 118.964 241.892 125.673 252.901C130.037 260.072 133.039 258.077 130.743 245.629C128.397 233.004 127.187 226.262 127.187 226.262C127.187 226.262 133.039 222.904 135.611 218.157C138.941 212.097 138.689 204.775 138.689 204.775Z" fill="#12122A"/>
<path d="M147.845 321.454L138.89 297.037L114.247 297.946L115.281 319.131L147.845 321.454Z" fill="#082075"/>
<path d="M335.508 276.736C335.508 276.736 345.825 335.72 344.16 340.669C342.495 345.618 280.294 350.163 275.829 346.956C271.365 343.749 267.909 280.221 267.909 280.221C267.909 280.221 293.41 267.318 335.508 276.736Z" fill="#FFE54C"/>
<path d="M329.102 303.981C328.648 313.576 320.778 322.262 311.294 323.676C298.152 325.62 285.036 315.722 285.389 301.986C285.742 288.528 297.572 280.877 310.058 282.872C320.778 284.564 329.631 292.593 329.102 303.981Z" fill="#FDF4C8"/>
<path d="M330.892 298.805C330.892 298.855 330.918 298.906 330.918 298.956C331.649 303.249 331.17 307.945 328.698 311.531C321.938 321.353 305.391 320.216 297.9 312.086C292.502 306.228 291.392 296.583 295.882 289.992C300.12 283.806 308.519 281.913 315.556 283.175C323.754 284.665 329.455 290.624 330.892 298.805Z" fill="#FFA935"/>
<path d="M336.997 298.148C336.997 298.199 337.022 298.249 337.022 298.3C337.753 302.592 337.274 307.289 334.802 310.874C328.042 320.696 311.495 319.56 304.004 311.43C298.606 305.572 297.496 295.926 301.986 289.336C306.224 283.15 314.623 281.256 321.661 282.519C329.833 284.034 335.559 289.992 336.997 298.148Z" fill="#FFC64C"/>
<path d="M329.455 298.906C329.455 298.931 329.455 298.956 329.48 299.007C329.909 301.582 329.631 304.36 328.168 306.531C324.132 312.389 314.245 311.707 309.78 306.859C306.552 303.35 305.896 297.593 308.57 293.654C311.092 289.967 316.111 288.831 320.324 289.588C325.167 290.472 328.597 294.032 329.455 298.906Z" fill="#FDF4C8"/>
<path d="M317.574 296.103C317.827 297.593 317.423 299.133 316.767 300.496C315.91 302.289 314.27 304.107 312.303 303.829C310.461 303.577 309.326 301.557 309.301 299.714C309.276 295.749 316.465 289.765 317.574 296.103Z" fill="white"/>
<path d="M337.198 333.7C333.642 337.26 283.144 340.744 278.957 338.472C275.047 336.351 342.495 328.397 337.198 333.7Z" fill="#FFB635"/>
<path d="M319.088 391.774C305.871 374.175 286.549 337.891 286.549 337.891L333.238 333.473C333.238 333.473 352.534 369.731 365.777 387.356L319.088 391.774Z" fill="white"/>
<path d="M241.878 322.691L267.909 335.846C267.909 335.846 221.372 522.619 183.208 528.578C145.045 534.511 30.7822 381.498 66.8267 356.5C99.012 334.18 174.355 470.503 174.355 470.503L241.878 322.691Z" fill="#F2B9B9"/>
<path d="M241.878 322.691C241.878 322.691 239.886 304.764 243.442 298.174C247.024 291.583 276.737 285.397 280.975 287.796C285.213 290.195 286.751 299.31 286.751 299.31C286.751 299.31 274.24 308.728 271.768 312.667C269.296 316.606 270.608 325.418 267.934 335.846C265.235 346.3 241.878 322.691 241.878 322.691Z" fill="#F2B9B9"/>
<path d="M153.848 436.365C126.96 383.846 87.1821 334.457 61.2523 350.642C38.1727 365.06 67.3816 424.195 104.435 472.877C120.2 459.166 137.125 448.914 153.848 436.365Z" fill="#FFD600"/>
<path d="M785.749 231.64C785.749 237.145 790.214 241.614 795.713 241.614C801.211 241.614 805.676 237.145 805.676 231.64C805.676 226.136 801.211 221.667 795.713 221.667C790.214 221.667 785.749 226.136 785.749 231.64Z" fill="#C2EEFF"/>
<path d="M545.192 462.448H618.189C621.67 462.448 624.495 465.276 624.495 468.761V514.236C624.495 517.72 621.67 520.548 618.189 520.548H591.402L581.691 530.269L571.979 520.548H545.192C541.711 520.548 538.886 517.72 538.886 514.236V468.761C538.886 465.276 541.711 462.448 545.192 462.448Z" fill="white"/>
<path d="M581.691 507.772L585.424 506.131C598.893 500.222 599.902 488.633 599.978 487.32C600.255 482.169 596.32 477.775 591.175 477.497C586.735 477.27 582.851 480.149 581.691 484.264C580.53 480.149 576.646 477.245 572.206 477.497C567.061 477.775 563.126 482.169 563.403 487.32C563.479 488.633 564.488 500.222 577.957 506.131L581.691 507.772Z" fill="#D476D8"/>
<path d="M420.209 434.977C440.136 434.977 461.172 431.063 479.005 423.716C479.258 423.615 479.459 423.413 479.611 423.185C492.197 399.728 499.613 373.292 501.076 346.704C501.101 346.224 500.849 345.795 500.42 345.567C499.991 345.365 499.487 345.416 499.134 345.719C476.685 364.833 449.822 378.746 421.445 385.992C421.092 386.093 420.789 386.346 420.638 386.674C413.071 404.753 402.401 420.711 394.784 430.886C394.531 431.215 394.481 431.644 394.632 432.023C394.784 432.401 395.112 432.679 395.515 432.755C403.309 434.245 411.658 434.977 420.209 434.977ZM477.719 421.67C453.302 431.644 422.933 435.078 397.811 430.785C405.327 420.559 415.316 405.334 422.58 388.139C450.225 381.018 476.407 367.611 498.528 349.304C496.737 374.478 489.574 399.425 477.719 421.67Z" fill="white"/>
<path d="M398.92 459.217C380.659 456.818 362.952 447.046 350.264 433.715C359.319 427.023 368.122 418.918 374.327 409.5C390.647 417.327 409.035 420.787 427.07 419.448C418.746 433.891 411.557 448.385 398.92 459.217Z" fill="white"/>
<path d="M770.918 163.592H512.023V348.597H770.918V163.592Z" fill="white"/>
<path d="M764.314 341.984V170.235H518.662V341.984H764.314Z" fill="#00DDD1"/>
<path d="M764.309 280.196H518.657V341.957H764.309V280.196Z" fill="#A6F3EF"/>
<path d="M600.306 260.728C616.284 260.728 629.237 247.762 629.237 231.767C629.237 215.772 616.284 202.805 600.306 202.805C584.327 202.805 571.374 215.772 571.374 231.767C571.374 247.762 584.327 260.728 600.306 260.728Z" fill="white"/>
<path d="M731.544 299.663C722.842 279.337 714.442 258.683 707.279 237.751C707.607 237.726 707.909 237.675 708.237 237.599C710.129 237.094 711.642 235.529 712.273 233.686C721.58 239.645 728.971 248.608 732.881 258.961C732.755 253.557 732.906 248.533 731.418 243.356C729.93 238.155 726.903 233.206 722.236 230.479C719.84 229.09 716.939 228.232 714.14 228.206C714.619 226.616 714.568 224.773 713.887 223.384C713.332 222.222 712.273 221.414 711.012 220.96C719.285 214.041 727.811 207.325 735.403 199.699C728.668 200.28 722.11 203.032 717.015 207.476C712.979 210.986 709.852 215.506 707.96 220.48C707.632 220.505 707.329 220.531 707.026 220.581C706.295 219.571 705.261 218.788 704.075 218.41C703.546 213.814 701.149 209.446 697.568 206.214C692.397 201.543 685.334 199.851 678.852 202.376C687.831 204.775 695.726 210.809 700.62 218.713C700.04 219.016 699.56 219.445 699.182 219.975C698.324 221.263 698.4 223.485 699.434 224.596H699.409C695.903 221.061 690.328 219.344 685.46 220.228C679.634 221.288 674.639 225.303 671.436 230.277C668.233 235.251 666.845 242.119 666.063 247.977C671.789 236.539 683.669 228.509 696.332 227.095C695.852 228.03 695.651 229.115 695.878 230.151C695.979 230.63 696.18 231.085 696.458 231.514C694.818 232.852 693.507 234.595 692.472 236.463C687.276 245.705 689.294 257.572 696.433 265.425C694.894 254.719 696.71 243.558 701.503 233.862C701.982 235.175 702.915 236.261 704.075 236.943C707.556 258.708 713.383 280.12 721.379 300.673C640.461 309.915 585.222 341.957 585.222 341.957H764.309V298.199C753.034 298.199 742.087 298.729 731.544 299.663Z" fill="#082075"/>
<path d="M594.378 369.277H512.023V429.75H594.378V369.277Z" fill="white"/>
<path d="M589.406 424.766V374.241H516.989V424.766H589.406Z" fill="#C2EEFF"/>
<path d="M516.992 408.843C516.992 408.843 524.458 392.229 531.723 392.229C540.778 392.229 553.743 415.636 556.77 415.636C559.368 415.636 574.804 384.78 589.384 384.78V424.776H516.992V408.843Z" fill="#082075"/>
<path d="M561.032 391.168C561.032 394.224 558.56 396.698 555.508 396.698C552.456 396.698 549.984 394.224 549.984 391.168C549.984 388.113 552.456 385.639 555.508 385.639C558.56 385.639 561.032 388.113 561.032 391.168Z" fill="white"/>
<path d="M682.661 369.277H600.306V429.75H682.661V369.277Z" fill="white"/>
<path d="M677.686 424.767V374.242H605.27V424.767H677.686Z" fill="#FCF0B5"/>
<path d="M605.275 407.985C622.704 397.127 635.871 417.554 649.491 415.635C663.112 413.717 670.805 404.778 677.691 404.778V424.751H605.275V407.985Z" fill="#F8DC56"/>
<path d="M677.691 404.803C673.126 404.803 668.207 408.717 661.447 411.924H661.422C658.849 413.136 655.999 414.247 652.821 415.004C634.534 420.509 605.275 424.751 605.275 424.751H677.691V404.803Z" fill="#FFC64C"/>
<path d="M650.425 397.355C650.425 400.991 647.474 403.92 643.867 403.92C640.234 403.92 637.309 400.965 637.309 397.355C637.309 393.744 640.26 390.79 643.867 390.79C647.474 390.764 650.425 393.719 650.425 397.355Z" fill="#FFC64C"/>
<path d="M770.943 369.277H688.588V429.75H770.943V369.277Z" fill="white"/>
<path d="M765.967 424.769V374.244H693.55V424.769H765.967Z" fill="#F1D3F3"/>
<path d="M715.981 391.168C715.981 394.804 713.03 397.733 709.423 397.733C705.791 397.733 702.865 394.779 702.865 391.168C702.865 387.532 705.816 384.604 709.423 384.604C713.03 384.604 715.981 387.532 715.981 391.168Z" fill="white"/>
<path d="M693.557 399.046C695.852 399.046 706.976 408.97 706.976 408.97L693.557 416.519V399.046Z" fill="#E19FE4"/>
<path d="M765.974 399.046C763.679 399.046 752.555 408.97 752.555 408.97L765.974 416.519V399.046Z" fill="#E19FE4"/>
<path d="M693.557 416.494C693.557 416.494 725.213 395.107 727.962 395.107C730.711 395.107 765.974 416.494 765.974 416.494V424.776H693.557V416.494Z" fill="#D476D8"/>
<path d="M708.162 593.874C739.171 593.874 764.309 568.709 764.309 537.668C764.309 506.626 739.171 481.462 708.162 481.462C677.152 481.462 652.014 506.626 652.014 537.668C652.014 568.709 677.152 593.874 708.162 593.874Z" fill="#F8DC56"/>
<path d="M724.834 562.084C721.757 565.417 717.419 567.639 712.55 568.447V572.538C712.55 574.861 710.81 576.628 708.54 576.628C706.219 576.628 704.403 574.835 704.403 572.538V568.523C700.393 567.942 696.836 566.604 693.809 564.433C690.783 562.261 688.563 559.761 687.251 556.908C686.822 556.05 686.621 555.166 686.621 554.358C686.621 553.878 686.722 553.348 686.873 552.818C687.201 551.808 687.983 550.974 689.143 550.318C689.925 549.889 690.631 549.687 691.262 549.687C692.649 549.687 694.162 550.646 695.701 552.59C698.4 556.883 702.89 559.256 708.616 559.256C711.516 559.256 714.392 558.474 716.511 556.933C718.781 555.393 720.168 553.121 720.168 550.368C720.168 547.717 718.907 545.697 716.46 544.283C714.77 543.324 712.904 542.743 709.952 542.011L708.691 541.682C702.284 540.47 697.416 538.501 694.036 535.85C690.026 532.719 688.058 528.704 688.058 523.831C688.058 519.336 689.849 515.347 692.876 512.216C695.777 509.186 699.913 507.166 704.378 506.383V502.773C704.378 501.662 704.807 500.652 705.639 499.844C706.421 499.061 707.38 498.682 708.59 498.682C709.7 498.682 710.608 499.061 711.39 499.844C712.172 500.652 712.55 501.687 712.55 502.773V506.383C718.755 507.343 723.876 510.373 726.701 515.069C727.029 515.65 727.231 516.281 727.231 516.912C727.231 517.165 727.18 517.443 727.13 517.821C726.877 518.68 726.449 519.463 725.818 520.094C725.087 520.826 723.901 521.255 722.69 521.255C721.53 521.255 720.572 520.978 719.84 520.397C717.873 518.655 716.183 517.468 714.795 516.837C713.004 516.054 710.886 515.675 708.439 515.675C705.538 515.675 702.839 516.458 700.922 517.847C698.854 519.235 697.694 521.306 697.694 523.78C697.694 526.533 699.182 528.3 701.881 529.664C704.151 530.775 706.85 531.507 711.668 532.517C716.813 533.88 721 535.547 724.103 538.072C727.811 541.051 729.703 545.015 729.703 549.889C729.703 554.509 727.912 558.802 724.834 562.084Z" fill="#D476D8"/>
<path d="M414.832 697.561C443.739 688.852 460.121 658.333 451.421 629.395C442.721 600.458 412.234 584.059 383.326 592.768C354.418 601.477 338.037 631.996 346.737 660.934C355.437 689.871 385.924 706.27 414.832 697.561Z" fill="#FF8400"/>
<path d="M424.104 643.343C423.574 642.99 423.019 642.687 422.388 642.308C422.767 641.98 423.044 641.702 423.347 641.475C425.264 639.934 425.869 638.419 425.289 636.652C424.658 634.758 423.12 633.824 420.623 633.824C415.553 633.824 410.483 633.799 405.413 633.849C404.505 633.849 404.227 633.698 404.429 632.713C404.934 630.011 405.337 627.284 405.665 624.532C406.144 620.568 405.186 617.008 402.487 613.978C401.579 612.942 400.444 612.311 398.956 612.513C398.073 612.614 397.669 612.942 397.77 613.927C397.997 616.023 398.073 618.144 398.275 620.265C398.502 622.335 398.123 624.229 397.114 626.098C394.945 630.112 392.826 634.177 390.758 638.268C390.001 639.732 389.245 641.121 387.857 642.106C387.328 642.459 387.151 642.939 387.151 643.621C387.176 650.161 387.176 656.725 387.176 663.265C387.176 663.644 387.075 664.023 387.504 664.326C389.648 665.866 391.817 667.103 394.642 667.053C401.428 666.926 408.238 666.851 415.023 667.078C418.655 667.204 420.925 663.72 419.008 660.69C418.403 659.73 418.605 659.427 419.715 659.25C423.221 658.67 424.532 655.513 422.54 652.66C421.606 651.297 421.581 651.297 423.221 650.716C424.885 650.135 425.844 648.974 426.021 647.257C426.197 645.59 425.466 644.277 424.104 643.343Z" fill="white"/>
<path d="M387.126 654.074C387.126 649.656 387.101 645.212 387.151 640.793C387.151 639.783 386.874 639.429 385.839 639.455C381.652 639.505 377.49 639.505 373.303 639.455C372.32 639.455 372.042 639.758 372.042 640.717C372.067 649.63 372.067 658.518 372.042 667.431C372.042 668.441 372.294 668.795 373.354 668.795C377.49 668.744 381.602 668.744 385.738 668.795C386.848 668.82 387.151 668.467 387.151 667.381C387.101 662.937 387.126 658.493 387.126 654.074Z" fill="white"/>
<path d="M769.43 120.465C745.483 120.465 726.07 101.033 726.07 77.0611C726.07 53.0895 745.483 33.6567 769.43 33.6567C793.376 33.6567 812.789 53.0895 812.789 77.0611C812.789 101.033 793.376 120.465 769.43 120.465Z" fill="#F8DC56"/>
<path d="M767.437 51.1801L761.03 64.1838C760.702 64.8403 760.097 65.2948 759.365 65.3958L745.038 67.4915C743.222 67.744 742.491 69.9912 743.802 71.279L754.169 81.4041C754.699 81.9091 754.926 82.6414 754.8 83.3736L752.353 97.665C752.051 99.483 753.942 100.846 755.557 99.9879L768.37 93.2463C769.026 92.918 769.783 92.918 770.439 93.2463L783.252 99.9879C784.866 100.846 786.783 99.4577 786.456 97.665L784.009 83.3736C783.883 82.6666 784.135 81.9344 784.639 81.4041L795.006 71.279C796.318 69.9912 795.587 67.7692 793.77 67.4915L779.443 65.3958C778.712 65.2948 778.107 64.8403 777.779 64.1838L771.372 51.1801C770.59 49.5389 768.244 49.5389 767.437 51.1801Z" fill="white"/>
<path d="M433.956 126.114L478.164 126.131C484.147 126.131 488.984 121.236 488.984 115.18C488.984 109.125 484.147 104.229 478.164 104.229C477.507 104.229 476.866 104.298 476.243 104.4C475.889 93.0737 466.72 83.999 455.445 83.999C446.698 83.999 439.231 89.4574 436.147 97.1845C435.557 97.1163 434.95 97.0651 434.344 97.0651C426.405 97.0651 419.984 103.581 419.984 111.598C419.984 119.479 426.203 125.892 433.956 126.114ZM445.434 143.752L454.484 134.592L463.535 143.752H459.658V163.999H449.394V143.752H445.434Z" fill="white"/>
<path d="M229.746 14.9217C229.822 14.7449 229.897 14.5934 229.998 14.4419C230.099 14.2904 230.2 14.1642 230.326 14.0379C230.452 13.9117 230.604 13.7854 230.73 13.6844C230.881 13.5834 231.058 13.5077 231.209 13.4319C231.36 13.3562 231.537 13.3057 231.713 13.2804C232.066 13.2047 232.42 13.2047 232.773 13.2804C232.949 13.3057 233.126 13.3562 233.277 13.4319C233.454 13.5077 233.605 13.5834 233.756 13.6844C233.883 13.7854 234.034 13.9117 234.16 14.0379C234.286 14.1642 234.387 14.2904 234.488 14.4419C234.589 14.5934 234.665 14.7449 234.74 14.9217C234.816 15.0984 234.866 15.2499 234.917 15.4267C234.942 15.6034 234.967 15.7802 234.967 15.9569C234.967 16.1084 234.942 16.3104 234.917 16.4872C234.866 16.6639 234.816 16.8407 234.74 16.9922C234.665 17.1689 234.589 17.3204 234.488 17.4719C234.387 17.6234 234.286 17.7497 234.135 17.8759C233.63 18.3809 232.949 18.6839 232.218 18.6839C231.512 18.6839 230.805 18.3809 230.301 17.8759C230.175 17.7497 230.074 17.6234 229.973 17.4719C229.872 17.3204 229.796 17.1689 229.721 16.9922C229.645 16.8154 229.595 16.6387 229.569 16.4872C229.519 16.3104 229.519 16.1337 229.519 15.9569C229.519 15.7802 229.544 15.6034 229.569 15.4267C229.62 15.2752 229.67 15.0984 229.746 14.9217Z" fill="#C2EEFF" fill-opacity="0.3"/>
<path d="M204.371 14.9216C204.447 14.7448 204.522 14.5933 204.623 14.4418C204.724 14.2903 204.825 14.1641 204.951 14.0378C205.077 13.9116 205.229 13.7853 205.355 13.6843C205.506 13.5833 205.682 13.5076 205.834 13.4318C205.985 13.3561 206.162 13.3056 206.338 13.2803C207.221 13.1036 208.18 13.3813 208.81 14.0126C208.936 14.1388 209.037 14.2651 209.138 14.4166C209.239 14.5681 209.315 14.7196 209.39 14.8963C209.466 15.0731 209.516 15.2246 209.542 15.4013C209.592 15.5781 209.592 15.7548 209.592 15.9316C209.592 16.0831 209.567 16.2851 209.542 16.4618C209.516 16.6386 209.466 16.8153 209.39 16.9668C209.315 17.1436 209.239 17.2951 209.138 17.4466C209.037 17.5981 208.936 17.7243 208.81 17.8506C208.306 18.3556 207.599 18.6585 206.893 18.6585C206.187 18.6585 205.481 18.3556 204.976 17.8506C204.85 17.7243 204.724 17.5981 204.623 17.4466C204.522 17.2951 204.447 17.1436 204.371 16.9668C204.295 16.7901 204.245 16.6133 204.22 16.4618C204.169 16.2851 204.169 16.1083 204.169 15.9316C204.169 15.7548 204.194 15.5781 204.22 15.4013C204.245 15.2751 204.295 15.0983 204.371 14.9216Z" fill="#C2EEFF" fill-opacity="0.3"/>
<path d="M178.971 14.9217C179.046 14.745 179.122 14.5935 179.223 14.442C179.324 14.2905 179.425 14.1642 179.576 14.038C180.207 13.4067 181.14 13.1037 182.023 13.3057C182.199 13.331 182.376 13.3815 182.527 13.4572C182.704 13.533 182.855 13.6087 183.006 13.7097C183.158 13.8107 183.284 13.937 183.41 14.0632C183.536 14.1895 183.637 14.3157 183.738 14.4672C183.839 14.6187 183.915 14.7702 183.99 14.947C184.066 15.1237 184.116 15.2752 184.142 15.452C184.192 15.6287 184.192 15.8055 184.192 15.9822C184.192 16.1337 184.167 16.3357 184.142 16.5125C184.116 16.6892 184.066 16.866 183.99 17.0175C183.915 17.1942 183.839 17.3457 183.738 17.4972C183.637 17.6487 183.536 17.775 183.41 17.9012C182.906 18.4062 182.199 18.7092 181.493 18.7092C180.787 18.7092 180.081 18.4062 179.576 17.9012C179.45 17.775 179.324 17.6487 179.223 17.4972C179.122 17.3457 179.046 17.1942 178.971 17.0175C178.895 16.8407 178.845 16.664 178.819 16.5125C178.769 16.3357 178.769 16.159 178.769 15.9822C178.769 15.8055 178.794 15.6287 178.819 15.452C178.845 15.2752 178.92 15.0985 178.971 14.9217Z" fill="#C2EEFF" fill-opacity="0.3"/>
<path d="M153.596 14.9217C153.671 14.7449 153.747 14.5934 153.848 14.4419C153.949 14.2904 154.05 14.1642 154.201 14.0379C154.327 13.9117 154.453 13.7854 154.605 13.6844C154.731 13.5834 154.907 13.5077 155.084 13.4319C155.261 13.3562 155.412 13.3057 155.588 13.2804C155.942 13.2047 156.295 13.2047 156.648 13.2804C156.824 13.3057 157.001 13.3562 157.152 13.4319C157.329 13.5077 157.48 13.5834 157.632 13.6844C157.783 13.7854 157.909 13.9117 158.035 14.0379C158.161 14.1642 158.262 14.2904 158.363 14.4419C158.464 14.5934 158.565 14.7449 158.615 14.9217C158.691 15.0984 158.741 15.2499 158.792 15.4267C158.817 15.6034 158.842 15.7802 158.842 15.9569C158.842 16.1084 158.817 16.3104 158.792 16.4872C158.741 16.6639 158.691 16.8407 158.615 16.9922C158.54 17.1689 158.464 17.3204 158.363 17.4719C158.262 17.6234 158.161 17.7497 158.035 17.8759C157.531 18.3809 156.824 18.6839 156.118 18.6839C155.412 18.6839 154.706 18.3809 154.201 17.8759C154.075 17.7497 153.949 17.6234 153.848 17.4719C153.747 17.3204 153.671 17.1689 153.596 16.9922C153.52 16.8154 153.47 16.6387 153.444 16.4872C153.394 16.3104 153.394 16.1337 153.394 15.9569C153.394 15.7802 153.419 15.6034 153.444 15.4267C153.47 15.2752 153.52 15.0984 153.596 14.9217Z" fill="#C2EEFF" fill-opacity="0.3"/>
<path d="M128.221 14.9217C128.297 14.745 128.372 14.5935 128.473 14.442C128.574 14.2905 128.7 14.1642 128.826 14.038C129.457 13.4067 130.39 13.1037 131.273 13.3057C131.45 13.331 131.626 13.3815 131.777 13.4572C131.954 13.533 132.105 13.6087 132.257 13.7097C132.408 13.8107 132.534 13.937 132.66 14.0632C132.786 14.1895 132.887 14.3157 132.988 14.4672C133.089 14.6187 133.165 14.7702 133.24 14.947C133.316 15.1237 133.366 15.2752 133.417 15.452C133.442 15.6287 133.467 15.8055 133.467 15.9822C133.467 16.1337 133.442 16.3357 133.417 16.5125C133.366 16.6892 133.316 16.866 133.24 17.0175C133.165 17.1942 133.089 17.3457 132.988 17.4972C132.887 17.6487 132.786 17.775 132.66 17.9012C132.156 18.4062 131.449 18.7092 130.743 18.7092C130.037 18.7092 129.331 18.4062 128.826 17.9012C128.7 17.775 128.574 17.6487 128.473 17.4972C128.372 17.3457 128.297 17.1942 128.221 17.0175C128.145 16.8407 128.095 16.664 128.07 16.5125C128.019 16.3357 128.019 16.159 128.019 15.9822C128.019 15.8055 128.044 15.6287 128.07 15.452C128.095 15.2752 128.145 15.0985 128.221 14.9217Z" fill="#C2EEFF" fill-opacity="0.3"/>
<path d="M107.865 17.0175C107.79 17.1942 107.714 17.3457 107.613 17.4972C107.512 17.6487 107.411 17.7749 107.285 17.9012C106.781 18.4062 106.075 18.7092 105.368 18.7092C105.192 18.7092 105.015 18.6839 104.839 18.6587C104.662 18.6082 104.485 18.5577 104.334 18.4819C104.158 18.4314 104.006 18.3304 103.855 18.2294C103.704 18.1284 103.577 18.0274 103.451 17.9012C103.325 17.7749 103.199 17.6487 103.098 17.4972C102.997 17.3457 102.922 17.1942 102.846 17.0175C102.77 16.8407 102.72 16.664 102.695 16.5125C102.644 16.3357 102.644 16.159 102.644 15.9822C102.644 15.8055 102.669 15.6287 102.695 15.452C102.72 15.2752 102.77 15.0985 102.846 14.947C102.922 14.7702 102.997 14.6187 103.098 14.4672C103.199 14.3157 103.325 14.1895 103.451 14.0632C103.577 13.937 103.704 13.8107 103.855 13.7097C103.981 13.6087 104.158 13.533 104.334 13.4572C104.511 13.3815 104.662 13.331 104.839 13.3057C105.721 13.129 106.655 13.4067 107.285 14.038C107.411 14.1642 107.512 14.2905 107.613 14.442C107.714 14.5935 107.815 14.745 107.865 14.9217C107.941 15.0985 107.966 15.25 108.017 15.4267C108.042 15.6287 108.067 15.8055 108.067 15.9822C108.067 16.1337 108.042 16.3357 108.017 16.5125C107.966 16.664 107.941 16.8407 107.865 17.0175Z" fill="#C2EEFF" fill-opacity="0.3"/>
<path d="M229.746 40.3483C229.821 40.1715 229.897 40.02 229.998 39.8685C230.099 39.717 230.2 39.5908 230.326 39.4645C231.335 38.4545 233.151 38.4545 234.16 39.4645C234.286 39.5908 234.412 39.717 234.513 39.8685C234.614 40.02 234.69 40.1715 234.765 40.3483C234.841 40.525 234.891 40.6765 234.917 40.8533C234.967 41.03 234.967 41.2068 234.967 41.3835C234.967 42.0905 234.69 42.7975 234.16 43.3025C234.034 43.4287 233.908 43.5297 233.756 43.6307C233.63 43.7317 233.454 43.8075 233.277 43.8832C233.101 43.959 232.949 44.0095 232.773 44.06C232.596 44.0852 232.419 44.1105 232.243 44.1105C232.066 44.1105 231.89 44.0852 231.713 44.06C231.537 44.0095 231.36 43.959 231.209 43.8832C231.057 43.8075 230.881 43.7317 230.73 43.6307C230.603 43.5297 230.452 43.4287 230.326 43.3025C230.2 43.1762 230.099 43.05 229.998 42.8985C229.897 42.747 229.821 42.5955 229.746 42.4187C229.67 42.242 229.62 42.0653 229.569 41.9138C229.544 41.737 229.519 41.5603 229.519 41.3835C229.519 41.2068 229.544 41.03 229.569 40.8533C229.62 40.6765 229.67 40.4998 229.746 40.3483Z" fill="#C2EEFF" fill-opacity="0.3"/>
<path d="M204.371 40.3481C204.447 40.1713 204.522 40.0198 204.623 39.8683C204.724 39.7169 204.825 39.5906 204.951 39.4644C205.077 39.3381 205.228 39.2119 205.355 39.1109C205.506 39.0099 205.682 38.9341 205.834 38.8584C205.985 38.7826 206.162 38.7321 206.338 38.7069C207.221 38.5301 208.18 38.8079 208.81 39.4391C208.936 39.5654 209.037 39.6916 209.138 39.8431C209.239 39.9946 209.315 40.1461 209.39 40.3228C209.466 40.4996 209.517 40.6511 209.567 40.8278C209.592 41.0046 209.617 41.1813 209.617 41.3581C209.617 41.5348 209.592 41.7116 209.567 41.8883C209.517 42.0398 209.466 42.2418 209.39 42.3933C209.315 42.5701 209.239 42.7216 209.138 42.8731C209.037 43.0246 208.936 43.1508 208.81 43.2771C208.684 43.4033 208.533 43.5043 208.407 43.6053C208.255 43.7063 208.079 43.7821 207.927 43.8578C207.751 43.9336 207.574 43.9841 207.423 44.0346C207.246 44.0598 207.07 44.0851 206.893 44.0851C206.717 44.0851 206.54 44.0598 206.364 44.0346C206.187 43.9841 206.01 43.9336 205.859 43.8578C205.683 43.7821 205.531 43.7063 205.38 43.6053C205.228 43.5043 205.102 43.4033 204.976 43.2771C204.472 42.7721 204.169 42.0651 204.169 41.3581C204.169 41.1813 204.194 41.0046 204.22 40.8278C204.245 40.6763 204.295 40.4996 204.371 40.3481Z" fill="#C2EEFF" fill-opacity="0.3"/>
<path d="M178.971 40.3482C179.046 40.1715 179.122 40.02 179.223 39.8685C179.324 39.717 179.425 39.5908 179.551 39.4645C180.181 38.8333 181.14 38.5303 182.023 38.7323C182.199 38.7575 182.376 38.808 182.527 38.8838C182.679 38.9595 182.855 39.0353 183.006 39.1363C183.158 39.2373 183.284 39.3635 183.41 39.4898C183.536 39.616 183.637 39.7423 183.738 39.8937C183.839 40.0452 183.915 40.1967 183.99 40.3735C184.066 40.5502 184.116 40.7017 184.142 40.8785C184.192 41.0552 184.192 41.232 184.192 41.4087C184.192 42.1157 183.915 42.8227 183.385 43.3277C182.88 43.8327 182.199 44.1357 181.468 44.1357C181.291 44.1357 181.115 44.1105 180.938 44.0852C180.762 44.0347 180.585 43.9842 180.434 43.9085C180.257 43.8327 180.106 43.757 179.954 43.656C179.828 43.555 179.677 43.454 179.551 43.3277C179.425 43.2015 179.324 43.0752 179.223 42.9237C179.122 42.7722 179.046 42.6207 178.971 42.444C178.895 42.2672 178.845 42.0905 178.819 41.939C178.769 41.7622 178.769 41.5855 178.769 41.4087C178.769 41.232 178.794 41.0552 178.819 40.8785C178.845 40.6765 178.92 40.4997 178.971 40.3482Z" fill="#C2EEFF" fill-opacity="0.3"/>
<path d="M153.596 40.3481C153.671 40.1713 153.747 40.0198 153.848 39.8683C153.949 39.7169 154.075 39.5906 154.201 39.4644C154.327 39.3381 154.453 39.2119 154.605 39.1109C154.731 39.0099 154.907 38.9341 155.084 38.8584C155.261 38.7826 155.412 38.7321 155.588 38.7069C156.471 38.5301 157.405 38.8079 158.035 39.4391C158.161 39.5654 158.262 39.6916 158.363 39.8431C158.464 39.9946 158.54 40.1461 158.615 40.3228C158.691 40.4996 158.741 40.6511 158.792 40.8278C158.817 41.0046 158.842 41.1813 158.842 41.3581C158.842 41.5348 158.817 41.7116 158.792 41.8883C158.741 42.0398 158.691 42.2418 158.615 42.3933C158.54 42.5701 158.464 42.7216 158.363 42.8731C158.262 43.0246 158.161 43.1508 158.035 43.2771C157.909 43.4033 157.758 43.5043 157.632 43.6053C157.48 43.7063 157.329 43.7821 157.152 43.8578C156.976 43.9336 156.799 43.9841 156.648 44.0346C156.471 44.0598 156.295 44.0851 156.118 44.0851C155.942 44.0851 155.765 44.0598 155.588 44.0346C155.412 43.9841 155.235 43.9336 155.084 43.8578C154.907 43.7821 154.756 43.7063 154.605 43.6053C154.453 43.5043 154.327 43.4033 154.201 43.2771C154.075 43.1508 153.949 43.0246 153.848 42.8731C153.747 42.7216 153.671 42.5701 153.596 42.3933C153.52 42.2166 153.47 42.0398 153.444 41.8883C153.394 41.7116 153.394 41.5348 153.394 41.3581C153.394 41.1813 153.419 41.0046 153.444 40.8278C153.47 40.6763 153.52 40.4996 153.596 40.3481Z" fill="#C2EEFF" fill-opacity="0.3"/>
<path d="M128.221 40.3481C128.297 40.1713 128.372 40.0198 128.473 39.8683C128.574 39.7169 128.675 39.5906 128.826 39.4644C128.952 39.3381 129.079 39.2119 129.23 39.1109C129.356 39.0099 129.532 38.9341 129.709 38.8584C129.886 38.7826 130.037 38.7321 130.214 38.7069C131.096 38.5301 132.03 38.8079 132.66 39.4391C132.786 39.5654 132.887 39.6916 132.988 39.8431C133.089 39.9946 133.19 40.1461 133.24 40.3228C133.316 40.4996 133.366 40.6511 133.417 40.8278C133.442 41.0046 133.467 41.1813 133.467 41.3581C133.467 41.5348 133.442 41.7116 133.417 41.8883C133.366 42.0398 133.316 42.2418 133.24 42.3933C133.19 42.5701 133.089 42.7216 132.988 42.8731C132.887 43.0246 132.786 43.1508 132.66 43.2771C132.534 43.4033 132.408 43.5043 132.257 43.6053C132.105 43.7063 131.954 43.7821 131.777 43.8578C131.601 43.9336 131.424 43.9841 131.273 44.0346C131.096 44.0598 130.92 44.0851 130.743 44.0851C130.567 44.0851 130.39 44.0598 130.214 44.0346C130.037 43.9841 129.86 43.9336 129.709 43.8578C129.532 43.7821 129.381 43.7063 129.23 43.6053C129.079 43.5043 128.952 43.4033 128.826 43.2771C128.322 42.7721 128.019 42.0651 128.019 41.3581C128.019 41.1813 128.044 41.0046 128.07 40.8278C128.095 40.6763 128.145 40.4996 128.221 40.3481Z" fill="#C2EEFF" fill-opacity="0.3"/>
<path d="M102.846 40.3482C102.922 40.1715 102.997 40.02 103.098 39.8685C103.199 39.717 103.325 39.5908 103.451 39.4645C104.082 38.8333 105.015 38.5303 105.898 38.7323C106.075 38.7575 106.251 38.808 106.402 38.8838C106.579 38.9595 106.73 39.0353 106.882 39.1363C107.033 39.2373 107.159 39.3635 107.285 39.4898C107.411 39.616 107.512 39.7423 107.613 39.8937C107.714 40.0452 107.815 40.1967 107.865 40.3735C107.941 40.5502 107.966 40.7017 108.017 40.8785C108.042 41.0552 108.067 41.232 108.067 41.4087C108.067 42.1157 107.79 42.8227 107.26 43.3277C106.756 43.8327 106.049 44.1357 105.343 44.1357C105.167 44.1357 104.99 44.1105 104.813 44.0852C104.637 44.0347 104.46 43.9842 104.309 43.9085C104.132 43.8327 103.981 43.757 103.83 43.656C103.678 43.555 103.552 43.454 103.426 43.3277C103.3 43.2015 103.174 43.0752 103.073 42.9237C102.972 42.7722 102.896 42.6207 102.821 42.444C102.745 42.2672 102.695 42.0905 102.669 41.939C102.619 41.7622 102.619 41.5855 102.619 41.4087C102.619 41.232 102.644 41.0552 102.669 40.8785C102.72 40.6765 102.77 40.4997 102.846 40.3482Z" fill="#C2EEFF" fill-opacity="0.3"/>
<path d="M229.746 65.7496C229.822 65.5728 229.897 65.4213 229.998 65.2698C230.099 65.1183 230.2 64.9921 230.326 64.8658C230.452 64.7396 230.603 64.6133 230.73 64.5123C230.881 64.4113 231.057 64.3356 231.209 64.2598C231.385 64.1841 231.562 64.1336 231.713 64.1083C232.066 64.0326 232.42 64.0326 232.798 64.1083C232.974 64.1336 233.151 64.1841 233.302 64.2598C233.454 64.3356 233.63 64.4113 233.782 64.5123C233.908 64.6133 234.059 64.7143 234.185 64.8658C234.311 64.9921 234.437 65.1183 234.538 65.2698C234.639 65.3961 234.715 65.5728 234.791 65.7496C234.866 65.9263 234.917 66.0778 234.942 66.2546C234.992 66.4313 234.992 66.6081 234.992 66.7848C234.992 66.9616 234.967 67.1383 234.942 67.315C234.917 67.4918 234.866 67.6685 234.791 67.82C234.715 67.9968 234.639 68.1483 234.538 68.2998C234.437 68.4513 234.337 68.5775 234.185 68.7038C233.681 69.2088 233 69.4865 232.268 69.4865C232.092 69.4865 231.915 69.4613 231.738 69.436C231.562 69.3855 231.385 69.335 231.234 69.2593C231.083 69.1835 230.906 69.1078 230.755 69.0068C230.629 68.9058 230.477 68.8048 230.351 68.6785C230.225 68.5523 230.124 68.426 230.023 68.2745C229.922 68.123 229.847 67.9715 229.771 67.7948C229.695 67.618 229.645 67.4413 229.594 67.2898C229.569 67.113 229.544 66.9363 229.544 66.7596C229.544 66.5828 229.569 66.4061 229.594 66.2293C229.62 66.0778 229.67 65.9011 229.746 65.7496Z" fill="#C2EEFF" fill-opacity="0.3"/>
<path d="M204.371 65.7496C204.447 65.5728 204.522 65.4213 204.623 65.2698C204.724 65.1183 204.825 64.9921 204.976 64.8658C205.102 64.7396 205.228 64.6133 205.38 64.5123C205.531 64.4113 205.708 64.3356 205.859 64.2598C206.036 64.1841 206.212 64.1336 206.364 64.1083C206.717 64.0326 207.07 64.0326 207.448 64.1083C207.625 64.1336 207.801 64.1841 207.953 64.2598C208.129 64.3356 208.281 64.4113 208.432 64.5123C208.558 64.6133 208.709 64.7143 208.835 64.8658C208.962 64.9921 209.062 65.1183 209.163 65.2698C209.264 65.3961 209.34 65.5728 209.416 65.7496C209.491 65.9263 209.542 66.0778 209.592 66.2546C209.617 66.4313 209.643 66.6081 209.643 66.7848C209.643 66.9616 209.617 67.1383 209.592 67.315C209.542 67.4918 209.491 67.6685 209.416 67.82C209.34 67.9968 209.264 68.1483 209.163 68.2998C209.062 68.4513 208.962 68.5775 208.835 68.7038C208.709 68.83 208.558 68.931 208.432 69.032C208.281 69.133 208.104 69.2088 207.953 69.2845C207.801 69.3603 207.625 69.4108 207.448 69.4613C207.272 69.4865 207.095 69.5118 206.918 69.5118C206.212 69.5118 205.506 69.234 205.001 68.729C204.875 68.6028 204.749 68.4765 204.648 68.325C204.547 68.1735 204.472 68.022 204.396 67.8453C204.32 67.6685 204.27 67.4918 204.245 67.3403C204.194 67.1636 204.194 66.9868 204.194 66.8101C204.194 66.6333 204.22 66.4566 204.245 66.2798C204.245 66.0778 204.295 65.9011 204.371 65.7496Z" fill="#C2EEFF" fill-opacity="0.3"/>
<path d="M178.971 65.7496C179.046 65.5728 179.122 65.4213 179.223 65.2698C179.324 65.1183 179.425 64.9921 179.551 64.8658C179.677 64.7396 179.828 64.6133 179.954 64.5123C180.106 64.4113 180.282 64.3356 180.434 64.2598C180.585 64.1841 180.762 64.1336 180.938 64.1083C181.291 64.0326 181.644 64.0326 182.023 64.1083C182.199 64.1336 182.376 64.1841 182.527 64.2598C182.679 64.3356 182.855 64.4113 183.006 64.5123C183.133 64.6133 183.284 64.7143 183.41 64.8658C183.536 64.9921 183.637 65.1183 183.738 65.2698C183.839 65.3961 183.915 65.5728 183.99 65.7496C184.066 65.9263 184.116 66.0778 184.167 66.2546C184.192 66.4313 184.217 66.6081 184.217 66.7848C184.217 66.9616 184.192 67.1383 184.167 67.315C184.116 67.4918 184.066 67.6685 183.99 67.82C183.915 67.9968 183.839 68.1483 183.738 68.2998C183.637 68.4513 183.536 68.5775 183.41 68.7038C183.284 68.83 183.133 68.931 183.006 69.032C182.855 69.133 182.679 69.2088 182.527 69.2845C182.351 69.3603 182.174 69.4108 182.023 69.4613C181.846 69.4865 181.67 69.5118 181.493 69.5118C181.316 69.5118 181.14 69.4865 180.963 69.4613C180.787 69.4108 180.61 69.3603 180.459 69.2845C180.282 69.2088 180.131 69.133 179.98 69.032C179.828 68.931 179.702 68.83 179.576 68.7038C179.45 68.5775 179.324 68.4513 179.223 68.2998C179.122 68.1483 179.046 67.9968 178.971 67.82C178.895 67.6433 178.845 67.4665 178.819 67.315C178.769 67.1383 178.769 66.9616 178.769 66.7848C178.769 66.6081 178.794 66.4313 178.819 66.2546C178.845 66.0778 178.92 65.9011 178.971 65.7496Z" fill="#C2EEFF" fill-opacity="0.3"/>
<path d="M153.596 65.7496C153.671 65.5728 153.747 65.4213 153.848 65.2698C153.949 65.1183 154.05 64.9921 154.176 64.8658C154.302 64.7396 154.453 64.6133 154.605 64.5123C154.731 64.4113 154.907 64.3356 155.084 64.2598C155.261 64.1841 155.412 64.1336 155.588 64.1083C155.942 64.0326 156.295 64.0326 156.648 64.1083C156.824 64.1336 157.001 64.1841 157.152 64.2598C157.329 64.3356 157.48 64.4113 157.632 64.5123C157.783 64.6133 157.909 64.7143 158.035 64.8658C158.161 64.9921 158.262 65.1183 158.363 65.2698C158.464 65.3961 158.565 65.5728 158.615 65.7496C158.691 65.9263 158.741 66.0778 158.792 66.2546C158.817 66.4313 158.842 66.6081 158.842 66.7848C158.842 66.9616 158.817 67.1383 158.792 67.315C158.741 67.4918 158.691 67.6685 158.615 67.82C158.565 67.9968 158.464 68.1483 158.363 68.2998C158.262 68.4513 158.161 68.5775 158.035 68.7038C157.909 68.83 157.783 68.931 157.632 69.032C157.48 69.133 157.329 69.2088 157.152 69.2845C156.976 69.3603 156.799 69.4108 156.648 69.4613C156.471 69.4865 156.295 69.5118 156.118 69.5118C155.412 69.5118 154.706 69.234 154.201 68.729C154.075 68.6028 153.949 68.4765 153.848 68.325C153.747 68.1735 153.671 68.022 153.596 67.8453C153.52 67.6685 153.47 67.4918 153.444 67.3403C153.394 67.1636 153.394 66.9868 153.394 66.8101C153.394 66.6333 153.419 66.4566 153.444 66.2798C153.47 66.0778 153.52 65.9011 153.596 65.7496Z" fill="#C2EEFF" fill-opacity="0.3"/>
<path d="M128.221 65.7496C128.297 65.5728 128.372 65.4213 128.473 65.2698C128.574 65.1183 128.7 64.9921 128.826 64.8658C128.952 64.7396 129.079 64.6133 129.23 64.5123C129.356 64.4113 129.532 64.3356 129.709 64.2598C129.886 64.1841 130.037 64.1336 130.214 64.1083C130.567 64.0326 130.92 64.0326 131.273 64.1083C131.45 64.1336 131.626 64.1841 131.777 64.2598C131.954 64.3356 132.105 64.4113 132.257 64.5123C132.408 64.6133 132.534 64.7143 132.66 64.8658C132.786 64.9921 132.887 65.1183 132.988 65.2698C133.089 65.3961 133.165 65.5728 133.24 65.7496C133.316 65.9263 133.366 66.0778 133.417 66.2546C133.442 66.4313 133.467 66.6081 133.467 66.7848C133.467 66.9616 133.442 67.1383 133.417 67.315C133.366 67.4918 133.316 67.6685 133.24 67.82C133.165 67.9968 133.089 68.1483 132.988 68.2998C132.887 68.4513 132.786 68.5775 132.66 68.7038C132.534 68.83 132.408 68.931 132.257 69.032C132.105 69.133 131.954 69.2088 131.777 69.2845C131.601 69.3603 131.424 69.4108 131.273 69.4613C131.096 69.4865 130.92 69.5118 130.743 69.5118C130.567 69.5118 130.39 69.4865 130.214 69.4613C130.037 69.4108 129.86 69.3603 129.709 69.2845C129.532 69.2088 129.381 69.133 129.23 69.032C129.079 68.931 128.952 68.83 128.826 68.7038C128.7 68.5775 128.574 68.4513 128.473 68.2998C128.372 68.1483 128.297 67.9968 128.221 67.82C128.145 67.6433 128.095 67.4665 128.07 67.315C128.019 67.1383 128.019 66.9616 128.019 66.7848C128.019 66.6081 128.044 66.4313 128.07 66.2546C128.095 66.0778 128.145 65.9011 128.221 65.7496Z" fill="#C2EEFF" fill-opacity="0.3"/>
<path d="M102.846 65.7496C102.922 65.5728 102.997 65.4213 103.098 65.2698C103.199 65.1183 103.325 64.9921 103.451 64.8658C103.577 64.7396 103.704 64.6133 103.855 64.5123C103.981 64.4113 104.158 64.3356 104.334 64.2598C104.511 64.1841 104.662 64.1336 104.839 64.1083C105.192 64.0326 105.545 64.0326 105.898 64.1083C106.075 64.1336 106.251 64.1841 106.402 64.2598C106.579 64.3356 106.73 64.4113 106.882 64.5123C107.033 64.6133 107.159 64.7143 107.285 64.8658C107.411 64.9921 107.512 65.1183 107.613 65.2698C107.714 65.3961 107.815 65.5728 107.865 65.7496C107.916 65.9263 107.966 66.0778 108.017 66.2546C108.042 66.4313 108.067 66.6081 108.067 66.7848C108.067 66.9616 108.042 67.1383 108.017 67.315C107.966 67.4918 107.916 67.6685 107.865 67.82C107.79 67.9968 107.714 68.1483 107.613 68.2998C107.512 68.4513 107.411 68.5775 107.285 68.7038C107.159 68.83 107.033 68.931 106.882 69.032C106.73 69.133 106.579 69.2088 106.402 69.2845C106.226 69.3603 106.075 69.4108 105.898 69.4613C105.721 69.4865 105.545 69.5118 105.368 69.5118C104.662 69.5118 103.956 69.234 103.451 68.729C103.325 68.6028 103.199 68.4765 103.098 68.325C102.997 68.1735 102.922 68.022 102.846 67.8453C102.77 67.6685 102.72 67.4918 102.695 67.3403C102.644 67.1636 102.644 66.9868 102.644 66.8101C102.644 66.6333 102.669 66.4566 102.695 66.2798C102.72 66.0778 102.77 65.9011 102.846 65.7496Z" fill="#C2EEFF" fill-opacity="0.3"/>
<path d="M229.746 91.1508C229.821 90.974 229.897 90.8225 229.998 90.671C230.099 90.5195 230.2 90.3933 230.326 90.267C231.335 89.257 233.151 89.257 234.185 90.267C234.311 90.3933 234.412 90.5195 234.513 90.671C234.614 90.7973 234.69 90.974 234.765 91.1508C234.841 91.3275 234.891 91.479 234.917 91.6558C234.967 91.8325 234.967 92.0092 234.967 92.186C234.967 92.3627 234.942 92.5395 234.917 92.7162C234.891 92.893 234.841 93.0697 234.765 93.2212C234.69 93.398 234.614 93.5495 234.513 93.701C234.412 93.8525 234.311 93.9787 234.185 94.105C233.681 94.61 232.974 94.913 232.268 94.913C231.562 94.913 230.856 94.6352 230.351 94.105C230.225 93.9787 230.124 93.8525 230.023 93.701C229.922 93.5495 229.847 93.398 229.771 93.2212C229.695 93.0445 229.645 92.8677 229.62 92.7162C229.569 92.5395 229.569 92.3627 229.569 92.186C229.569 92.0092 229.594 91.8325 229.62 91.6558C229.62 91.479 229.67 91.3275 229.746 91.1508Z" fill="#C2EEFF" fill-opacity="0.3"/>
<path d="M204.371 91.1508C204.447 90.974 204.522 90.8225 204.623 90.671C204.724 90.5195 204.825 90.3933 204.951 90.267C205.96 89.257 207.776 89.257 208.81 90.267C208.936 90.3933 209.037 90.5195 209.138 90.671C209.239 90.7973 209.315 90.974 209.39 91.1508C209.466 91.3275 209.516 91.479 209.542 91.6558C209.592 91.8325 209.592 92.0092 209.592 92.186C209.592 92.3627 209.567 92.5395 209.542 92.7162C209.516 92.893 209.466 93.0697 209.39 93.2212C209.315 93.398 209.239 93.5495 209.138 93.701C209.037 93.8525 208.936 93.9787 208.81 94.105C208.306 94.61 207.599 94.913 206.893 94.913C206.187 94.913 205.481 94.6352 204.976 94.105C204.85 93.9787 204.749 93.8525 204.648 93.701C204.547 93.5495 204.472 93.398 204.396 93.2212C204.32 93.0445 204.27 92.8677 204.245 92.7162C204.194 92.5395 204.194 92.3627 204.194 92.186C204.194 92.0092 204.22 91.8325 204.245 91.6558C204.245 91.479 204.295 91.3275 204.371 91.1508Z" fill="#C2EEFF" fill-opacity="0.3"/>
<path d="M178.971 91.1507C179.046 90.974 179.122 90.8225 179.223 90.671C179.324 90.5195 179.425 90.3932 179.551 90.267C180.181 89.6358 181.14 89.3328 182.023 89.5347C182.199 89.56 182.376 89.6105 182.527 89.6863C182.679 89.762 182.855 89.8377 183.006 89.9387C183.133 90.0397 183.284 90.166 183.41 90.2922C183.536 90.4185 183.637 90.5447 183.738 90.6962C183.839 90.8225 183.915 90.9992 183.99 91.176C184.066 91.3527 184.116 91.5042 184.142 91.681C184.192 91.8577 184.192 92.0345 184.192 92.2112C184.192 92.388 184.167 92.5647 184.142 92.7415C184.116 92.9182 184.066 93.095 183.99 93.2465C183.915 93.4232 183.839 93.5747 183.738 93.7262C183.637 93.8777 183.536 94.004 183.41 94.1302C182.906 94.6352 182.199 94.9382 181.493 94.9382C181.316 94.9382 181.14 94.913 180.963 94.8877C180.787 94.8372 180.61 94.7867 180.459 94.7362C180.282 94.6605 180.131 94.5595 179.98 94.4837C179.828 94.3827 179.702 94.2817 179.576 94.1555C179.45 94.0292 179.324 93.903 179.223 93.7515C179.122 93.6 179.046 93.4485 178.971 93.2717C178.895 93.095 178.845 92.9182 178.819 92.7667C178.769 92.59 178.769 92.4132 178.769 92.2365C178.769 92.0597 178.794 91.883 178.819 91.7062C178.845 91.479 178.92 91.3275 178.971 91.1507Z" fill="#C2EEFF" fill-opacity="0.3"/>
<path d="M153.596 91.1508C153.671 90.974 153.747 90.8225 153.848 90.671C153.949 90.5195 154.05 90.3933 154.176 90.267C155.185 89.257 157.026 89.257 158.035 90.267C158.161 90.3933 158.262 90.5195 158.363 90.671C158.464 90.7973 158.54 90.974 158.615 91.1508C158.691 91.3275 158.741 91.479 158.792 91.6558C158.817 91.8325 158.842 92.0092 158.842 92.186C158.842 92.3627 158.817 92.5395 158.792 92.7162C158.741 92.893 158.691 93.0697 158.615 93.2212C158.54 93.398 158.464 93.5495 158.363 93.701C158.262 93.8525 158.161 93.9787 158.035 94.105C157.531 94.61 156.824 94.913 156.118 94.913C155.412 94.913 154.706 94.6352 154.201 94.105C154.075 93.9787 153.949 93.8525 153.848 93.701C153.747 93.5495 153.671 93.398 153.596 93.2212C153.52 93.0445 153.47 92.8677 153.444 92.7162C153.394 92.5395 153.394 92.3627 153.394 92.186C153.394 92.0092 153.419 91.8325 153.444 91.6558C153.47 91.479 153.52 91.3275 153.596 91.1508Z" fill="#C2EEFF" fill-opacity="0.3"/>
<path d="M128.221 91.1508C128.297 90.9741 128.372 90.8226 128.473 90.6711C128.574 90.5196 128.7 90.3933 128.826 90.2671C128.952 90.1408 129.079 90.0146 129.23 89.9136C129.356 89.8126 129.532 89.7368 129.709 89.6611C129.886 89.5853 130.037 89.5349 130.214 89.5096C131.096 89.3076 132.03 89.6106 132.66 90.2418C132.786 90.3681 132.887 90.4943 132.988 90.6458C133.089 90.7721 133.19 90.9488 133.24 91.1256C133.291 91.3023 133.341 91.4538 133.392 91.6306C133.417 91.8073 133.442 91.9841 133.442 92.1608C133.442 92.3376 133.417 92.5143 133.392 92.6911C133.341 92.8678 133.291 93.0446 133.24 93.1961C133.165 93.3728 133.064 93.5243 132.988 93.6758C132.887 93.8273 132.786 93.9536 132.66 94.0798C132.156 94.5848 131.449 94.8878 130.743 94.8878C130.567 94.8878 130.39 94.8626 130.214 94.8373C130.037 94.7868 129.86 94.7363 129.709 94.6858C129.532 94.6101 129.381 94.5091 129.23 94.4333C129.079 94.3323 128.952 94.2313 128.826 94.1051C128.7 93.9788 128.574 93.8526 128.473 93.7011C128.372 93.5496 128.297 93.3981 128.221 93.2213C128.145 93.0446 128.095 92.8678 128.07 92.7163C128.019 92.5396 128.019 92.3628 128.019 92.1861C128.019 92.0093 128.044 91.8326 128.07 91.6558C128.095 91.4791 128.145 91.3276 128.221 91.1508Z" fill="#C2EEFF" fill-opacity="0.3"/>
<path d="M102.846 91.1508C102.922 90.974 102.997 90.8225 103.098 90.671C103.199 90.5195 103.325 90.3933 103.451 90.267C104.46 89.257 106.276 89.257 107.285 90.267C107.411 90.3933 107.512 90.5195 107.613 90.671C107.714 90.7973 107.815 90.974 107.865 91.1508C107.941 91.3275 107.966 91.479 108.017 91.6558C108.042 91.8325 108.067 92.0092 108.067 92.186C108.067 92.3627 108.042 92.5395 108.017 92.7162C107.966 92.893 107.941 93.0697 107.865 93.2212C107.79 93.398 107.714 93.5495 107.613 93.701C107.512 93.8525 107.411 93.9787 107.285 94.105C106.781 94.61 106.075 94.913 105.368 94.913C104.662 94.913 103.956 94.6352 103.451 94.105C103.325 93.9787 103.199 93.8525 103.098 93.701C102.997 93.5495 102.922 93.398 102.846 93.2212C102.77 93.0445 102.72 92.8677 102.695 92.7162C102.644 92.5395 102.644 92.3627 102.644 92.186C102.644 92.0092 102.669 91.8325 102.695 91.6558C102.72 91.479 102.77 91.3275 102.846 91.1508Z" fill="#C2EEFF" fill-opacity="0.3"/>
<path d="M229.746 116.552C229.821 116.375 229.897 116.224 229.998 116.072C230.099 115.921 230.2 115.795 230.326 115.668C231.335 114.658 233.176 114.658 234.185 115.668C234.311 115.795 234.412 115.921 234.513 116.072C234.614 116.199 234.69 116.375 234.765 116.552C234.841 116.704 234.891 116.88 234.917 117.057C234.967 117.234 234.967 117.411 234.967 117.587C234.967 118.294 234.69 119.001 234.185 119.506C234.059 119.633 233.908 119.734 233.756 119.835C233.63 119.936 233.454 120.011 233.277 120.087C233.126 120.163 232.949 120.213 232.773 120.239C232.596 120.289 232.419 120.289 232.243 120.289C232.066 120.289 231.89 120.264 231.713 120.239C231.537 120.213 231.36 120.163 231.209 120.087C231.057 120.011 230.881 119.936 230.73 119.835C230.603 119.734 230.452 119.633 230.326 119.506C229.821 119.001 229.544 118.294 229.544 117.587C229.544 117.411 229.569 117.234 229.594 117.057C229.62 116.88 229.67 116.729 229.746 116.552Z" fill="#C2EEFF" fill-opacity="0.3"/>
<path d="M204.371 116.552C204.447 116.375 204.522 116.224 204.623 116.072C204.724 115.921 204.825 115.794 204.951 115.668C205.077 115.542 205.228 115.416 205.355 115.315C205.506 115.214 205.682 115.138 205.834 115.062C205.985 114.986 206.162 114.936 206.338 114.911C207.221 114.734 208.18 115.012 208.81 115.643C208.936 115.769 209.037 115.895 209.138 116.047C209.239 116.173 209.315 116.35 209.39 116.527C209.466 116.678 209.517 116.855 209.567 117.032C209.592 117.208 209.617 117.385 209.617 117.562C209.617 118.269 209.34 118.976 208.835 119.481C208.331 119.986 207.625 120.264 206.918 120.264C206.742 120.264 206.565 120.238 206.389 120.213C206.212 120.188 206.036 120.137 205.884 120.062C205.708 119.986 205.556 119.91 205.405 119.809C205.279 119.708 205.128 119.607 205.001 119.481C204.497 118.976 204.22 118.269 204.22 117.562C204.22 117.385 204.245 117.208 204.27 117.032C204.245 116.88 204.295 116.729 204.371 116.552Z" fill="#C2EEFF" fill-opacity="0.3"/>
<path d="M178.971 116.552C179.046 116.375 179.122 116.224 179.223 116.072C179.324 115.921 179.425 115.794 179.551 115.668C179.677 115.542 179.828 115.416 179.954 115.315C180.106 115.214 180.282 115.138 180.434 115.062C180.585 114.986 180.762 114.936 180.938 114.911C181.821 114.734 182.779 115.012 183.41 115.643C183.536 115.769 183.637 115.895 183.738 116.047C183.839 116.173 183.915 116.35 183.99 116.527C184.066 116.678 184.116 116.855 184.167 117.032C184.192 117.208 184.217 117.385 184.217 117.562C184.217 118.269 183.94 118.976 183.435 119.481C183.309 119.607 183.158 119.708 183.032 119.809C182.88 119.91 182.704 119.986 182.552 120.062C182.376 120.137 182.199 120.188 182.048 120.213C181.871 120.264 181.695 120.264 181.518 120.264C181.342 120.264 181.165 120.238 180.989 120.213C180.812 120.188 180.635 120.137 180.484 120.062C180.308 119.986 180.156 119.91 180.005 119.809C179.854 119.708 179.727 119.607 179.601 119.481C179.097 118.976 178.794 118.269 178.794 117.562C178.794 117.385 178.819 117.208 178.845 117.032C178.845 116.88 178.92 116.729 178.971 116.552Z" fill="#C2EEFF" fill-opacity="0.3"/>
<path d="M153.596 116.552C153.671 116.375 153.747 116.224 153.848 116.072C153.949 115.921 154.075 115.795 154.201 115.668C154.832 115.037 155.765 114.734 156.648 114.936C156.824 114.961 157.001 115.012 157.152 115.088C157.329 115.163 157.48 115.239 157.632 115.34C157.783 115.441 157.909 115.542 158.035 115.694C158.161 115.82 158.262 115.946 158.363 116.098C158.464 116.224 158.54 116.401 158.615 116.577C158.691 116.729 158.741 116.906 158.792 117.082C158.817 117.259 158.842 117.436 158.842 117.613C158.842 118.32 158.565 119.027 158.06 119.532C157.556 120.037 156.85 120.314 156.143 120.314C155.437 120.314 154.731 120.037 154.226 119.532C153.722 119.027 153.419 118.32 153.419 117.613C153.419 117.436 153.444 117.259 153.47 117.082C153.47 116.88 153.52 116.729 153.596 116.552Z" fill="#C2EEFF" fill-opacity="0.3"/>
<path d="M128.221 116.552C128.297 116.375 128.372 116.224 128.473 116.072C128.574 115.921 128.7 115.795 128.826 115.668C129.835 114.658 131.651 114.658 132.66 115.668C132.786 115.795 132.887 115.921 132.988 116.072C133.089 116.199 133.19 116.375 133.24 116.552C133.316 116.704 133.366 116.88 133.417 117.057C133.442 117.234 133.467 117.411 133.467 117.587C133.467 118.294 133.19 119.001 132.66 119.506C132.534 119.633 132.408 119.734 132.257 119.835C132.105 119.936 131.954 120.011 131.777 120.087C131.601 120.163 131.424 120.213 131.273 120.239C131.096 120.289 130.92 120.289 130.743 120.289C130.567 120.289 130.39 120.264 130.214 120.239C130.037 120.213 129.86 120.163 129.709 120.087C129.532 120.011 129.381 119.936 129.23 119.835C129.079 119.734 128.952 119.633 128.826 119.506C128.322 119.001 128.019 118.294 128.019 117.587C128.019 117.411 128.044 117.234 128.07 117.057C128.095 116.88 128.145 116.729 128.221 116.552Z" fill="#C2EEFF" fill-opacity="0.3"/>
<path d="M102.846 116.552C102.922 116.375 102.997 116.224 103.098 116.072C103.199 115.921 103.325 115.794 103.451 115.668C103.577 115.542 103.704 115.416 103.855 115.315C103.981 115.214 104.158 115.138 104.334 115.062C104.511 114.986 104.662 114.936 104.839 114.911C105.721 114.734 106.655 115.012 107.285 115.643C107.411 115.769 107.512 115.895 107.613 116.047C107.714 116.173 107.815 116.35 107.865 116.527C107.916 116.678 107.966 116.855 108.017 117.032C108.042 117.208 108.067 117.385 108.067 117.562C108.067 118.269 107.79 118.976 107.26 119.481C106.756 119.986 106.049 120.264 105.343 120.264C105.167 120.264 104.99 120.238 104.813 120.213C104.637 120.188 104.46 120.137 104.309 120.062C104.132 119.986 103.981 119.91 103.83 119.809C103.678 119.708 103.552 119.607 103.426 119.481C102.922 118.976 102.619 118.269 102.619 117.562C102.619 117.385 102.644 117.208 102.669 117.032C102.72 116.88 102.77 116.729 102.846 116.552Z" fill="#C2EEFF" fill-opacity="0.3"/>
<path d="M208.81 677.829C209.062 677.829 209.29 677.753 209.517 677.627C210.147 677.223 210.349 676.415 209.945 675.784L190.574 644.878C190.17 644.247 189.363 644.045 188.732 644.449C188.102 644.853 187.9 645.661 188.303 646.292L207.675 677.198C207.927 677.627 208.356 677.829 208.81 677.829Z" fill="#E6F8FF" fill-opacity="0.35"/>
<path d="M198.494 677.829C198.746 677.829 198.973 677.753 199.2 677.627C199.831 677.223 200.032 676.415 199.629 675.784L180.257 644.878C179.854 644.247 179.046 644.045 178.416 644.449C177.785 644.853 177.583 645.661 177.987 646.292L197.359 677.198C197.586 677.627 198.04 677.829 198.494 677.829Z" fill="#E6F8FF" fill-opacity="0.35"/>
<path d="M188.152 677.829C188.404 677.829 188.631 677.753 188.858 677.627C189.489 677.223 189.691 676.415 189.287 675.784L169.915 644.878C169.512 644.247 168.68 644.045 168.074 644.449C167.444 644.853 167.242 645.661 167.645 646.292L187.017 677.198C187.269 677.627 187.698 677.829 188.152 677.829Z" fill="#E6F8FF" fill-opacity="0.35"/>
<path d="M177.836 677.829C178.088 677.829 178.315 677.753 178.542 677.627C179.172 677.223 179.374 676.415 178.971 675.784L159.599 644.878C159.195 644.247 158.363 644.045 157.758 644.449C157.127 644.853 156.925 645.661 157.329 646.292L176.701 677.198C176.953 677.627 177.382 677.829 177.836 677.829Z" fill="#E6F8FF" fill-opacity="0.35"/>
<path d="M167.494 677.829C167.746 677.829 167.973 677.753 168.2 677.627C168.831 677.223 169.033 676.415 168.629 675.784L149.257 644.878C148.854 644.247 148.047 644.045 147.416 644.449C146.785 644.853 146.584 645.661 146.987 646.292L166.359 677.198C166.611 677.627 167.065 677.829 167.494 677.829Z" fill="#E6F8FF" fill-opacity="0.35"/>
<path d="M157.178 677.829C157.43 677.829 157.657 677.753 157.884 677.627C158.514 677.223 158.716 676.415 158.313 675.784L138.941 644.878C138.537 644.247 137.73 644.045 137.1 644.449C136.469 644.853 136.267 645.661 136.671 646.292L156.042 677.198C156.295 677.627 156.724 677.829 157.178 677.829Z" fill="#E6F8FF" fill-opacity="0.35"/>
<path d="M146.861 677.829C147.113 677.829 147.34 677.753 147.567 677.627C148.198 677.223 148.4 676.415 147.996 675.784L128.624 644.878C128.221 644.247 127.388 644.045 126.783 644.449C126.153 644.853 125.951 645.661 126.354 646.292L145.726 677.198C145.953 677.627 146.407 677.829 146.861 677.829Z" fill="#E6F8FF" fill-opacity="0.35"/>
<path d="M136.519 677.829C136.772 677.829 136.999 677.753 137.226 677.627C137.856 677.223 138.058 676.415 137.654 675.784L118.283 644.878C117.879 644.247 117.047 644.045 116.441 644.449C115.811 644.853 115.609 645.661 116.013 646.292L135.384 677.198C135.637 677.627 136.065 677.829 136.519 677.829Z" fill="#E6F8FF" fill-opacity="0.35"/>
<path d="M126.203 677.829C126.455 677.829 126.682 677.753 126.909 677.627C127.54 677.223 127.742 676.415 127.338 675.784L107.966 644.878C107.563 644.247 106.756 644.045 106.125 644.449C105.494 644.853 105.293 645.661 105.696 646.292L125.068 677.198C125.32 677.627 125.749 677.829 126.203 677.829Z" fill="#E6F8FF" fill-opacity="0.35"/>
<path d="M115.887 677.829C116.139 677.829 116.366 677.753 116.593 677.627C117.223 677.223 117.425 676.415 117.022 675.784L97.6498 644.878C97.2463 644.247 96.4392 644.045 95.8086 644.449C95.178 644.853 94.9762 645.661 95.3797 646.292L114.751 677.198C114.978 677.627 115.432 677.829 115.887 677.829Z" fill="#E6F8FF" fill-opacity="0.35"/>
<defs>
<linearGradient id="paint0_linear_2487_28867" x1="121.484" y1="587.999" x2="737.984" y2="87.499" gradientUnits="userSpaceOnUse">
<stop stop-color="#DAF5FF" stop-opacity="0.34"/>
<stop offset="1" stop-color="#DAF5FF" stop-opacity="0.1"/>
</linearGradient>
</defs>
</svg>
