<svg width="32" height="32" viewBox="0 0 32 32" fill="none" xmlns="http://www.w3.org/2000/svg">
<rect width="32" height="32" rx="16" fill="#1C1C1C"/>
<path d="M11.2816 18.3703C11.3793 17.5617 11.7109 17.1089 12.336 16.6447C13.2302 16.0161 14.3473 16.3717 14.3473 16.3717V14.2622C14.6189 14.2553 14.8906 14.2714 15.1592 14.3103V17.025C15.1592 17.025 14.0425 16.6694 13.1482 17.2984C12.5235 17.7622 12.1911 18.2153 12.0938 19.024C12.0908 19.4631 12.1732 20.0371 12.5527 20.5334C12.4588 20.4853 12.3632 20.4305 12.2658 20.369C11.4298 19.8076 11.2775 18.9655 11.2816 18.3703ZM19.7717 10.3618C19.1565 9.68768 18.9239 9.00706 18.8398 8.52893H19.6137C19.6137 8.52893 19.4594 9.78259 20.5839 11.0154L20.5995 11.032C20.2965 10.8414 20.0185 10.6163 19.7717 10.3618ZM23.4998 12.273V14.9331C23.4998 14.9331 22.5122 14.8944 21.7814 14.7085C20.761 14.4485 20.1051 14.0496 20.1051 14.0496C20.1051 14.0496 19.652 13.7652 19.6154 13.7454V19.2385C19.6154 19.5444 19.5316 20.3082 19.2763 20.9453C18.9429 21.7787 18.4284 22.3257 18.3338 22.4375C18.3338 22.4375 17.7081 23.177 16.6043 23.6749C15.6092 24.1241 14.7356 24.1127 14.4745 24.1241C14.4745 24.1241 12.9644 24.1839 11.6055 23.3008C11.3116 23.1061 11.0373 22.8857 10.7861 22.6423L10.7929 22.6471C12.1521 23.5303 13.662 23.4705 13.662 23.4705C13.9234 23.4591 14.797 23.4705 15.7917 23.0213C16.8945 22.5233 17.5213 21.7839 17.5213 21.7839C17.6149 21.672 18.1317 21.125 18.4637 20.2913C18.7184 19.6546 18.8028 18.8904 18.8028 18.5845V13.0921C18.8395 13.1122 19.2922 13.3967 19.2922 13.3967C19.2922 13.3967 19.9484 13.7958 20.9689 14.0555C21.7 14.2414 22.6872 14.2801 22.6872 14.2801V12.1957C23.025 12.2714 23.3129 12.2919 23.4998 12.273Z" fill="#F61C4B"/>
<path d="M22.6875 12.1957V14.2794C22.6875 14.2794 21.7003 14.2408 20.9692 14.0548C19.9487 13.7948 19.2925 13.396 19.2925 13.396C19.2925 13.396 18.8398 13.1116 18.8032 13.0914V18.5852C18.8032 18.891 18.7194 19.6552 18.464 20.2919C18.1307 21.1257 17.6162 21.6727 17.5216 21.7845C17.5216 21.7845 16.8955 22.524 15.792 23.0219C14.7973 23.4711 13.9237 23.4597 13.6623 23.4711C13.6623 23.4711 12.1525 23.5309 10.7932 22.6478L10.7864 22.6429C10.6429 22.504 10.5079 22.3572 10.3819 22.2035C9.94812 21.6746 9.68224 21.0493 9.61543 20.8708C9.61532 20.8701 9.61532 20.8693 9.61543 20.8686C9.50793 20.5585 9.28207 19.8138 9.31293 19.0926C9.36753 17.8201 9.81518 17.039 9.93354 16.8433C10.247 16.3097 10.6547 15.8323 11.1385 15.4323C11.5654 15.0872 12.0493 14.8126 12.5703 14.6198C13.1335 14.3934 13.7366 14.272 14.3473 14.2622V16.3717C14.3473 16.3717 13.2302 16.0174 12.3363 16.6447C11.7113 17.1089 11.3796 17.5617 11.2819 18.3703C11.2778 18.9655 11.4301 19.8076 12.2654 20.3693C12.3628 20.4311 12.4585 20.4859 12.5523 20.5338C12.6982 20.7235 12.8758 20.8887 13.078 21.023C13.8939 21.5394 14.5776 21.5755 15.4519 21.2401C16.0348 21.0158 16.4737 20.5104 16.6771 19.9503C16.805 19.6006 16.8033 19.2486 16.8033 18.8845V8.52893H18.8381C18.9222 9.00706 19.1548 9.68768 19.77 10.3618C20.0168 10.6163 20.2947 10.8414 20.5978 11.032C20.6874 11.1247 21.1452 11.5826 21.7329 11.8638C22.0368 12.0091 22.3571 12.1205 22.6875 12.1957V12.1957Z" fill="#F7F7F7"/>
<path d="M8.80566 20.2231V20.2248L8.85615 20.3616C8.85035 20.3457 8.83159 20.2973 8.80566 20.2231Z" fill="white"/>
<path d="M12.5705 14.6198C12.0495 14.8126 11.5656 15.0872 11.1387 15.4324C10.6548 15.8332 10.2472 16.3117 9.93411 16.8463C9.81576 17.0413 9.3681 17.823 9.3135 19.0955C9.28264 19.8168 9.5085 20.5614 9.61601 20.8715C9.61589 20.8723 9.61589 20.873 9.61601 20.8738C9.68383 21.0506 9.94869 21.676 10.3824 22.2064C10.5084 22.3602 10.6435 22.5069 10.787 22.6459C10.3272 22.3411 9.91716 21.9726 9.57023 21.5525C9.14021 21.0282 8.87501 20.4093 8.80583 20.2266C8.80574 20.2253 8.80574 20.224 8.80583 20.2227V20.2205C8.69798 19.9107 8.47144 19.1657 8.50298 18.4435C8.55758 17.171 9.00523 16.3899 9.12359 16.1942C9.43657 15.6596 9.84417 15.1812 10.3282 14.7803C10.755 14.4351 11.2389 14.1605 11.76 13.9678C12.085 13.8385 12.4236 13.7432 12.7699 13.6834C13.2918 13.596 13.8249 13.5885 14.3492 13.6609V14.2622C13.738 14.2718 13.1343 14.3932 12.5705 14.6198Z" fill="#25EDE8"/>
<path d="M18.8399 8.52897H16.8051V18.8849C16.8051 19.2489 16.8051 19.6 16.6789 19.9507C16.4734 20.5104 16.0363 21.0158 15.4537 21.2401C14.579 21.5768 13.8954 21.5395 13.0797 21.023C12.8773 20.8894 12.6992 20.7246 12.5527 20.5354C13.2476 20.8907 13.8696 20.8845 14.6401 20.5881C15.2224 20.3638 15.6602 19.8584 15.865 19.2984C15.9932 18.9486 15.9915 18.5966 15.9915 18.2329V7.875H18.8012C18.8012 7.875 18.7697 8.13243 18.8399 8.52897ZM22.6876 11.6194V12.1957C22.3578 12.1204 22.038 12.009 21.7347 11.8638C21.147 11.5827 20.6891 11.1247 20.5996 11.0321C20.7035 11.0974 20.8113 11.1569 20.9225 11.2102C21.637 11.5521 22.3407 11.6542 22.6876 11.6194Z" fill="#25EDE8"/>
</svg>
