<?xml version="1.0" encoding="utf-8"?>
<!-- Generator: Adobe Illustrator 27.0.0, SVG Export Plug-In . SVG Version: 6.00 Build 0)  -->
<svg version="1.1" id="Layer_1" xmlns="http://www.w3.org/2000/svg" xmlns:xlink="http://www.w3.org/1999/xlink" x="0px" y="0px"
	 viewBox="0 0 150 51" style="enable-background:new 0 0 150 51;" xml:space="preserve">
<style type="text/css">
	.st0{fill:#4876FE;}
	.st1{fill:#FDFDFE;}
	.st2{fill:#FCFCFE;}
	.st3{fill:#FFFFFF;}
</style>
<g>
	<g>
		<path class="st0" d="M11,22.6c-1.5-0.9-3-1.7-4.5-2.5c-1-0.6-2-1.1-3-1.7c-1-0.6-1.4-1.7-0.8-2.7c0.5-1,1.7-1.3,2.8-0.7
			c3,1.7,6.1,3.4,9.1,5.2c0.1,0.1,0.2,0.2,0.3,0.1c0-0.2-0.1-0.2-0.2-0.4c-1.1-1.9-2.2-3.7-3.3-5.6c-0.7-1.2-0.1-2.6,1.2-2.9
			c0.9-0.2,1.7,0.2,2.2,1c1.3,2.2,2.6,4.5,3.9,6.7c0.5,0.8,0.9,1.5,1.4,2.3c0.1,0.1,0.1,0.2,0.2,0.3c0.1-0.2,0.1-0.3,0.1-0.4
			c0-2.2,0-4.5,0-6.7c0-1,0.7-1.8,1.7-1.9c1-0.1,1.9,0.5,2.2,1.4c0.1,0.2,0.1,0.4,0.1,0.6c0,5.5,0,10.9,0,16.4
			c0,4.4-3.3,8.3-7.6,9.1c-3,0.5-5.7-0.2-8-2.2c-0.9-0.8-1-2-0.3-2.8c0.8-0.9,2-0.9,2.9-0.1c2.1,1.8,5,1.9,7.1,0.3
			c1.7-1.3,2.5-3.6,1.9-5.7c-0.6-2.1-2.4-3.7-4.6-4c-3-0.4-5.6,1.5-6.2,4.5c-0.1,0.3-0.1,0.6-0.1,0.9c0,1.2-0.9,2-2,1.9
			c-1.1,0-2-0.9-1.9-2c0.1-3.7,1.9-6.5,5.2-8.2C10.8,22.7,10.9,22.7,11,22.6z"/>
		<path class="st0" d="M15,30.6c1.6,0,3,0.6,4.2,1.6c0.2,0.2,0.2,0.3,0.1,0.5c-0.7,1.7-2.4,2.9-4.3,2.9c-1.9,0-3.6-1.2-4.3-2.9
			c-0.1-0.2,0-0.3,0.1-0.5C11.9,31.2,13.4,30.6,15,30.6z"/>
		<path class="st0" d="M15,29.7c-0.9,0-1.6-0.7-1.6-1.6c0-0.9,0.7-1.6,1.6-1.6c0.9,0,1.6,0.7,1.6,1.6C16.5,29,15.9,29.7,15,29.7z"/>
	</g>
	<g>
		<path class="st0" d="M32.4,17.8h3.5v3.1h-3.5V17.8z M32.4,22.9h3.5v12.6h-3.5V22.9z"/>
		<path class="st0" d="M39,26.1c0-1.1,0-2.2,0-3.2h3.4c0.1,0.3,0.1,1.2,0.1,1.6c0.4-0.8,1.4-1.9,3.6-1.9c2.5,0,4.2,1.7,4.2,4.9v8
			h-3.5v-7.6c0-1.4-0.5-2.4-2-2.4c-1.5,0-2.3,0.8-2.3,3v7H39V26.1z"/>
		<path class="st0" d="M53.8,35.5v-10H52v-2.6h1.8v-1.1c0-2.6,1.3-4.3,4-4.3c0.6,0,1.3,0.1,1.6,0.1v2.7c-0.2,0-0.5-0.1-0.7-0.1
			c-1,0-1.4,0.4-1.4,1.7v0.8h2.2v2.6h-2.2v10H53.8z"/>
		<path class="st0" d="M61.4,35.5V17.8h3.5v17.7H61.4z"/>
		<path class="st0" d="M79.1,31.9c0,1.2,0,2.5,0,3.7h-3.4c0-0.3-0.1-1-0.1-1.5c-0.7,1.3-1.9,1.7-3.5,1.7c-2.6,0-4.2-1.6-4.2-4.7
			v-8.2h3.5v7.5c0,1.4,0.4,2.5,1.9,2.5c1.6,0,2.2-0.8,2.2-3.3v-6.7h3.5V31.9z"/>
		<path class="st0" d="M85.1,30c0,1.6,0.8,3.1,2.5,3.1c1.4,0,1.9-0.6,2.2-1.3h3.5c-0.4,1.5-1.8,4.1-5.8,4.1c-4.1,0-5.9-3.1-5.9-6.4
			c0-3.9,2-6.8,6.1-6.8c4.3,0,5.8,3.1,5.8,6.3c0,0.4,0,0.7,0,1.1H85.1z M90,27.8c0-1.5-0.6-2.7-2.3-2.7c-1.7,0-2.3,1.2-2.5,2.7H90z"
			/>
		<path class="st0" d="M95.9,26.1c0-1.1,0-2.2,0-3.2h3.4c0.1,0.3,0.1,1.2,0.1,1.6c0.4-0.8,1.4-1.9,3.6-1.9c2.5,0,4.2,1.7,4.2,4.9v8
			h-3.5v-7.6c0-1.4-0.5-2.4-2-2.4c-1.5,0-2.3,0.8-2.3,3v7h-3.5V26.1z"/>
		<path class="st0" d="M121.2,31.4c-0.4,2.1-1.9,4.4-5.7,4.4c-3.9,0-5.9-2.7-5.9-6.5c0-3.7,2.3-6.7,6.1-6.7c4.2,0,5.4,3,5.5,4.5
			h-3.4c-0.2-1-0.8-1.7-2.2-1.7c-1.6,0-2.5,1.4-2.5,3.8c0,2.7,1,3.9,2.5,3.9c1.2,0,1.8-0.7,2.1-1.7H121.2z"/>
		<path class="st0" d="M126.3,30c0,1.6,0.8,3.1,2.5,3.1c1.4,0,1.9-0.6,2.2-1.3h3.5c-0.4,1.5-1.8,4.1-5.8,4.1c-4.1,0-5.9-3.1-5.9-6.4
			c0-3.9,2-6.8,6.1-6.8c4.3,0,5.8,3.1,5.8,6.3c0,0.4,0,0.7,0,1.1H126.3z M131.1,27.8c0-1.5-0.6-2.7-2.3-2.7c-1.7,0-2.3,1.2-2.5,2.7
			H131.1z"/>
		<path class="st0" d="M137.1,26.3c0-1.2,0-2.4,0-3.4h3.4c0,0.3,0.1,1.5,0.1,2.2c0.6-1.4,1.9-2.5,4-2.5V26c-2.5-0.1-4,0.6-4,4.1v5.5
			h-3.5V26.3z"/>
	</g>
</g>
</svg>
