<svg width="251" height="53" viewBox="0 0 251 53" fill="none" xmlns="http://www.w3.org/2000/svg">
<path d="M59.8052 11.4297V42H52.9814V11.4297H59.8052ZM70.556 24.1323V42H63.9842V19.2822H70.1571L70.556 24.1323ZM69.6952 29.8433L68.0575 29.8853C68.0575 28.1776 68.2674 26.6449 68.6874 25.2871C69.1073 23.9294 69.7022 22.7746 70.472 21.8228C71.2559 20.8569 72.1867 20.1221 73.2645 19.6182C74.3563 19.1143 75.5601 18.8623 76.8758 18.8623C77.9396 18.8623 78.9125 19.0163 79.7943 19.3242C80.6761 19.6322 81.432 20.1291 82.0619 20.8149C82.7058 21.4868 83.1957 22.3826 83.5316 23.5024C83.8675 24.6082 84.0355 25.973 84.0355 27.5967V42H77.4427V27.5757C77.4427 26.6239 77.3098 25.889 77.0438 25.3711C76.7779 24.8532 76.3859 24.4893 75.868 24.2793C75.3641 24.0693 74.7482 23.9644 74.0204 23.9644C73.2505 23.9644 72.5926 24.1183 72.0467 24.4263C71.5008 24.7202 71.0529 25.1331 70.703 25.665C70.3531 26.1969 70.0941 26.8198 69.9261 27.5337C69.7722 28.2476 69.6952 29.0174 69.6952 29.8433ZM95.6262 42H89.0334V17.7075C89.0334 15.8879 89.4183 14.3551 90.1882 13.1094C90.9581 11.8636 92.0709 10.9188 93.5266 10.2749C94.9823 9.63102 96.739 9.30908 98.7966 9.30908C99.6644 9.30908 100.756 9.34408 102.072 9.41406C103.388 9.47005 104.717 9.54004 106.061 9.62402C107.419 9.70801 108.588 9.79199 109.568 9.87598L106.88 15.104C105.62 14.908 104.396 14.7471 103.206 14.6211C102.03 14.4951 100.882 14.4321 99.7624 14.4321C98.8666 14.4321 98.1107 14.5581 97.4948 14.8101C96.893 15.062 96.431 15.4329 96.1091 15.9229C95.7872 16.3988 95.6262 16.9937 95.6262 17.7075V42ZM102.996 42V9.87598H109.568V42H102.996ZM100.119 19.2822V23.8804H85.716V19.2822H100.119ZM126.764 36.52V19.2822H133.357V42H127.184L126.764 36.52ZM127.457 31.8799L129.263 31.8379C129.263 33.3636 129.081 34.7703 128.717 36.0581C128.367 37.3459 127.835 38.4657 127.121 39.4175C126.421 40.3693 125.546 41.1112 124.497 41.6431C123.461 42.161 122.25 42.4199 120.864 42.4199C119.745 42.4199 118.716 42.266 117.778 41.958C116.854 41.6361 116.056 41.1392 115.384 40.4673C114.712 39.7814 114.195 38.9066 113.831 37.8428C113.467 36.765 113.285 35.4772 113.285 33.9795V19.2822H119.836V34.0215C119.836 34.6094 119.906 35.1133 120.045 35.5332C120.199 35.9391 120.402 36.2751 120.654 36.541C120.92 36.807 121.242 37.0029 121.62 37.1289C122.012 37.2549 122.439 37.3179 122.901 37.3179C124.063 37.3179 124.973 37.0799 125.63 36.604C126.302 36.1141 126.771 35.4632 127.037 34.6514C127.317 33.8255 127.457 32.9017 127.457 31.8799ZM140.371 11.4297H146.039L153.388 33.2866L160.716 11.4297H166.385L155.677 42H151.079L140.371 11.4297ZM137.095 11.4297H142.869L143.94 34.0845V42H137.095V11.4297ZM163.886 11.4297H169.681V42H162.815V34.0845L163.886 11.4297ZM184.274 42.4199C182.469 42.4199 180.852 42.133 179.424 41.5591C177.996 40.9852 176.786 40.1943 175.792 39.1865C174.812 38.1647 174.063 36.9889 173.545 35.6592C173.027 34.3294 172.768 32.9087 172.768 31.397V30.5991C172.768 28.9054 173.006 27.3447 173.482 25.917C173.958 24.4893 174.651 23.2505 175.561 22.2007C176.485 21.1369 177.618 20.318 178.962 19.7441C180.306 19.1562 181.839 18.8623 183.56 18.8623C185.17 18.8623 186.605 19.1283 187.865 19.6602C189.124 20.1781 190.188 20.9269 191.056 21.9067C191.924 22.8726 192.582 24.0413 193.03 25.4131C193.492 26.7708 193.722 28.2965 193.722 29.9902V32.6777H175.414V28.4575H187.298V27.9536C187.298 27.1558 187.151 26.4559 186.857 25.854C186.577 25.2521 186.157 24.7902 185.597 24.4683C185.051 24.1323 184.358 23.9644 183.518 23.9644C182.721 23.9644 182.056 24.1323 181.524 24.4683C180.992 24.8042 180.565 25.2801 180.243 25.896C179.935 26.4979 179.711 27.2048 179.571 28.0166C179.431 28.8145 179.361 29.6753 179.361 30.5991V31.397C179.361 32.2788 179.48 33.0837 179.718 33.8115C179.956 34.5394 180.306 35.1623 180.768 35.6802C181.23 36.1981 181.79 36.604 182.448 36.8979C183.105 37.1919 183.854 37.3389 184.694 37.3389C185.73 37.3389 186.717 37.1429 187.655 36.751C188.592 36.3451 189.404 35.7152 190.09 34.8613L193.156 38.3677C192.694 39.0396 192.043 39.6904 191.203 40.3203C190.377 40.9362 189.383 41.4401 188.221 41.832C187.06 42.224 185.744 42.4199 184.274 42.4199ZM209.281 36.9189V9.75H215.874V42H209.953L209.281 36.9189ZM195.13 30.9141V30.4731C195.13 28.7515 195.319 27.1838 195.697 25.77C196.089 24.3423 196.656 23.1175 197.398 22.0957C198.153 21.0599 199.084 20.262 200.19 19.7021C201.296 19.1423 202.563 18.8623 203.99 18.8623C205.306 18.8623 206.454 19.1562 207.434 19.7441C208.414 20.318 209.246 21.1299 209.932 22.1797C210.632 23.2155 211.199 24.4403 211.633 25.854C212.067 27.2537 212.396 28.7725 212.62 30.4102V31.166C212.41 32.7337 212.081 34.1965 211.633 35.5542C211.199 36.9119 210.632 38.1087 209.932 39.1445C209.246 40.1663 208.407 40.9712 207.413 41.5591C206.433 42.133 205.278 42.4199 203.948 42.4199C202.521 42.4199 201.254 42.133 200.148 41.5591C199.056 40.9852 198.139 40.1803 197.398 39.1445C196.656 38.1087 196.089 36.891 195.697 35.4912C195.319 34.0915 195.13 32.5658 195.13 30.9141ZM201.681 30.4731V30.9141C201.681 31.8099 201.744 32.6427 201.87 33.4126C202.01 34.1825 202.234 34.8613 202.542 35.4492C202.85 36.0371 203.256 36.499 203.759 36.835C204.263 37.1569 204.879 37.3179 205.607 37.3179C206.587 37.3179 207.392 37.0939 208.022 36.646C208.652 36.1841 209.127 35.5472 209.449 34.7354C209.771 33.9235 209.939 32.9787 209.953 31.9009V29.6963C209.953 28.8005 209.862 27.9956 209.68 27.2817C209.498 26.5679 209.225 25.966 208.861 25.4761C208.512 24.9862 208.071 24.6152 207.539 24.3633C207.007 24.0973 206.377 23.9644 205.649 23.9644C204.935 23.9644 204.326 24.1323 203.822 24.4683C203.319 24.7902 202.906 25.2451 202.584 25.833C202.276 26.4209 202.045 27.1138 201.891 27.9116C201.751 28.6955 201.681 29.5493 201.681 30.4731ZM226.289 19.2822V42H219.717V19.2822H226.289ZM219.318 13.4033C219.318 12.4515 219.654 11.6746 220.326 11.0728C220.998 10.4569 221.88 10.1489 222.972 10.1489C224.063 10.1489 224.945 10.4569 225.617 11.0728C226.303 11.6746 226.646 12.4515 226.646 13.4033C226.646 14.3411 226.303 15.118 225.617 15.7339C224.945 16.3358 224.063 16.6367 222.972 16.6367C221.88 16.6367 220.998 16.3358 220.326 15.7339C219.654 15.118 219.318 14.3411 219.318 13.4033ZM242.184 36.583V26.8408C242.184 26.1549 242.079 25.5671 241.869 25.0771C241.659 24.5872 241.33 24.2023 240.882 23.9224C240.434 23.6424 239.853 23.5024 239.14 23.5024C238.538 23.5024 238.013 23.6074 237.565 23.8174C237.131 24.0273 236.795 24.3283 236.557 24.7202C236.333 25.1121 236.221 25.5951 236.221 26.1689H229.67C229.67 25.1471 229.901 24.1953 230.363 23.3135C230.825 22.4316 231.483 21.6548 232.337 20.9829C233.205 20.311 234.24 19.7931 235.444 19.4292C236.648 19.0513 237.999 18.8623 239.496 18.8623C241.274 18.8623 242.856 19.1632 244.242 19.7651C245.641 20.353 246.747 21.2419 247.559 22.4316C248.371 23.6074 248.777 25.0911 248.777 26.8828V36.394C248.777 37.7658 248.854 38.8436 249.008 39.6274C249.176 40.3973 249.414 41.0692 249.722 41.6431V42H243.108C242.8 41.3421 242.569 40.5303 242.415 39.5645C242.261 38.5846 242.184 37.5908 242.184 36.583ZM243.003 28.1426L243.045 31.7539H239.79C239.063 31.7539 238.433 31.8449 237.901 32.0269C237.383 32.2088 236.963 32.4608 236.641 32.7827C236.319 33.0907 236.081 33.4546 235.927 33.8745C235.787 34.2804 235.717 34.7284 235.717 35.2183C235.717 35.6802 235.829 36.1001 236.053 36.478C236.277 36.842 236.585 37.1289 236.977 37.3389C237.369 37.5488 237.824 37.6538 238.342 37.6538C239.196 37.6538 239.923 37.4858 240.525 37.1499C241.141 36.814 241.617 36.408 241.953 35.9321C242.289 35.4422 242.457 34.9873 242.457 34.5674L244.032 37.2969C243.78 37.8568 243.472 38.4377 243.108 39.0396C242.744 39.6274 242.282 40.1803 241.722 40.6982C241.162 41.2021 240.483 41.6151 239.685 41.937C238.902 42.259 237.957 42.4199 236.851 42.4199C235.423 42.4199 234.128 42.133 232.967 41.5591C231.805 40.9712 230.874 40.1663 230.174 39.1445C229.488 38.1227 229.145 36.9469 229.145 35.6172C229.145 34.4274 229.362 33.3706 229.796 32.4468C230.23 31.5229 230.881 30.7391 231.749 30.0952C232.631 29.4513 233.737 28.9684 235.066 28.6465C236.396 28.3105 237.95 28.1426 239.727 28.1426H243.003Z" fill="white"/>
<path fill-rule="evenodd" clip-rule="evenodd" d="M8.87541 38.9297C9.32957 38.9297 9.77927 38.8401 10.1989 38.6661C10.6184 38.492 10.9997 38.237 11.3208 37.9154C11.6419 37.5939 11.8966 37.2121 12.0704 36.792C12.2442 36.3719 12.3336 35.9216 12.3335 35.4669C12.3335 30.0667 16.7059 25.6892 22.0992 25.6892C23.6938 25.6882 25.2644 26.0781 26.6738 26.8249C28.0832 27.5716 29.2886 28.6525 30.1846 29.9732C31.0807 31.2938 31.6403 32.814 31.8145 34.401C31.9886 35.988 31.7721 37.5936 31.1838 39.0776C30.5955 40.5615 29.6533 41.8787 28.4394 42.914C27.2256 43.9494 25.7771 44.6715 24.2204 45.0172C22.6636 45.363 21.046 45.3218 19.5088 44.8975C17.9716 44.4731 16.5615 43.6783 15.4018 42.5826C14.7307 41.9731 13.8475 41.6515 12.9422 41.687C12.0368 41.7225 11.1815 42.1122 10.5601 42.7724C9.93863 43.4326 9.6007 44.3106 9.6189 45.2176C9.63711 46.1246 10.01 46.9883 10.6574 47.623C13.0267 49.8633 15.9997 51.3594 19.209 51.9265C22.4183 52.4935 25.7231 52.1066 28.7152 50.8135C31.7072 49.5205 34.2553 47.378 36.0445 44.6508C37.8337 41.9236 38.7857 38.7313 38.7827 35.4683V5.79429C38.7827 4.8759 38.4183 3.99513 37.7697 3.34573C37.1211 2.69633 36.2415 2.33151 35.3242 2.33151C34.407 2.33151 33.5273 2.69633 32.8788 3.34573C32.2302 3.99513 31.8658 4.8759 31.8658 5.79429V18.9971C31.8658 18.9971 28.5471 13.2419 21.9102 1.73146C21.4513 0.935982 20.6957 0.355577 19.8095 0.117927C18.9233 -0.119724 17.9791 0.00484615 17.1846 0.464235C16.3902 0.923624 15.8105 1.6802 15.5731 2.56752C15.3358 3.45485 15.4602 4.40024 15.919 5.19571L22.3345 16.3219L5.18791 6.40818C4.39356 5.94894 3.44953 5.82447 2.56351 6.06215C1.6775 6.29983 0.922072 6.88018 0.463417 7.67554C0.00476201 8.4709 -0.11955 9.41612 0.117829 10.3033C0.355209 11.1904 0.934835 11.9468 1.72919 12.406L15.2594 20.2275C9.45706 22.8426 5.41728 28.6823 5.41728 35.4669C5.41728 36.3853 5.78165 37.266 6.43023 37.9154C7.07881 38.5648 7.95848 38.9297 8.87571 38.9297" fill="#432EFF"/>
<path fill-rule="evenodd" clip-rule="evenodd" d="M22.1 27.334C22.6613 27.334 23.2101 27.5007 23.6769 27.8129C24.1436 28.1252 24.5074 28.5691 24.7222 29.0884C24.937 29.6077 24.9932 30.1791 24.8837 30.7303C24.7741 31.2816 24.5038 31.788 24.1068 32.1854C23.7099 32.5828 23.2041 32.8535 22.6535 32.9631C22.1029 33.0727 21.5322 33.0164 21.0136 32.8012C20.495 32.5861 20.0517 32.2218 19.7399 31.7544C19.4281 31.2871 19.2617 30.7376 19.2617 30.1755C19.2617 29.8023 19.3351 29.4328 19.4778 29.088C19.6204 28.7433 19.8295 28.43 20.093 28.1661C20.3566 27.9023 20.6695 27.693 21.0138 27.5502C21.3582 27.4074 21.7273 27.3339 22.1 27.334Z" fill="#432EFF"/>
<path fill-rule="evenodd" clip-rule="evenodd" d="M22.1003 34.6191C20.6554 34.6173 19.2248 34.9043 17.8923 35.4635C16.5597 36.0226 15.3521 36.8426 14.3403 37.8752C15.3654 41.1908 18.4519 43.5992 22.1003 43.5992C25.7486 43.5992 28.8342 41.1908 29.8602 37.8752C28.8484 36.8426 27.6408 36.0226 26.3082 35.4635C24.9757 34.9043 23.5451 34.6173 22.1003 34.6191Z" fill="#432EFF"/>
</svg>
