<svg width="18" height="18" viewBox="0 0 18 18" fill="none" xmlns="http://www.w3.org/2000/svg">
<path d="M16.4394 1.56037C15.8544 0.975371 15.026 0.745372 14.221 0.946205L3.29367 3.67788C1.837 4.04205 0.865233 5.29537 0.876066 6.79703C0.8869 8.2987 1.87534 9.53786 3.337 9.88203L7.20867 10.7929L8.11951 14.6637C8.46368 16.1254 9.70277 17.1137 11.2044 17.1245C11.2119 17.1245 11.2203 17.1245 11.2278 17.1245C12.7187 17.1245 13.9602 16.1554 14.3227 14.707L17.0545 3.77953C17.2544 2.97537 17.0253 2.1462 16.4394 1.56037ZM15.8411 3.47621L13.1093 14.4037C12.8352 15.4979 11.9511 15.8812 11.212 15.8745C10.5078 15.8695 9.59448 15.4745 9.33615 14.3779L8.41615 10.4687L11.9419 6.94204C12.1861 6.69788 12.1861 6.30204 11.9419 6.05787C11.6978 5.81371 11.3019 5.81371 11.0577 6.05787L7.53114 9.58454L3.62183 8.66453C2.52433 8.4062 2.12944 7.49205 2.12444 6.78788C2.11944 6.08371 2.50185 5.16371 3.59518 4.89037L14.5227 2.15869C14.6119 2.13619 14.7019 2.12538 14.7902 2.12538C15.0736 2.12538 15.3469 2.23704 15.5544 2.44454C15.8269 2.71621 15.9344 3.10205 15.8411 3.47621Z" fill="white"/>
</svg>
